<?xml version="1.0" encoding="utf-8"?>
<!-- Generator: Adobe Illustrator 16.0.0, SVG Export Plug-In . SVG Version: 6.00 Build 0)  -->
<!DOCTYPE svg PUBLIC "-//W3C//DTD SVG 1.1//EN" "http://www.w3.org/Graphics/SVG/1.1/DTD/svg11.dtd">
<svg version="1.1" id="Layer_1" xmlns="http://www.w3.org/2000/svg" xmlns:xlink="http://www.w3.org/1999/xlink" x="0px" y="0px"
	 width="156.03px" height="130px" viewBox="0 0 156.03 130" enable-background="new 0 0 156.03 130" xml:space="preserve">
<path fill="#FFFFFF" d="M103.191,41.162C90.17,41.191,79.63,51.654,79.609,64.59c0.021,12.934,10.561,23.393,23.582,23.422
	c8.054-0.016,15.166-4.037,19.408-10.176l11.451,8.389c-6.839,9.611-18.113,15.895-30.859,15.895
	C82.32,102.113,65.417,85.324,65.417,64.59c0-20.729,16.903-37.531,37.774-37.539c12.746,0.008,24.021,6.291,30.859,15.906
	L122.6,51.34C118.357,45.203,111.245,41.184,103.191,41.162 M139.201,101.025c1.986-1.98,3.813-4.141,5.452-6.422l11.377,8.342
	C144.161,119.328,124.819,130,102.977,130c-33.752,0-61.502-25.418-65.002-58.035H13.141v46.574L0,128.096V1.624h6.976h48.292
	L44.084,15.53H13.141v42.527h24.833C41.475,25.422,69.225,0.018,102.977,0c21.843,0.018,41.185,10.684,53.054,27.062l-11.377,8.342
	c-1.64-2.283-3.466-4.434-5.452-6.42c-9.297-9.23-22.061-14.919-36.225-14.919c-14.181,0-26.939,5.689-36.234,14.919
	c-9.28,9.238-15.01,21.928-15.01,36.02c0,14.086,5.729,26.785,15.01,36.021c9.295,9.23,22.054,14.916,36.234,14.916
	C117.141,115.941,129.904,110.256,139.201,101.025"/>
</svg>
