<?xml version="1.0" encoding="utf-8"?>
<!-- Generator: Adobe Illustrator 16.0.0, SVG Export Plug-In . SVG Version: 6.00 Build 0)  -->
<!DOCTYPE svg PUBLIC "-//W3C//DTD SVG 1.1//EN" "http://www.w3.org/Graphics/SVG/1.1/DTD/svg11.dtd">
<svg version="1.1"
	 id="svg27" xmlns:dc="http://purl.org/dc/elements/1.1/" xmlns:cc="http://creativecommons.org/ns#" xmlns:rdf="http://www.w3.org/1999/02/22-rdf-syntax-ns#" xmlns:svg="http://www.w3.org/2000/svg"
	 xmlns="http://www.w3.org/2000/svg" xmlns:xlink="http://www.w3.org/1999/xlink" x="0px" y="0px" width="161px" height="77px"
	 viewBox="0 0 161 77" enable-background="new 0 0 161 77" xml:space="preserve">
<rect id="backgroundrect" fill="none" width="498" height="77"/>
<title  id="title3">beamcall_logo</title>
<g id="g25">
	<title  id="title5">Layer 1</title>
	<rect id="svg_1" fill-opacity="0" width="161" height="77"/>
	<g id="svg_2">
		<g id="svg_3">
			<path id="svg_4" fill="#FFFFFF" d="M41.846,37.767c0.35,0.298,0.625,0.666,0.827,1.103c0.201,0.438,0.302,0.911,0.302,1.418
				v4.228c0,0.475-0.088,0.914-0.263,1.325s-0.42,0.774-0.735,1.091c-0.313,0.313-0.679,0.563-1.088,0.734
				c-0.412,0.175-0.854,0.262-1.326,0.262H24.073V29.024h14.7c0.474,0,0.914,0.088,1.326,0.262c0.411,0.176,0.774,0.421,1.09,0.736
				c0.315,0.314,0.562,0.678,0.735,1.09c0.175,0.411,0.263,0.853,0.263,1.325v3.859C42.188,36.787,42.073,37.277,41.846,37.767z
				 M27.484,31.859c-0.157,0-0.293,0.058-0.407,0.171c-0.114,0.114-0.17,0.25-0.17,0.407v3.859c0,0.157,0.057,0.293,0.17,0.407
				c0.114,0.113,0.25,0.17,0.407,0.17h11.289c0.158,0,0.293-0.057,0.408-0.17c0.112-0.114,0.17-0.25,0.17-0.407v-3.859
				c0-0.157-0.058-0.293-0.17-0.407c-0.115-0.113-0.25-0.171-0.408-0.171H27.484z M40.139,40.287c0-0.158-0.057-0.293-0.17-0.407
				c-0.113-0.112-0.25-0.171-0.406-0.171H27.484c-0.156,0-0.293,0.059-0.406,0.171c-0.114,0.114-0.17,0.249-0.17,0.407v4.227
				c0,0.158,0.057,0.295,0.17,0.407c0.113,0.114,0.25,0.171,0.406,0.171h12.076c0.157,0,0.293-0.057,0.407-0.171
				c0.113-0.112,0.171-0.249,0.171-0.407V40.287L40.139,40.287z"/>
			<path id="svg_5" fill="#FFFFFF" d="M65.08,31.859H50.587v5.198h11.657v2.835H50.587v5.196H65.08v2.835H47.752v-18.9H65.08V31.859
				z"/>
			<path id="svg_6" fill="#FFFFFF" d="M85.217,29.024c0.473,0,0.913,0.088,1.325,0.262c0.41,0.176,0.774,0.421,1.089,0.736
				c0.314,0.314,0.561,0.678,0.736,1.09c0.175,0.411,0.262,0.853,0.262,1.325v15.489h-2.836v-6.615h-13.23v6.615h-2.836V32.438
				c0-0.473,0.088-0.914,0.265-1.325c0.174-0.412,0.419-0.775,0.733-1.09s0.678-0.561,1.09-0.736
				c0.41-0.174,0.854-0.262,1.326-0.262L85.217,29.024L85.217,29.024z M85.793,38.476v-6.038c0-0.157-0.057-0.293-0.17-0.407
				c-0.114-0.113-0.249-0.171-0.406-0.171H73.141c-0.158,0-0.295,0.058-0.408,0.171c-0.112,0.114-0.17,0.25-0.17,0.407v6.038H85.793
				z"/>
			<path id="svg_7" fill="#FFFFFF" d="M111.521,29.024h3.387v18.902h-2.835V32.805l-7.876,9.373l-7.877-9.373v15.122h-2.834V29.024
				h3.358l7.354,8.742L111.521,29.024z"/>
		</g>
		
			<linearGradient id="svg_9_1_" gradientUnits="userSpaceOnUse" x1="-1515.4795" y1="26.4946" x2="-1514.4773" y2="26.4946" gradientTransform="matrix(18.9322 0 0 -18.9554 28811.4512 540.7236)">
			<stop  offset="0" style="stop-color:#5DCAF0"/>
			<stop  offset="0.5" style="stop-color:#2BABE2"/>
			<stop  offset="1" style="stop-color:#148ACB"/>
		</linearGradient>
		<path id="svg_9" fill="url(#svg_9_1_)" d="M135.098,47.977c0-0.002-0.002-0.002-0.004-0.002c-0.004,0-0.008-0.002-0.012-0.004
			c-0.001,0-0.003,0-0.005-0.002c-0.004,0-0.009-0.001-0.013-0.003c-0.002,0-0.004-0.001-0.006-0.002
			c-0.012-0.002-0.021-0.004-0.025-0.007c-0.004-0.002-0.008-0.002-0.01-0.003s-0.006-0.001-0.008-0.002v-0.001
			c-0.009-0.001-0.014-0.002-0.019-0.004c-0.003-0.002-0.006-0.002-0.009-0.002c-0.006,0-0.008-0.002-0.01-0.002
			c-0.002-0.002-0.004-0.002-0.006-0.002c-0.004-0.002-0.008-0.002-0.011-0.004c-0.001,0-0.001,0-0.002,0
			c-0.005-0.002-0.01-0.002-0.015-0.004c-0.004-0.002-0.006-0.002-0.01-0.002c-0.002-0.002-0.005-0.002-0.008-0.006
			c-0.004,0-0.004-0.001-0.007-0.001c-0.004-0.001-0.008-0.002-0.012-0.003c-0.001-0.001-0.002-0.001-0.002-0.001
			c-0.007-0.001-0.011-0.003-0.017-0.004c-0.002-0.001-0.004-0.001-0.004-0.002c-0.004,0-0.009-0.002-0.013-0.003
			c-0.002-0.001-0.004-0.001-0.005-0.002c-0.003,0-0.008-0.001-0.012-0.003c-0.002-0.001-0.004-0.001-0.006-0.001
			c-0.005,0-0.01-0.002-0.014-0.004c-0.002-0.002-0.006-0.004-0.009-0.004c-0.002,0-0.004-0.002-0.007-0.002
			c-0.002,0-0.002,0-0.004-0.002c-0.006,0-0.01-0.002-0.016-0.002c-0.002-0.002-0.002-0.002-0.006-0.002
			c-0.002-0.002-0.006-0.002-0.01-0.004c-0.002,0-0.003-0.002-0.005-0.002c-0.005,0-0.009-0.002-0.013-0.002
			c-0.002-0.002-0.004-0.003-0.007-0.003c-0.004-0.001-0.009-0.002-0.011-0.003s-0.007-0.002-0.01-0.002
			c-0.004-0.001-0.006-0.002-0.008-0.003c-0.002,0-0.004-0.001-0.004-0.001c-0.004-0.001-0.01-0.002-0.016-0.003l-0.002-0.001
			c-0.004-0.001-0.009-0.002-0.014-0.003c-0.002-0.001-0.004-0.002-0.006-0.002c-0.004-0.001-0.008-0.003-0.013-0.003
			c-0.002-0.002-0.004-0.002-0.004-0.002c-0.005-0.002-0.009-0.002-0.013-0.004c-0.005,0-0.01-0.002-0.014-0.002
			c-0.008-0.004-0.016-0.004-0.021-0.009c-0.002,0-0.006,0-0.008-0.003c-0.002,0-0.007-0.002-0.011-0.002
			c-0.002,0-0.004-0.002-0.006-0.003c-0.004,0-0.006-0.001-0.01-0.003c-0.002,0-0.004-0.001-0.007-0.001
			c-0.004-0.001-0.008-0.002-0.012-0.003c-0.003,0-0.005-0.001-0.009-0.002c-0.002,0-0.006-0.001-0.008-0.002
			s-0.005-0.002-0.007-0.002c-0.004-0.001-0.008-0.002-0.012-0.004c-0.002,0-0.006-0.002-0.008-0.002
			c-0.003-0.002-0.007-0.002-0.011-0.004c-0.002-0.002-0.004-0.002-0.004-0.002c-0.004-0.002-0.008-0.002-0.012-0.004
			c-0.003,0-0.005,0-0.005,0c-0.004-0.002-0.01-0.002-0.015-0.004c-0.002-0.002-0.004-0.002-0.008-0.002
			c-0.002-0.002-0.007-0.002-0.009-0.002c-0.002-0.002-0.002-0.002-0.004-0.002c-0.006-0.002-0.01-0.002-0.014-0.004
			s-0.007-0.002-0.011-0.003c-0.002,0-0.004,0-0.008-0.001c-0.002-0.001-0.004-0.002-0.006-0.002
			c-0.002-0.001-0.006-0.002-0.011-0.003c-0.002-0.001-0.002-0.001-0.004-0.001c-0.004-0.001-0.009-0.002-0.013-0.004
			c-0.004-0.001-0.006-0.002-0.01-0.004c-0.009-0.002-0.019-0.004-0.022-0.006s-0.009-0.002-0.013-0.004
			c-0.002,0-0.004,0-0.006-0.002c-0.002,0-0.005,0-0.005,0c-0.004-0.002-0.008-0.002-0.013-0.005c-0.003,0-0.003,0-0.005,0
			c-0.002-0.002-0.009-0.005-0.013-0.005c-0.002-0.002-0.004-0.002-0.006-0.002c-0.004,0-0.008-0.002-0.012-0.002
			c-0.004-0.002-0.007-0.004-0.011-0.004c-0.002-0.001-0.004-0.001-0.006-0.002c0,0-0.003,0-0.003-0.001
			c-0.006-0.001-0.01-0.002-0.017-0.004c-0.002,0-0.004-0.001-0.006-0.002c-0.004,0-0.007-0.001-0.01-0.003
			c-0.002,0-0.004-0.002-0.007-0.002c-0.004,0-0.008-0.002-0.012-0.004c-0.002,0-0.004,0-0.004-0.002
			c-0.004,0-0.008-0.002-0.014-0.002c-0.003-0.002-0.006-0.004-0.009-0.004c-0.005,0-0.007-0.002-0.009-0.002
			c-0.002-0.002-0.004-0.002-0.006-0.002c-0.005-0.002-0.009-0.002-0.011-0.004c-0.004,0-0.006,0-0.008-0.002
			c-0.004,0-0.007,0-0.01-0.002c-0.003,0-0.003,0-0.005,0c-0.004-0.002-0.01-0.002-0.014-0.004c-0.002,0-0.004-0.002-0.006-0.003
			c-0.004,0-0.008-0.001-0.012-0.003c-0.003-0.001-0.006-0.002-0.01-0.003c-0.002,0-0.006,0-0.008-0.001s-0.002-0.001-0.002-0.001
			c-0.004-0.003-0.011-0.003-0.015-0.005c-0.004,0-0.008-0.002-0.011-0.002c-0.01-0.002-0.018-0.006-0.022-0.008
			c-0.004,0-0.006-0.002-0.008-0.002c-0.004,0-0.007-0.003-0.01-0.003c-0.001,0-0.003,0-0.005-0.002c-0.006,0-0.01,0-0.012-0.002
			c-0.002,0-0.002,0-0.004-0.003c-0.004,0-0.01-0.002-0.014-0.004c-0.004,0-0.007-0.002-0.01-0.002
			c-0.004,0-0.006-0.002-0.008-0.002c-0.002-0.001-0.004-0.001-0.004-0.002c-0.004-0.001-0.011-0.002-0.015-0.003
			c-0.002-0.001-0.006-0.002-0.008-0.003c-0.004,0-0.007-0.002-0.011-0.002c0,0,0-0.002-0.002-0.002
			c-0.006,0-0.01-0.002-0.014-0.004c-0.002-0.002-0.004-0.002-0.006-0.002c-0.006-0.002-0.008-0.002-0.012-0.004
			c-0.004,0-0.005,0-0.008-0.002c-0.004,0-0.006-0.002-0.01-0.002c-0.004-0.002-0.006-0.002-0.011-0.004c-0.002,0-0.006,0-0.008,0
			c-0.002-0.002-0.004-0.002-0.006-0.002c-0.003-0.002-0.007-0.002-0.011-0.004c-0.002,0-0.002,0-0.004-0.002
			c-0.006,0-0.01,0-0.014-0.002c-0.002-0.002-0.002-0.002-0.004-0.002c-0.004-0.002-0.01-0.002-0.014-0.004
			c-0.004-0.001-0.008-0.002-0.01-0.003c-0.002,0-0.006-0.001-0.008-0.002c-0.004-0.001-0.006-0.003-0.011-0.003
			c-0.002,0-0.004-0.002-0.008-0.002c0,0-0.002-0.002-0.004-0.002c-0.005-0.002-0.009-0.002-0.013-0.004c-0.002,0-0.002,0-0.004,0
			c-0.006-0.002-0.01-0.002-0.014-0.002c-0.002-0.002-0.002-0.002-0.004-0.002c-0.004-0.002-0.01-0.002-0.014-0.005
			c-0.002,0-0.004,0-0.006-0.002c-0.004,0-0.008-0.002-0.012-0.002c-0.004-0.002-0.009-0.004-0.013-0.004
			c-0.002,0-0.004-0.003-0.006-0.003l0,0c-0.007-0.002-0.013-0.002-0.017-0.004c-0.002-0.002-0.005-0.002-0.008-0.002
			c-0.002-0.002-0.006-0.002-0.01-0.004c0,0-0.002,0-0.002-0.001c-0.006-0.001-0.012-0.003-0.016-0.003
			c-0.002-0.002-0.004-0.002-0.006-0.002c-0.004-0.002-0.008-0.002-0.012-0.004c-0.003,0-0.007,0-0.009-0.002
			c-0.004-0.002-0.006-0.002-0.008-0.002c-0.003-0.002-0.005-0.002-0.005-0.002c-0.004-0.002-0.01-0.002-0.014-0.004
			c-0.002,0-0.004-0.002-0.007-0.002c-0.003-0.002-0.007-0.002-0.011-0.004c-0.002,0-0.004,0-0.006-0.002
			c-0.004,0-0.008,0-0.012-0.002c-0.002,0-0.004-0.002-0.004-0.002c-0.005-0.002-0.009-0.002-0.015-0.004
			c-0.002,0-0.006-0.002-0.008-0.002c-0.011-0.002-0.017-0.006-0.023-0.006c-0.003-0.002-0.007-0.004-0.012-0.006
			c-0.002,0-0.004,0-0.006,0c-0.002-0.002-0.004-0.002-0.007-0.002c-0.002,0-0.006-0.002-0.01-0.002
			c-0.002-0.002-0.004-0.002-0.006-0.002c-0.005-0.002-0.008-0.002-0.012-0.004c-0.002,0-0.004,0-0.006-0.002
			c-0.004,0-0.008,0-0.01-0.003c-0.004,0-0.006,0-0.006-0.002c-0.004,0-0.01-0.002-0.015-0.002
			c-0.002-0.002-0.004-0.002-0.008-0.004c-0.004,0-0.008,0-0.011-0.002c-0.002,0-0.006-0.003-0.008-0.005c-0.004,0-0.006,0-0.009,0
			c-0.001-0.002-0.003-0.002-0.003-0.002c-0.005-0.002-0.01-0.002-0.014-0.004c-0.002,0-0.004,0-0.006-0.002
			c-0.004,0-0.01-0.002-0.012-0.002s-0.004-0.002-0.004-0.002c-0.005-0.002-0.01-0.002-0.015-0.004c-0.004,0-0.006-0.002-0.01-0.002
			c-0.003,0-0.005-0.002-0.009-0.004c-0.002,0-0.006-0.002-0.008-0.002c-0.004,0-0.006-0.002-0.009-0.002
			c-0.001,0-0.002,0-0.003-0.002c-0.005,0-0.01-0.002-0.014-0.002c-0.002-0.002-0.002-0.002-0.004-0.002
			c-0.004-0.002-0.01-0.004-0.016-0.004c-0.003-0.002-0.006-0.002-0.008-0.004c-0.002,0-0.005,0-0.008-0.002
			c-0.003,0-0.003,0-0.005-0.002c-0.007,0-0.011-0.002-0.015-0.002c-0.002-0.002-0.006-0.002-0.008-0.004c-0.004,0-0.007,0-0.008,0
			s-0.002-0.002-0.003-0.002c-0.005-0.002-0.011-0.002-0.015-0.002c0-0.002-0.002-0.002-0.004-0.004
			c-0.006,0-0.01-0.002-0.016-0.002c-0.002-0.002-0.005-0.004-0.008-0.004s-0.005,0-0.009-0.002c0,0,0,0-0.003,0
			c-0.006-0.002-0.01-0.005-0.016-0.005c-0.002-0.002-0.006-0.004-0.011-0.004c-0.008-0.002-0.015-0.004-0.021-0.006
			c-0.002-0.003-0.006-0.003-0.01-0.003c-0.002-0.002-0.006-0.002-0.01-0.004c-0.002,0-0.003,0-0.005,0
			c-0.004-0.002-0.008-0.002-0.013-0.002c-0.002-0.002-0.004-0.002-0.006-0.002c-0.004-0.002-0.008-0.004-0.012-0.004
			c-0.002,0-0.004-0.002-0.006-0.002c-0.004-0.002-0.008-0.002-0.011-0.004c-0.002,0-0.004,0-0.007-0.002
			c-0.002,0-0.008-0.002-0.01-0.002c-0.002-0.002-0.004-0.004-0.008-0.004c-0.004-0.002-0.008-0.002-0.01-0.002
			c-0.003,0-0.005-0.002-0.007-0.002c-0.004-0.002-0.009-0.002-0.013-0.004c0,0-0.002,0-0.004,0
			c-0.006-0.002-0.01-0.004-0.014-0.004c-0.002,0-0.004-0.002-0.006-0.002c-0.004-0.002-0.008-0.004-0.011-0.004
			s-0.005,0-0.007-0.002c-0.004,0-0.006-0.002-0.01-0.002s-0.006-0.002-0.008-0.002c-0.004,0-0.008-0.002-0.012-0.002
			c-0.002-0.002-0.003-0.002-0.005-0.002c-0.003-0.002-0.009-0.002-0.013-0.004h-0.002c-0.006-0.002-0.01-0.004-0.016-0.006
			c-0.002,0-0.004-0.002-0.006-0.002c-0.004,0-0.007-0.002-0.01-0.002c-0.004-0.002-0.008-0.002-0.01-0.005
			c-0.002,0-0.007,0-0.01-0.002c-0.002,0-0.004,0-0.006-0.002c-0.004,0-0.008-0.002-0.01-0.002c-0.004,0-0.004-0.002-0.008-0.002
			c-0.004-0.002-0.008-0.002-0.01-0.002s-0.004-0.002-0.004-0.002c-0.006,0-0.01-0.002-0.016-0.002l-0.002-0.003
			c-0.004-0.002-0.01-0.002-0.014-0.004c-0.004,0-0.011-0.002-0.015-0.004c-0.001,0-0.003,0-0.005,0h-0.002
			c-0.004-0.002-0.008-0.004-0.016-0.006c-0.002,0-0.004,0-0.008-0.002c-0.002,0-0.006-0.002-0.01-0.002
			c-0.002-0.002-0.003-0.002-0.006-0.002c-0.002-0.002-0.006-0.004-0.01-0.004c-0.002-0.002-0.002-0.002-0.004-0.002
			c-0.006-0.002-0.01-0.002-0.015-0.004c-0.004,0-0.007-0.002-0.01-0.002c-0.003-0.002-0.005-0.002-0.007-0.002
			s-0.004,0-0.006-0.002c-0.004,0-0.008-0.002-0.014-0.002c-0.002,0-0.004-0.002-0.008-0.002c-0.002-0.004-0.006-0.004-0.009-0.004
			c-0.001,0-0.002-0.002-0.003-0.002c-0.006,0-0.01-0.002-0.014-0.004c-0.002,0-0.004,0-0.006,0
			c-0.007-0.002-0.009-0.004-0.013-0.004c-0.002,0-0.006-0.002-0.01-0.004c-0.002,0-0.005,0-0.007,0
			c-0.002-0.002-0.004-0.002-0.006-0.002c-0.004-0.002-0.01-0.004-0.014-0.004c-0.002,0-0.002-0.002-0.002-0.002
			c-0.004-0.003-0.01-0.003-0.015-0.005c-0.002,0-0.004-0.002-0.007-0.002c-0.004-0.002-0.006-0.002-0.01-0.002
			c-0.002,0-0.004,0-0.007-0.002c-0.004,0-0.008-0.002-0.012-0.002c-0.003-0.002-0.006-0.002-0.009-0.004
			c-0.008-0.002-0.02-0.005-0.022-0.007c-0.004,0-0.006-0.002-0.008-0.002c-0.004-0.002-0.007-0.002-0.011-0.002
			c-0.003-0.002-0.006-0.002-0.01-0.004c-0.002,0-0.004-0.002-0.006-0.002c-0.004,0-0.006,0-0.008-0.002
			c-0.004,0-0.008-0.002-0.012-0.002c-0.002-0.002-0.004-0.002-0.005-0.002c-0.004-0.002-0.009-0.004-0.013-0.005l0,0
			c-0.006-0.003-0.011-0.003-0.017-0.005c-0.006,0-0.01-0.002-0.014-0.004c-0.002,0-0.003,0-0.005,0s-0.002-0.002-0.004-0.002
			c-0.004-0.002-0.008-0.002-0.014-0.002c-0.002-0.002-0.004-0.002-0.006-0.002c-0.004-0.002-0.008-0.004-0.012-0.004
			c-0.002-0.001-0.004-0.001-0.006-0.002c-0.004-0.002-0.006-0.002-0.01-0.004c-0.002,0-0.004,0-0.007-0.002
			c-0.004,0-0.008-0.002-0.012-0.002s-0.005-0.002-0.007-0.002c-0.004-0.002-0.008-0.002-0.012-0.004c0,0-0.002,0-0.004-0.002
			c-0.004,0-0.01-0.002-0.014-0.002s-0.006-0.002-0.01-0.002c-0.003-0.003-0.005-0.003-0.007-0.005c-0.001,0-0.001,0-0.001,0
			c-0.006-0.002-0.012-0.002-0.016-0.004c-0.003,0-0.005,0-0.007-0.002c-0.004,0-0.008-0.002-0.012-0.002
			c-0.003-0.002-0.004-0.002-0.006-0.002c-0.005-0.002-0.009-0.004-0.013-0.004c0,0-0.002,0-0.004-0.002
			c-0.006,0-0.01-0.002-0.014-0.003c-0.004-0.002-0.006-0.002-0.01-0.004c-0.003,0-0.006-0.002-0.008-0.002h-0.002
			c-0.006-0.002-0.01-0.004-0.017-0.004c0,0-0.002-0.002-0.004-0.002c-0.004-0.002-0.008-0.002-0.013-0.004
			c-0.001,0-0.003,0-0.006,0c-0.004,0-0.008-0.002-0.012-0.002c-0.002-0.003-0.007-0.006-0.01-0.006
			c-0.002-0.002-0.006-0.002-0.008-0.002h-0.002c-0.006-0.002-0.012-0.004-0.016-0.004c-0.002-0.002-0.004-0.002-0.008-0.004
			c-0.003,0-0.007-0.002-0.009-0.002s-0.002,0-0.004,0c-0.004-0.002-0.008-0.004-0.013-0.004c-0.004,0-0.004,0-0.006-0.002
			c-0.004-0.001-0.008-0.004-0.013-0.004c-0.004-0.002-0.007-0.002-0.013-0.004c-0.002,0-0.004-0.002-0.006-0.002h-0.002
			c-0.006-0.002-0.012-0.002-0.016-0.002c-0.002-0.002-0.004-0.002-0.006-0.004c-0.005,0-0.007-0.002-0.011-0.002
			c-0.002,0-0.004,0-0.006-0.003c-0.005,0-0.009-0.002-0.011-0.002c-0.004,0-0.006-0.002-0.008-0.002
			c-0.002-0.002-0.007-0.004-0.011-0.004c-0.001,0-0.003,0-0.003-0.002c-0.006,0-0.01-0.002-0.016-0.004
			c-0.004,0-0.006-0.002-0.012-0.004c0,0-0.002,0-0.004,0c-0.003,0-0.005-0.002-0.007-0.002c-0.004-0.002-0.008-0.003-0.012-0.005
			c-0.002,0-0.004,0-0.006,0c-0.005-0.002-0.007-0.004-0.011-0.004c-0.002,0-0.004,0-0.006-0.002c-0.005,0-0.009-0.002-0.014-0.002
			c0,0-0.002,0-0.004-0.002c-0.006,0-0.01-0.002-0.012-0.002s-0.004-0.002-0.006-0.002c-0.006-0.002-0.009-0.002-0.013-0.005
			c-0.002,0-0.004,0-0.006-0.002c-0.004,0-0.008-0.003-0.012-0.003c-0.003,0-0.005-0.002-0.005-0.002
			c-0.004-0.002-0.008-0.002-0.012-0.004c-0.004,0-0.006,0-0.008-0.002c-0.004,0-0.008-0.002-0.012-0.002h-0.002
			c-0.004-0.002-0.01-0.004-0.014-0.004c-0.002-0.002-0.004-0.002-0.006-0.002c-0.005-0.002-0.009-0.004-0.013-0.006
			c-0.002,0-0.004,0-0.006,0c-0.004,0-0.006-0.002-0.011-0.002c-0.004-0.002-0.01-0.004-0.015-0.004
			c0-0.002-0.002-0.002-0.004-0.002c0,0,0,0-0.002,0c-0.005-0.002-0.011-0.004-0.015-0.004c-0.002,0-0.004-0.003-0.006-0.003
			c-0.004-0.002-0.008-0.002-0.012-0.004c-0.003,0-0.005,0-0.007,0c-0.004-0.002-0.008-0.004-0.011-0.006
			c-0.003,0-0.007,0-0.01-0.002c-0.004,0-0.006-0.002-0.008-0.002c-0.004,0-0.006-0.002-0.009-0.002
			c-0.004-0.002-0.006-0.002-0.01-0.004c-0.002,0-0.002,0-0.004,0c-0.005-0.002-0.009-0.002-0.013-0.005
			c-0.002,0-0.004,0-0.006-0.002c-0.004,0-0.009,0-0.013-0.002c-0.002,0-0.004,0-0.006,0c-0.004-0.002-0.007-0.004-0.012-0.004
			c-0.005-0.002-0.007-0.002-0.011-0.004c-0.009-0.002-0.017-0.005-0.021-0.007c-0.002,0-0.004,0-0.006-0.002
			c-0.004,0-0.009-0.002-0.013-0.005c-0.004,0-0.006,0-0.01-0.002c-0.003,0-0.005-0.002-0.007-0.002s-0.004-0.002-0.008-0.002
			c-0.002,0-0.007-0.002-0.011-0.002c0,0,0,0-0.002,0c-0.004-0.002-0.01-0.004-0.014-0.006c-0.003,0-0.005,0-0.005,0
			c-0.004,0-0.01-0.002-0.014-0.004c-0.006-0.002-0.011-0.002-0.015-0.004c-0.002,0-0.004-0.002-0.004-0.002
			c-0.002,0-0.002,0-0.004,0c-0.004-0.002-0.009-0.002-0.013-0.004c-0.004,0-0.006-0.002-0.008-0.002
			c-0.005-0.002-0.007-0.002-0.011-0.005c-0.002,0-0.004,0-0.006,0c-0.002-0.002-0.007-0.002-0.011-0.004c-0.002,0-0.004,0-0.006,0
			c-0.004-0.002-0.008-0.004-0.012-0.004c-0.005-0.002-0.007-0.002-0.011-0.004c-0.002-0.002-0.004-0.002-0.008-0.004h-0.001
			c-0.006,0-0.012-0.002-0.016-0.002s-0.006-0.002-0.011-0.002c-0.002-0.003-0.004-0.003-0.006-0.005h-0.002
			c-0.007,0-0.012-0.002-0.017-0.004c-0.006,0-0.01-0.002-0.014-0.004c-0.003,0-0.003,0-0.003-0.002c-0.002,0-0.004,0-0.006,0
			c-0.01-0.002-0.021-0.007-0.028-0.009c-0.002,0-0.007-0.002-0.011-0.004c-0.002,0-0.004-0.002-0.006-0.002s-0.006,0-0.008-0.003
			c-0.004,0-0.007-0.002-0.011-0.002c-0.002,0-0.004-0.002-0.006-0.002s-0.007-0.002-0.011-0.002h-0.002
			c-0.004-0.002-0.011-0.004-0.017-0.006c-0.003,0-0.008,0-0.01-0.002c-0.002,0-0.004-0.002-0.006-0.004c-0.003,0-0.003,0-0.005,0
			c-0.004,0-0.01-0.002-0.014-0.004c-0.003,0-0.005,0-0.007-0.002c-0.004,0-0.007-0.002-0.012-0.002
			c0-0.002-0.002-0.002-0.004-0.002c-0.005-0.003-0.009-0.003-0.013-0.005c-0.002,0-0.002,0-0.004,0
			c-0.006-0.002-0.01-0.004-0.015-0.004c-0.002,0-0.006-0.002-0.01-0.004c-0.003,0-0.005,0-0.007-0.002c-0.002,0-0.004,0-0.006,0
			c-0.006,0-0.008-0.002-0.013-0.004c-0.001,0-0.001,0-0.001,0c-0.005,0-0.01-0.004-0.015-0.006c-0.005,0-0.007,0-0.011-0.003
			c-0.002,0-0.006-0.002-0.009-0.002c-0.004,0-0.007-0.002-0.011-0.002c-0.001-0.002-0.004-0.002-0.006-0.002
			c0-0.002-0.001-0.002-0.001-0.002c-0.013-0.002-0.021-0.004-0.031-0.008c-0.005,0-0.009-0.003-0.014-0.005
			c0,0-0.003-0.002-0.005-0.002s-0.002,0-0.004,0c-0.004,0-0.008-0.002-0.012-0.004c-0.005,0-0.008-0.003-0.011-0.003
			c-0.002,0-0.005-0.002-0.008-0.002c-0.001,0-0.003,0-0.007-0.002c-0.004,0-0.008-0.002-0.012-0.002c0-0.002,0-0.002-0.002-0.002
			c-0.006,0-0.011-0.002-0.015-0.004c-0.003,0-0.005,0-0.007-0.002c-0.004,0-0.008-0.002-0.012-0.002
			c0-0.002-0.002-0.002-0.004-0.002c-0.004-0.002-0.008-0.004-0.014-0.004c-0.001,0-0.003,0-0.005-0.002
			c-0.004,0-0.008-0.002-0.012-0.004c-0.001,0-0.003,0-0.003,0c-0.006-0.002-0.01-0.003-0.014-0.005
			c-0.005,0-0.009-0.002-0.013-0.002c-0.002-0.002-0.004-0.002-0.006-0.002s-0.004,0-0.006-0.002c-0.005,0-0.007-0.002-0.011-0.004
			c-0.004,0-0.006,0-0.008,0c-0.004-0.002-0.007-0.002-0.012-0.004c-0.001,0-0.002,0-0.003,0c-0.004-0.002-0.009-0.004-0.013-0.004
			c-0.002-0.002-0.004-0.002-0.008-0.005c-0.004,0-0.009-0.002-0.011-0.002s-0.004-0.002-0.006-0.002
			c-0.004,0-0.008-0.002-0.012-0.004c-0.001,0-0.003,0-0.005,0c-0.004-0.002-0.01-0.002-0.012-0.004c-0.004,0-0.006,0-0.008-0.002
			c-0.004,0-0.007-0.003-0.012-0.004h-0.002c-0.005-0.001-0.01-0.002-0.014-0.003c-0.002-0.002-0.004-0.002-0.006-0.002
			c-0.005,0-0.009-0.002-0.013-0.004c-0.002,0-0.004,0-0.006,0c-0.003-0.002-0.007-0.005-0.011-0.005
			c-0.002-0.002-0.006-0.002-0.008-0.002c-0.004-0.002-0.008-0.002-0.012-0.004c-0.002,0-0.004,0-0.006,0
			c-0.003-0.002-0.007-0.004-0.011-0.004c-0.001,0-0.003-0.002-0.005-0.002c-0.004,0-0.008-0.002-0.012-0.004
			c-0.002,0-0.004,0-0.007,0c-0.004-0.002-0.008-0.004-0.012-0.004c-0.002-0.002-0.004-0.002-0.006-0.002
			c-0.004-0.002-0.009-0.002-0.011-0.004c-0.004,0-0.006,0-0.008-0.002c-0.004-0.001-0.008-0.001-0.01-0.002
			s-0.004-0.001-0.006-0.001c-0.005-0.001-0.009-0.003-0.014-0.004c-0.002-0.002-0.002-0.002-0.004-0.002
			c-0.004,0-0.008-0.002-0.013-0.004h-0.002c-0.006-0.002-0.012-0.002-0.016-0.004c-0.002,0-0.004-0.002-0.007-0.002
			c-0.004,0-0.008-0.002-0.01-0.005c-0.002,0-0.006,0-0.006,0c-0.004-0.002-0.008-0.002-0.012-0.004
			c-0.002-0.002-0.005-0.002-0.007-0.002c-0.004-0.002-0.009-0.002-0.011-0.004c-0.004,0-0.008-0.002-0.01-0.002
			s-0.005-0.002-0.009-0.002l-0.002-0.002c-0.006,0-0.01-0.002-0.016-0.003c-0.003-0.001-0.005-0.001-0.007-0.001
			c-0.002-0.001-0.006-0.003-0.01-0.004c-0.002,0-0.004-0.001-0.006-0.001c-0.004-0.001-0.008-0.002-0.013-0.004
			c-0.004-0.002-0.009-0.002-0.011-0.002c-0.004-0.002-0.004-0.002-0.006-0.002c0-0.003-0.002-0.003-0.004-0.003
			c-0.005,0-0.009-0.002-0.015-0.004c-0.002,0-0.002-0.002-0.006-0.002s-0.009-0.002-0.013-0.002
			c-0.002-0.002-0.002-0.002-0.004-0.002c-0.004,0-0.008-0.002-0.012-0.004c-0.004,0-0.006,0-0.008-0.002
			c-0.004,0-0.006-0.002-0.011-0.002c0,0-0.002-0.002-0.005-0.002c-0.004,0-0.008-0.002-0.012-0.004
			c-0.002,0-0.004-0.001-0.006-0.001c-0.005-0.001-0.009-0.002-0.013-0.004c-0.002,0-0.006-0.001-0.011-0.002
			c0-0.001-0.004-0.002-0.006-0.003c-0.002,0-0.002,0-0.004-0.001c-0.004,0-0.01-0.002-0.014-0.004c-0.004,0-0.006-0.002-0.01-0.002
			c-0.01-0.002-0.018-0.004-0.023-0.009c-0.001,0-0.003,0-0.006,0c-0.004-0.002-0.008-0.002-0.01-0.004
			c-0.004-0.002-0.008-0.002-0.014-0.004c-0.002,0-0.004-0.002-0.006-0.002s-0.006,0-0.008-0.002c-0.004,0-0.007-0.002-0.009-0.002
			c0,0,0,0-0.002,0c-0.004-0.002-0.011-0.004-0.017-0.005c-0.002-0.001-0.004-0.002-0.006-0.002c-0.004,0-0.008-0.002-0.012-0.003
			c-0.004-0.002-0.006-0.002-0.01-0.003c-0.002-0.001-0.004-0.002-0.006-0.002c-0.002-0.001-0.004-0.001-0.004-0.001
			c-0.006-0.001-0.012-0.003-0.016-0.005c-0.002,0-0.004,0-0.004-0.003c-0.005,0-0.009-0.002-0.013-0.002
			c-0.002,0-0.004-0.002-0.004-0.002c-0.007,0-0.009-0.002-0.015-0.004c-0.002,0-0.002,0-0.004,0c-0.004,0-0.008-0.002-0.012-0.002
			c-0.004-0.002-0.008-0.002-0.012-0.004c-0.002,0-0.004-0.002-0.008-0.004c0,0,0,0-0.002,0c-0.006,0-0.01-0.002-0.014-0.004
			c-0.002-0.001-0.004-0.002-0.006-0.002c-0.005,0-0.009-0.002-0.013-0.003c-0.003-0.001-0.005-0.001-0.007-0.002
			c-0.004-0.001-0.008-0.002-0.012-0.003c-0.002-0.001-0.004-0.002-0.008-0.002c-0.01-0.003-0.018-0.005-0.023-0.009
			c-0.002,0-0.004,0-0.004,0c-0.006-0.002-0.01-0.002-0.014-0.005c-0.004,0-0.006-0.002-0.012-0.002
			c-0.002,0-0.004-0.002-0.006-0.002c0,0-0.002,0-0.002-0.002c-0.008,0-0.01-0.002-0.016-0.002
			c-0.002-0.002-0.004-0.002-0.006-0.002c-0.004,0-0.008-0.004-0.013-0.004c-0.002-0.002-0.004-0.002-0.007-0.002
			c-0.004-0.002-0.006-0.003-0.01-0.004c-0.002-0.001-0.005-0.001-0.007-0.002c-0.003,0-0.007-0.002-0.011-0.003
			c-0.002,0-0.004-0.001-0.006-0.001c-0.004-0.001-0.008-0.003-0.01-0.003c-0.002-0.001-0.004-0.002-0.008-0.002
			c-0.004-0.001-0.008-0.002-0.012-0.003c-0.002-0.001-0.004-0.002-0.006-0.002c-0.004-0.001-0.009-0.004-0.011-0.004
			c-0.003-0.002-0.003-0.002-0.005-0.002c-0.004,0-0.008,0-0.012-0.002c-0.005-0.002-0.009-0.002-0.014-0.004
			c-0.002,0-0.004,0-0.006-0.002c-0.002,0-0.004,0-0.006-0.002c-0.002,0-0.006,0-0.01-0.002c-0.002,0-0.002,0-0.004,0
			c-0.005-0.002-0.01-0.004-0.016-0.007c-0.002,0-0.004-0.001-0.006-0.001c-0.005-0.001-0.007-0.002-0.012-0.003
			c-0.004-0.001-0.006-0.003-0.01-0.003c-0.002-0.001-0.005-0.001-0.008-0.002c-0.001-0.001-0.002-0.001-0.003-0.001
			c-0.005-0.001-0.009-0.003-0.013-0.004c-0.002-0.001-0.002-0.001-0.002-0.001c-0.006-0.001-0.012-0.002-0.018-0.003
			c-0.004-0.002-0.008-0.002-0.011-0.004c-0.003,0-0.003,0-0.007-0.003c0,0-0.002,0-0.004-0.002c-0.005,0-0.01,0-0.014-0.002
			c-0.002,0-0.004-0.002-0.006-0.002c-0.004,0-0.008-0.002-0.011-0.002c-0.002-0.002-0.002-0.002-0.003-0.002
			c-0.006,0-0.01-0.002-0.014-0.004c-0.002,0-0.006-0.002-0.008-0.002c-0.004,0-0.008-0.003-0.013-0.004
			c-0.002-0.001-0.005-0.002-0.008-0.003c-0.002,0-0.005-0.001-0.007-0.002s-0.004-0.001-0.006-0.002
			c-0.006,0-0.01-0.002-0.014-0.003h-0.002c-0.005-0.002-0.01-0.003-0.015-0.004c-0.002-0.001-0.005-0.002-0.007-0.002
			c-0.004,0-0.008-0.001-0.01-0.003c-0.004-0.001-0.008-0.003-0.012-0.003c-0.003-0.002-0.005-0.002-0.007-0.004
			c-0.002,0-0.004,0-0.006,0c-0.004-0.002-0.009-0.002-0.011-0.004c-0.002,0-0.006-0.002-0.008-0.002
			c-0.004,0-0.008-0.002-0.012-0.002c0-0.002-0.002-0.002-0.003-0.002c-0.005,0-0.009-0.002-0.014-0.004
			c-0.002,0-0.004-0.003-0.007-0.003c-0.004-0.001-0.008-0.002-0.01-0.003s-0.004-0.001-0.006-0.002
			c-0.005,0-0.01-0.001-0.013-0.003c-0.002,0-0.004-0.001-0.006-0.002c-0.004,0-0.007,0-0.011-0.002c-0.004,0-0.006,0-0.006-0.001
			c-0.004-0.001-0.008-0.002-0.014-0.004c-0.002,0-0.005-0.001-0.007-0.002c-0.003,0-0.007-0.001-0.01-0.002
			c-0.002-0.001-0.003-0.004-0.005-0.004c-0.004,0-0.008-0.002-0.012-0.002c-0.002-0.002-0.005-0.002-0.005-0.002
			c-0.006,0-0.01-0.002-0.014-0.004c-0.002,0-0.004,0-0.006-0.002c-0.005,0-0.007,0-0.013-0.002
			c-0.004-0.002-0.008-0.002-0.01-0.002c-0.002-0.003-0.004-0.003-0.008-0.005c-0.001,0-0.002,0-0.003,0
			c-0.004-0.002-0.009-0.003-0.013-0.005c-0.002,0-0.004-0.001-0.006-0.001c-0.004-0.001-0.008-0.001-0.013-0.002
			c-0.002-0.001-0.004-0.002-0.004-0.002c-0.006-0.001-0.01-0.002-0.013-0.003c-0.002-0.001-0.005-0.002-0.008-0.003
			c-0.004,0-0.006-0.001-0.012-0.002c-0.002-0.001-0.004-0.001-0.006-0.002c-0.004,0-0.008-0.003-0.012-0.003
			c-0.003-0.002-0.005-0.004-0.008-0.004c-0.002,0-0.006-0.002-0.008-0.002s-0.002-0.002-0.004-0.002
			c-0.004,0-0.008-0.002-0.015-0.004c-0.002,0-0.005,0-0.007-0.002c-0.002,0-0.006,0-0.01-0.002c-0.001,0-0.002,0-0.004-0.003
			c-0.004,0-0.01-0.002-0.016-0.002c-0.002-0.002-0.004-0.002-0.006-0.002c-0.004,0-0.006-0.002-0.011-0.003
			c-0.003-0.001-0.007-0.003-0.011-0.003c-0.002-0.001-0.004-0.001-0.006-0.002s-0.004-0.001-0.006-0.002
			c-0.005-0.001-0.009-0.002-0.011-0.003c-0.003-0.001-0.005-0.001-0.007-0.002c-0.005-0.001-0.008-0.001-0.012-0.003
			c-0.002,0-0.002,0-0.004-0.001c-0.006-0.002-0.01-0.004-0.014-0.006c-0.004,0-0.008-0.002-0.012-0.002
			c-0.002,0-0.004-0.002-0.006-0.002c-0.003,0-0.004-0.002-0.006-0.002c-0.004,0-0.008-0.002-0.012-0.002
			c-0.002-0.002-0.005-0.002-0.007-0.002c-0.002-0.002-0.006-0.002-0.011-0.002c-0.002,0-0.002-0.002-0.004-0.002
			c-0.004-0.003-0.01-0.003-0.014-0.005c-0.002,0-0.002,0-0.004,0c-0.006-0.002-0.01-0.002-0.014-0.005
			c-0.004-0.001-0.008-0.002-0.01-0.003c-0.002,0-0.006-0.001-0.008-0.002c-0.002,0-0.006-0.001-0.006-0.002
			c-0.004,0-0.008-0.001-0.013-0.002c-0.002-0.001-0.002-0.002-0.006-0.002c-0.002-0.001-0.007-0.003-0.011-0.003
			c-0.002-0.002-0.006-0.002-0.008-0.004c-0.004,0-0.006,0-0.01-0.002h-0.002c-0.006-0.004-0.012-0.004-0.018-0.006
			c0,0-0.002,0-0.004-0.002c-0.004,0-0.008-0.002-0.012-0.002c0,0-0.004,0-0.006-0.003c-0.004,0-0.009,0-0.013-0.002
			c-0.002-0.002-0.006-0.002-0.01-0.004c-0.003,0-0.005,0-0.007-0.002c-0.002,0-0.002,0-0.004,0
			c-0.004-0.002-0.01-0.003-0.014-0.005c-0.002,0-0.004-0.001-0.006-0.001c-0.004-0.002-0.008-0.002-0.012-0.003
			c-0.002-0.001-0.004-0.002-0.006-0.002c-0.004-0.001-0.008-0.002-0.012-0.003s-0.006-0.003-0.011-0.003
			c-0.002,0-0.004-0.002-0.008-0.004c-0.002,0-0.004-0.002-0.006-0.002c-0.009-0.002-0.019-0.004-0.025-0.006
			c-0.004-0.002-0.008-0.002-0.01-0.004c-0.002,0-0.006,0-0.006-0.002c-0.002,0-0.005,0-0.007,0
			c-0.004-0.002-0.008-0.002-0.012-0.005c-0.004,0-0.008-0.002-0.01-0.004c-0.01,0-0.018-0.004-0.023-0.006
			c-0.002-0.001-0.004-0.002-0.006-0.003c-0.004,0-0.008-0.001-0.012-0.002s-0.006-0.002-0.01-0.004c-0.002,0-0.004,0-0.006-0.002
			c-0.004,0-0.006-0.002-0.01-0.002c-0.002,0-0.006-0.002-0.01-0.002l0,0c-0.006-0.002-0.013-0.002-0.017-0.004
			c-0.002,0-0.004-0.002-0.006-0.002c-0.004-0.002-0.009-0.002-0.013-0.004c-0.004,0-0.006-0.003-0.011-0.005
			c-0.002,0-0.004,0-0.007,0c-0.002-0.002-0.002-0.002-0.004-0.002c-0.004-0.002-0.008-0.002-0.014-0.004
			c-0.002,0-0.006-0.002-0.008-0.002s-0.006-0.002-0.009-0.002c-0.002,0-0.002-0.002-0.004-0.002
			c-0.004-0.002-0.01-0.002-0.014-0.004c-0.002,0-0.007-0.001-0.009-0.002s-0.006-0.002-0.01-0.003
			c-0.002-0.002-0.004-0.002-0.009-0.004c-0.003,0-0.005,0-0.009-0.002c0,0,0,0-0.002,0c-0.004-0.002-0.01-0.002-0.016-0.004
			c-0.002,0-0.002,0-0.002-0.002c-0.004,0-0.011-0.002-0.015-0.002c-0.003-0.002-0.006-0.002-0.008-0.002
			c-0.004-0.002-0.008-0.002-0.01-0.004c-0.005-0.002-0.009-0.002-0.013-0.004c-0.002,0-0.002,0-0.004,0
			c-0.003-0.003-0.003-0.003-0.005-0.003c-0.011-0.002-0.021-0.006-0.028-0.008c-0.004-0.002-0.008-0.003-0.011-0.004
			c-0.004,0-0.006-0.001-0.008-0.001c-0.002-0.001-0.005-0.002-0.007-0.004c-0.004,0-0.008,0-0.01,0
			c-0.002-0.002-0.002-0.002-0.006-0.002c-0.004-0.002-0.008-0.002-0.013-0.004c0,0,0,0-0.002,0
			c-0.004-0.002-0.01-0.002-0.016-0.004c-0.002-0.002-0.004-0.002-0.007-0.002c-0.004-0.002-0.006-0.002-0.01-0.004
			c-0.002-0.003-0.004-0.003-0.009-0.003c-0.002-0.002-0.006-0.002-0.011-0.004c-0.002,0-0.002,0-0.004-0.002
			c-0.004,0-0.008,0-0.012-0.002c-0.002,0-0.004-0.002-0.006-0.002c-0.004-0.002-0.009-0.002-0.013-0.002
			c-0.002-0.002-0.004-0.002-0.004-0.002c-0.004-0.002-0.008-0.002-0.012-0.004c-0.005,0-0.009-0.003-0.013-0.004
			c-0.002,0-0.004,0-0.006,0c-0.003-0.001-0.003-0.001-0.005-0.001c-0.004-0.002-0.008-0.004-0.012-0.004l-0.003-0.002
			c-0.004,0-0.01-0.004-0.016-0.004c-0.004-0.002-0.006-0.002-0.011-0.004c-0.002,0-0.004,0-0.006-0.002
			c-0.002,0-0.006,0-0.008-0.002c-0.004,0-0.008,0-0.011-0.002c-0.002,0-0.004-0.002-0.006-0.002
			c-0.01-0.002-0.019-0.007-0.026-0.009c-0.004,0-0.009-0.002-0.013-0.004c-0.002,0-0.004,0-0.006,0l-0.002-0.002
			c-0.004,0-0.011-0.002-0.015-0.002c-0.002,0-0.005-0.002-0.007-0.003c-0.004-0.002-0.006-0.002-0.01-0.004
			c-0.004,0-0.006-0.002-0.008-0.002c-0.004,0-0.007,0-0.011-0.002c-0.002,0-0.004-0.002-0.006-0.002
			c-0.004-0.002-0.008-0.002-0.012-0.002c-0.003-0.002-0.005-0.002-0.009-0.004c-0.002,0-0.006,0-0.008-0.002
			c-0.003,0-0.005-0.003-0.006-0.003c-0.005-0.002-0.009-0.002-0.013-0.002c-0.003-0.002-0.005-0.002-0.005-0.004
			c-0.006,0-0.008-0.002-0.012-0.002c0,0-0.002-0.002-0.004-0.002c-0.005-0.002-0.01-0.002-0.015-0.004
			c-0.002,0-0.004-0.002-0.006-0.002c-0.004,0-0.009,0-0.011-0.002c-0.006,0-0.008-0.002-0.012-0.002
			c-0.003,0-0.005-0.002-0.007-0.002c-0.001,0-0.002,0-0.003-0.003c-0.005,0-0.009-0.002-0.016-0.002
			c0-0.002-0.002-0.002-0.004-0.002c-0.002-0.002-0.008-0.002-0.012-0.004s-0.007-0.004-0.01-0.004s-0.006,0-0.009-0.002
			c-0.002,0-0.004,0-0.004-0.002c-0.004,0-0.009-0.002-0.013-0.002s-0.004-0.002-0.006-0.002c-0.005-0.002-0.009-0.002-0.013-0.004
			c-0.001,0-0.002,0-0.003,0c-0.005-0.002-0.009-0.005-0.014-0.005c-0.002,0-0.006,0-0.008-0.002c-0.002,0-0.008,0-0.011-0.002
			c-0.002,0-0.004-0.002-0.006-0.002c-0.004-0.002-0.008-0.002-0.01-0.002c-0.002-0.002-0.004-0.002-0.007-0.002
			c-0.004-0.003-0.008-0.003-0.012-0.005c-0.002,0-0.004,0-0.005,0c-0.005-0.002-0.009-0.004-0.013-0.004
			c-0.004-0.002-0.007-0.004-0.012-0.004c-0.002,0-0.004,0-0.006-0.002c-0.002,0-0.004,0-0.006-0.002
			c-0.006,0-0.009-0.002-0.013-0.002c-0.002,0-0.004-0.003-0.005-0.003c-0.003-0.002-0.008-0.002-0.011-0.004
			c-0.003,0-0.005,0-0.005,0c-0.004-0.002-0.01-0.002-0.015-0.002c-0.003-0.004-0.005-0.004-0.007-0.004
			c-0.003-0.002-0.007-0.002-0.01-0.002c-0.002-0.002-0.003-0.002-0.008-0.002c-0.002-0.002-0.006-0.002-0.01-0.004
			c-0.002,0-0.004,0-0.007-0.002c-0.004,0-0.008-0.003-0.011-0.003c-0.003-0.002-0.005-0.002-0.007-0.002
			c-0.004-0.002-0.007-0.002-0.013-0.004h-0.002c-0.004-0.002-0.008-0.004-0.015-0.004c-0.003-0.002-0.007-0.004-0.011-0.004
			c-0.002-0.002-0.004-0.002-0.006-0.002c-0.001,0-0.002,0-0.004-0.002c-0.006,0-0.01-0.002-0.014-0.002
			c-0.003-0.002-0.007-0.002-0.011-0.004c-0.002,0-0.005,0-0.007,0c-0.001,0-0.003-0.002-0.003-0.002
			c-0.005-0.002-0.011-0.002-0.015-0.004c-0.002,0-0.004,0-0.006-0.003c-0.004,0-0.009-0.002-0.013-0.002
			c-0.002,0-0.003-0.002-0.005-0.002c-0.004-0.002-0.008-0.002-0.012-0.004c-0.002,0-0.004,0-0.008-0.003
			c-0.002,0-0.007-0.002-0.011-0.002c-0.002,0-0.004-0.002-0.006-0.002c-0.005-0.002-0.008-0.002-0.011-0.002
			c-0.002-0.002-0.004-0.002-0.006-0.002c-0.004-0.002-0.008-0.004-0.012-0.004c-0.002,0-0.004-0.002-0.006-0.002
			c-0.005,0-0.009-0.002-0.013-0.002c-0.002-0.003-0.004-0.003-0.007-0.003c-0.004-0.002-0.006-0.002-0.01-0.002l-0.002-0.002
			c-0.006-0.002-0.013-0.002-0.017-0.004c-0.002,0-0.004,0-0.006-0.002c-0.003,0-0.008-0.002-0.011-0.004c-0.002,0-0.004,0-0.006,0
			c-0.004-0.002-0.008-0.004-0.012-0.004c-0.002,0-0.004-0.002-0.009-0.002c-0.002-0.003-0.006-0.003-0.01-0.003
			c-0.001-0.002-0.001-0.002-0.003-0.002c-0.004-0.002-0.008-0.004-0.014-0.004c-0.002,0-0.002,0-0.007-0.002
			c-0.004,0-0.008-0.002-0.012-0.002c-0.002-0.002-0.004-0.002-0.007-0.004s-0.006-0.002-0.01-0.002
			c-0.004-0.002-0.008-0.002-0.012-0.004c-0.002,0-0.004,0-0.006,0c-0.002-0.002-0.004-0.002-0.009-0.002
			c-0.002-0.002-0.004-0.002-0.009-0.004h-0.002c-0.006-0.002-0.01-0.004-0.017-0.004c-0.002,0-0.004-0.002-0.006-0.002
			c-0.004-0.002-0.008-0.003-0.01-0.003c-0.002-0.002-0.007-0.002-0.009-0.004c-0.002,0-0.006-0.002-0.01-0.002
			s-0.006-0.003-0.008-0.003c-0.004-0.002-0.006-0.002-0.008-0.002c-0.003,0-0.003,0-0.003-0.002c-0.006,0-0.01-0.002-0.017-0.004
			c-0.004,0-0.006-0.002-0.01-0.002c-0.003-0.002-0.005-0.002-0.009-0.002c0,0,0,0-0.004,0c-0.004-0.002-0.008-0.005-0.012-0.005
			c-0.005-0.002-0.009-0.002-0.013-0.004c-0.002,0-0.004-0.002-0.006-0.002s-0.002,0-0.002,0c-0.004-0.002-0.01-0.004-0.017-0.004
			c0,0-0.002-0.002-0.004-0.002c-0.005,0-0.009-0.002-0.013-0.002c-0.002-0.002-0.004-0.002-0.009-0.004
			c-0.002-0.002-0.004-0.002-0.008-0.002c-0.004-0.002-0.006-0.002-0.008-0.002c-0.004-0.003-0.009-0.005-0.011-0.005
			s-0.002,0-0.002,0c-0.006-0.002-0.01-0.004-0.016-0.004c-0.002,0-0.004-0.002-0.006-0.002c-0.004-0.002-0.009-0.002-0.011-0.004
			c-0.005,0-0.009,0-0.013-0.002c-0.002,0-0.004-0.002-0.006-0.002c0,0-0.003,0-0.003-0.002c-0.006,0-0.01-0.002-0.014-0.002
			c-0.004-0.002-0.006-0.002-0.006-0.002c-0.005-0.002-0.009-0.004-0.013-0.004s-0.004-0.002-0.006-0.002
			c-0.006-0.002-0.008-0.002-0.012-0.002c-0.002-0.002-0.004-0.002-0.006-0.002c-0.005-0.002-0.009-0.004-0.012-0.004
			c-0.004-0.001-0.004-0.001-0.008-0.002c-0.002-0.003-0.006-0.003-0.011-0.003l-0.004-0.003c-0.004-0.002-0.008-0.002-0.014-0.004
			l0,0c-0.007-0.002-0.011-0.002-0.017-0.004c-0.002,0-0.004,0-0.007-0.002c-0.005,0-0.007-0.002-0.011-0.002
			c-0.002,0-0.004-0.002-0.006-0.002c-0.005-0.002-0.007-0.003-0.012-0.003c-0.002-0.002-0.004-0.002-0.008-0.002
			c-0.009-0.004-0.019-0.006-0.023-0.008c-0.003-0.002-0.007-0.002-0.012-0.004c-0.002,0-0.004-0.002-0.006-0.002
			c-0.004,0-0.006,0-0.009-0.002c-0.002,0-0.006-0.002-0.01-0.003c0,0-0.002-0.001-0.004-0.001
			c-0.006-0.001-0.011-0.005-0.013-0.005s-0.002,0-0.002,0c-0.006-0.002-0.01-0.002-0.018-0.004c-0.002,0-0.002-0.002-0.006-0.002
			c-0.002-0.002-0.006-0.002-0.011-0.002c-0.003-0.002-0.007-0.002-0.009-0.004c-0.004,0-0.006-0.002-0.008-0.002
			c-0.003,0-0.005,0-0.007-0.002c-0.004,0-0.006-0.002-0.01-0.004c-0.002,0-0.004,0-0.007,0c-0.003-0.002-0.01-0.004-0.012-0.004
			s-0.002,0-0.002,0c-0.006-0.002-0.01-0.004-0.016-0.006c-0.004,0-0.008-0.002-0.014-0.004c-0.001,0-0.004,0-0.006,0
			s-0.002-0.002-0.006-0.002c-0.002-0.002-0.006-0.004-0.01-0.004c-0.001,0-0.001,0-0.003,0c-0.004-0.002-0.01-0.004-0.014-0.006
			c-0.003,0-0.004,0-0.007,0c-0.004-0.002-0.008-0.004-0.014-0.004c-0.002,0-0.004-0.002-0.008-0.002
			c-0.004-0.002-0.006-0.002-0.008-0.002s-0.004-0.002-0.006-0.002c-0.004-0.002-0.01-0.002-0.014-0.004c-0.002,0-0.002,0-0.004,0
			c-0.004-0.003-0.008-0.005-0.013-0.005c-0.002,0-0.004-0.002-0.006-0.002c-0.004-0.002-0.008-0.002-0.011-0.004
			c-0.002,0-0.004,0-0.004,0c-0.006-0.002-0.01-0.002-0.014-0.004c-0.004,0-0.006-0.002-0.01-0.002
			c-0.002-0.002-0.006-0.003-0.008-0.003s-0.004,0-0.006-0.001c-0.004-0.001-0.008-0.003-0.012-0.003
			c-0.002,0-0.004-0.002-0.006-0.002c-0.004-0.002-0.009-0.004-0.013-0.004c-0.002,0-0.002-0.002-0.004-0.002
			c-0.004-0.002-0.009-0.002-0.013-0.004c-0.002,0-0.004,0-0.006,0c-0.004-0.002-0.008-0.004-0.012-0.004
			c-0.002,0-0.004-0.002-0.006-0.002c-0.004,0-0.008-0.002-0.012-0.004c0,0-0.004,0-0.006,0c-0.004-0.002-0.008-0.004-0.012-0.006
			c-0.004,0-0.008-0.002-0.013-0.002c-0.002,0-0.004-0.002-0.006-0.002h-0.002c-0.005-0.002-0.011-0.002-0.015-0.004
			c-0.002,0-0.004,0-0.006-0.002c-0.004,0-0.008-0.002-0.012-0.004c-0.002,0-0.004,0-0.006-0.002c-0.004,0-0.008-0.002-0.012-0.002
			c-0.002,0-0.006-0.002-0.008-0.004c-0.002,0-0.008-0.002-0.01-0.002s-0.004,0-0.006-0.002c-0.005,0-0.007-0.002-0.011-0.004
			c-0.003,0-0.003,0-0.005,0c-0.004-0.002-0.008-0.002-0.015-0.004c-0.001,0-0.003,0-0.005-0.002c-0.004,0-0.008-0.003-0.01-0.005
			c-0.004,0-0.008,0-0.01,0c-0.002-0.002-0.006-0.002-0.01-0.004c-0.002,0-0.004,0-0.006,0c-0.004-0.002-0.008-0.002-0.012-0.004
			h-0.002c-0.007-0.002-0.012-0.004-0.016-0.004c-0.004-0.003-0.01-0.005-0.014-0.005c-0.001,0-0.003-0.002-0.004-0.002
			c-0.002,0-0.002,0-0.004,0c-0.004-0.002-0.008-0.002-0.014-0.004c-0.002,0-0.006-0.002-0.008-0.004
			c-0.002,0-0.006-0.002-0.011-0.002c-0.002,0-0.003,0-0.005-0.002c-0.003,0-0.008-0.002-0.012-0.004c0,0-0.003,0-0.006,0
			c-0.004-0.002-0.008-0.002-0.012-0.004c-0.002,0-0.005,0-0.007-0.002c-0.003,0-0.007-0.002-0.01-0.002
			c-0.003-0.002-0.005-0.002-0.007-0.002c-0.004-0.002-0.006-0.002-0.01-0.004c-0.002,0-0.006,0-0.008,0
			c-0.004-0.002-0.009-0.004-0.012-0.004c-0.001,0-0.003,0-0.005-0.002c-0.005,0-0.009-0.002-0.015-0.004
			c-0.002,0-0.006-0.002-0.008-0.002c-0.004-0.002-0.006-0.002-0.009-0.004c-0.002,0-0.003,0-0.005,0
			c-0.004-0.002-0.007-0.002-0.011-0.006c-0.003,0-0.005,0-0.007,0c-0.004-0.002-0.006-0.002-0.01-0.004
			c-0.004,0-0.006,0-0.01-0.002c-0.003,0-0.006-0.002-0.01-0.002c-0.001-0.002-0.002-0.002-0.003-0.002
			c-0.005,0-0.009-0.002-0.017-0.005c-0.002,0-0.004,0-0.004,0c-0.004,0-0.008-0.002-0.012-0.004c-0.002,0-0.004,0-0.005,0
			c-0.005-0.002-0.008-0.002-0.012-0.004c-0.003,0-0.005-0.002-0.007-0.002c-0.004,0-0.006-0.002-0.01-0.005
			c-0.004,0-0.009,0-0.012-0.002c-0.002,0-0.005-0.002-0.008-0.002c-0.001,0-0.002,0-0.003,0c-0.005-0.002-0.011-0.004-0.015-0.004
			c-0.002-0.002-0.004-0.002-0.006-0.002c-0.004-0.002-0.008-0.002-0.012-0.004c-0.002-0.002-0.005-0.002-0.007-0.002
			c-0.004-0.002-0.007-0.002-0.01-0.004c-0.003,0-0.003,0-0.005,0c-0.004-0.002-0.008-0.004-0.012-0.004s-0.004,0-0.006,0
			c-0.004-0.002-0.009-0.002-0.014-0.004c-0.002,0-0.002,0-0.004-0.002c-0.004,0-0.01-0.002-0.014-0.002
			c-0.004-0.002-0.006-0.004-0.01-0.004c-0.002-0.002-0.005-0.002-0.008-0.004c-0.003,0-0.005,0-0.007,0
			c-0.003-0.002-0.007-0.002-0.011-0.004c0-0.002,0-0.002,0-0.002c-0.006,0-0.01-0.002-0.018-0.004c-0.002,0-0.006,0-0.008-0.002
			c-0.002,0-0.005-0.002-0.009-0.002c-0.003,0-0.007-0.002-0.011-0.002c-0.004-0.002-0.006-0.004-0.008-0.004
			c-0.002-0.002-0.006-0.002-0.008-0.002s-0.007-0.002-0.009-0.002c-0.001,0-0.001,0-0.002,0c-0.005-0.002-0.011-0.004-0.015-0.007
			c-0.002,0-0.002,0-0.004,0c-0.004,0-0.012-0.002-0.016-0.004c-0.003,0-0.006-0.002-0.009-0.002c-0.002,0-0.005-0.002-0.009-0.002
			c-0.002-0.002-0.004-0.002-0.008-0.002c-0.004-0.002-0.008-0.002-0.01-0.005c-0.002,0-0.002,0-0.002,0
			c-0.004,0-0.01-0.002-0.015-0.004c-0.003-0.002-0.007-0.002-0.009-0.002c-0.004-0.002-0.006-0.002-0.008-0.004
			c-0.005,0-0.007,0-0.009,0c-0.003-0.002-0.007-0.004-0.011-0.004c-0.002,0-0.004-0.002-0.007-0.002
			c-0.003-0.001-0.007-0.002-0.011-0.004h-0.002c-0.006,0-0.01-0.002-0.016-0.004c-0.002,0-0.004,0-0.008-0.002
			c-0.003,0-0.006-0.002-0.01-0.002c-0.002-0.002-0.004-0.002-0.006-0.002c-0.004-0.002-0.008-0.002-0.011-0.004
			c-0.002,0-0.002,0-0.004,0c-0.007-0.002-0.009-0.002-0.013-0.006c-0.003,0-0.004,0-0.006,0c-0.004-0.002-0.008-0.002-0.014-0.004
			c-0.002,0-0.002-0.002-0.004-0.002c-0.006-0.002-0.01-0.002-0.014-0.004c-0.004,0-0.006-0.002-0.012-0.002
			c-0.002-0.002-0.004-0.002-0.006-0.004h-0.002c-0.004,0-0.011-0.002-0.015-0.002c-0.005-0.002-0.007-0.002-0.009-0.004
			c-0.004-0.002-0.006-0.002-0.01-0.002l-0.002-0.002c-0.004,0-0.01-0.002-0.014-0.004c-0.004,0-0.006,0-0.01-0.003
			c-0.002,0-0.006-0.002-0.01-0.002c-0.002-0.002-0.006-0.002-0.01-0.002c-0.002-0.002-0.004-0.002-0.006-0.004
			c-0.002,0-0.002,0-0.005,0c-0.004,0-0.01-0.002-0.015-0.005c0,0,0,0-0.002,0c-0.004-0.002-0.01-0.004-0.014-0.004
			c-0.004-0.002-0.006-0.002-0.01-0.002c-0.002-0.002-0.006-0.002-0.01-0.004c-0.004,0-0.006,0-0.01,0
			c-0.002-0.002-0.004-0.002-0.006-0.004c-0.002,0-0.006,0-0.008-0.002c-0.004-0.001-0.009-0.002-0.011-0.003
			c0,0-0.002,0-0.002-0.001c-0.006,0-0.011-0.002-0.017-0.004c-0.002-0.002-0.004-0.002-0.006-0.002
			c-0.004-0.002-0.008-0.002-0.01-0.004c-0.006,0-0.008,0-0.012-0.002c-0.002,0-0.004-0.002-0.008-0.002
			c-0.002,0-0.004,0-0.006-0.002c-0.002,0-0.006-0.002-0.01-0.004h-0.002c-0.007,0-0.013-0.004-0.017-0.004
			c-0.004-0.002-0.006-0.002-0.009-0.002c-0.004-0.002-0.006-0.004-0.008-0.004c-0.004,0-0.006,0-0.008-0.002
			c-0.004,0-0.007-0.002-0.012-0.002c-0.002-0.002-0.004-0.002-0.006-0.002c-0.004,0-0.008-0.002-0.011-0.004
			c-0.002,0-0.003-0.001-0.005-0.001c-0.004-0.001-0.008-0.002-0.012-0.004c-0.002,0-0.002,0-0.005-0.001
			c-0.006,0-0.01-0.002-0.014-0.004c-0.002,0-0.004-0.002-0.006-0.002c-0.005,0-0.009-0.003-0.011-0.003
			c-0.004-0.002-0.008-0.002-0.011-0.004c-0.002,0-0.007,0-0.009-0.002c-0.002,0-0.004,0-0.004,0
			c-0.004-0.003-0.008-0.005-0.014-0.005l-0.002-0.002c-0.006,0-0.01-0.002-0.015-0.002c-0.002,0-0.004-0.002-0.006-0.002
			c-0.004,0-0.008-0.002-0.012-0.004c-0.004,0-0.007,0-0.011-0.002c-0.002,0-0.004-0.002-0.008-0.002c0,0-0.002-0.002-0.005-0.002
			c-0.004-0.001-0.006-0.002-0.011-0.003c-0.002-0.001-0.004-0.001-0.004-0.002c-0.004,0-0.01-0.002-0.016-0.003
			c-0.002-0.001-0.002-0.002-0.004-0.002c-0.004-0.002-0.009-0.002-0.013-0.004c-0.002,0-0.006,0-0.01-0.002
			c-0.002,0-0.006-0.002-0.008-0.002c-0.003-0.002-0.005-0.002-0.007-0.002c-0.01-0.002-0.019-0.006-0.026-0.008
			c-0.002,0-0.006,0-0.008-0.002s-0.007-0.002-0.009-0.004c-0.002,0-0.004-0.002-0.004-0.002c-0.004,0-0.009-0.002-0.013-0.002
			C124.595,45,124.59,45,124.588,45c-0.004-0.002-0.006-0.002-0.01-0.004c0-0.001,0-0.001-0.002-0.001
			c-0.004-0.001-0.01-0.002-0.015-0.004c-0.004-0.001-0.006-0.001-0.008-0.001c-0.004-0.002-0.006-0.003-0.012-0.004
			c-0.002-0.002-0.002-0.002-0.004-0.002c-0.005,0-0.009-0.002-0.013-0.005c-0.002,0-0.007,0-0.009-0.002
			c-0.004,0-0.006-0.002-0.008-0.002s-0.003,0-0.005,0c-0.004,0-0.01-0.003-0.012-0.005c-0.004,0-0.006-0.002-0.008-0.002
			c-0.004,0-0.006-0.002-0.011-0.002c-0.004-0.002-0.006-0.002-0.01-0.002c-0.002-0.002-0.006-0.002-0.008-0.004
			c-0.002,0-0.002,0-0.005,0c-0.004-0.002-0.008-0.004-0.014-0.004c-0.002-0.002-0.005-0.003-0.007-0.003
			c-0.004-0.001-0.008-0.002-0.011-0.003h-0.002c-0.004-0.002-0.01-0.003-0.016-0.005c-0.002-0.001-0.006-0.001-0.01-0.002
			c-0.003-0.001-0.005-0.002-0.007-0.003c-0.004-0.002-0.006-0.002-0.008-0.002c-0.004-0.002-0.008-0.002-0.011-0.004
			c-0.002,0-0.004,0-0.004,0c-0.006,0-0.01-0.002-0.014-0.002c-0.003-0.002-0.005-0.002-0.005-0.002
			c-0.004,0-0.009-0.002-0.013-0.004c-0.002,0-0.004-0.002-0.004-0.002c-0.004,0-0.01-0.002-0.014-0.002
			c-0.002-0.002-0.005-0.004-0.007-0.004c-0.004-0.002-0.006-0.002-0.01-0.004c-0.002,0-0.004,0-0.006-0.002
			c-0.004,0-0.007-0.002-0.013-0.003c-0.002,0-0.002,0-0.004-0.001c-0.004,0-0.009-0.002-0.014-0.003
			c-0.001-0.001-0.003-0.002-0.005-0.002c-0.004-0.001-0.009-0.002-0.013-0.003c-0.002-0.001-0.004-0.002-0.006-0.002
			c-0.006-0.001-0.008-0.002-0.012-0.002c-0.001-0.001-0.003-0.002-0.005-0.002c-0.004,0-0.008-0.003-0.012-0.005
			c-0.002,0-0.004,0-0.007-0.003c-0.004,0-0.008-0.002-0.012-0.002c-0.002,0-0.002-0.002-0.004-0.002
			c-0.004,0-0.008-0.002-0.013-0.004c-0.003,0-0.008-0.002-0.013-0.002c-0.002,0-0.004-0.002-0.006-0.002
			c-0.002-0.002-0.004-0.002-0.008-0.002c-0.003,0-0.006-0.002-0.009-0.004c-0.001,0-0.002,0-0.003-0.001
			c-0.005-0.001-0.011-0.002-0.015-0.003c-0.003-0.001-0.005-0.002-0.007-0.002c-0.004-0.001-0.006-0.002-0.01-0.003
			s-0.006-0.002-0.009-0.002c-0.003-0.001-0.006-0.002-0.01-0.002c-0.002-0.001-0.004-0.002-0.009-0.002
			c-0.002-0.001-0.006-0.002-0.01-0.003c0,0,0,0,0-0.002c-0.007,0-0.012-0.002-0.017-0.004c-0.003,0-0.006-0.002-0.009-0.002
			s-0.008-0.002-0.01-0.002c0,0-0.002-0.002-0.004-0.002c-0.004,0-0.009-0.002-0.013-0.002c-0.002-0.002-0.004-0.002-0.006-0.002
			c-0.004-0.002-0.008-0.002-0.012-0.006c-0.003,0-0.005-0.002-0.007-0.002s-0.006-0.002-0.01-0.003
			c-0.003-0.001-0.005-0.001-0.007-0.002c-0.004,0-0.008-0.002-0.012-0.003c-0.002-0.001-0.004-0.001-0.006-0.002
			c-0.005,0-0.007,0-0.011-0.002c-0.004-0.001-0.006-0.002-0.008-0.002c-0.005,0-0.008-0.001-0.011-0.003
			c-0.002,0-0.004-0.001-0.006-0.002c-0.004,0-0.007-0.001-0.011-0.002c-0.002-0.002-0.004-0.002-0.004-0.004
			c-0.006,0-0.01-0.003-0.015-0.003c-0.004-0.002-0.008-0.004-0.012-0.004c-0.002,0-0.004,0-0.006-0.002
			c-0.001,0-0.003-0.002-0.007-0.002s-0.008-0.002-0.01-0.002c-0.002-0.002-0.004-0.002-0.007-0.002
			c-0.004,0-0.009-0.002-0.013-0.004c-0.184-0.05-0.359-0.106-0.516-0.228c-0.051-0.089-0.103-0.177-0.149-0.265
			c-0.028-0.258,0.062-0.476,0.196-0.688c0.412-0.625,0.813-1.259,1.22-1.891c0.131-0.201,0.26-0.402,0.385-0.606
			c0.183-0.297,0.58-0.399,0.871-0.319c0.269,0.07,0.539,0.141,0.804,0.225c0.196,0.063,0.348,0.02,0.479-0.137
			c0.271-0.32,0.495-0.672,0.658-1.06c0.138-0.319,0.268-0.646,0.382-0.975c0.108-0.318,0.204-0.642,0.286-0.967
			c0.062-0.237,0.111-0.478,0.154-0.718h1.563v-4.32h-3.379c0.003-0.172,0.006-0.345,0.01-0.517
			c0.015-0.499,0.019-0.999,0.047-1.499c0.009-0.133,0.101-0.262,0.151-0.393c0.095-0.054,0.189-0.108,0.287-0.163
			c0.191-0.033,0.373,0.019,0.558,0.071c0.733,0.207,1.472,0.404,2.202,0.615c0.156,0.045,0.309,0.125,0.445,0.209
			c0.104,0.063,0.19,0.159,0.287,0.24c0.002,0.005,0.006,0.011,0.01,0.016c0.001,0,0.001,0,0.002,0.001
			c0.003,0.005,0.005,0.011,0.009,0.015c0,0,0.001,0,0.001,0.001c0.003,0.006,0.007,0.011,0.011,0.016v0.001
			c0.003,0.006,0.007,0.01,0.009,0.016h0.002c0.004,0.005,0.006,0.01,0.01,0.016c0.001,0,0.001,0.001,0.002,0.001
			c0.003,0.004,0.006,0.01,0.009,0.015c0.001,0,0.001,0,0.001,0.001c0.005,0.004,0.007,0.01,0.01,0.016l0.002,0.001
			c0.002,0.004,0.006,0.01,0.008,0.016c0.002,0,0.002,0.001,0.002,0.001c0.005,0.005,0.008,0.01,0.011,0.016l0.001,0.001
			c0.003,0.005,0.007,0.011,0.009,0.016c0.002,0,0.002,0,0.002,0.001c0.002,0.005,0.007,0.01,0.009,0.015c0,0,0.002,0,0.002,0.001
			c0.002,0.005,0.006,0.01,0.01,0.016c0,0,0,0,0.002,0.001c0.003,0.005,0.006,0.01,0.009,0.016c0,0,0.001,0.001,0.002,0.001
			c0.003,0.005,0.006,0.01,0.011,0.016l0,0c0.002,0.006,0.006,0.011,0.008,0.016c0.002,0,0.002,0,0.002,0.001
			c0.004,0.005,0.007,0.01,0.011,0.015c0.001,0.001,0.001,0.001,0.001,0.002c0.003,0.005,0.006,0.01,0.01,0.016l0.001,0.001
			c0.002,0.005,0.005,0.01,0.009,0.016c0.002,0,0.002,0.001,0.002,0.001c0.004,0.005,0.006,0.01,0.01,0.016l0,0
			c0.004,0.005,0.008,0.011,0.012,0.016c0,0,0,0,0.001,0.001c0.003,0.004,0.006,0.01,0.009,0.015c0,0.001,0,0.001,0,0.002
			c0.004,0.004,0.008,0.01,0.012,0.016l0,0c0.004,0.005,0.006,0.01,0.011,0.016l0,0c0.004,0.005,0.008,0.01,0.011,0.016l0.001,0.001
			c0.003,0.006,0.006,0.011,0.008,0.016c0.001,0.001,0.002,0.001,0.002,0.002c0.003,0.005,0.007,0.01,0.011,0.015
			c0,0.001,0,0.001,0,0.002c0.004,0.005,0.008,0.01,0.01,0.015c0,0.001,0,0.001,0.002,0.001c0.004,0.006,0.007,0.011,0.01,0.016
			c0.001,0,0.001,0,0.001,0c0.002,0.006,0.006,0.011,0.009,0.016c0,0,0,0.001,0.002,0.002c0.004,0.005,0.006,0.01,0.01,0.015
			c0,0.001,0,0.001,0.002,0.002c0.003,0.004,0.007,0.01,0.009,0.016c0.002,0,0.002,0,0.002,0c0.003,0.005,0.006,0.011,0.009,0.016
			c0,0,0,0,0.001,0c0.003,0.006,0.007,0.011,0.009,0.016c0,0,0.002,0.001,0.004,0.001c0.002,0.005,0.006,0.011,0.008,0.016
			c0,0.001,0.002,0.001,0.002,0.001c0.002,0.005,0.006,0.011,0.011,0.016c0,0.001,0,0.001,0.001,0.001
			c0.002,0.004,0.005,0.01,0.008,0.015c0,0.001,0.001,0.001,0.001,0.001c0.003,0.004,0.007,0.01,0.011,0.016l0.002,0.001
			c0.002,0.005,0.006,0.01,0.008,0.016c0.003,0,0.003,0.001,0.003,0.001c0.004,0.005,0.006,0.01,0.008,0.016
			c0.001,0.001,0.002,0.001,0.002,0.001c0.003,0.005,0.006,0.01,0.009,0.016c0.001,0.001,0.001,0.001,0.002,0.001
			c0.004,0.005,0.006,0.01,0.01,0.016h0.002c0.004,0.005,0.006,0.01,0.01,0.016v0.001c0.002,0.006,0.007,0.011,0.01,0.016
			c0.001,0.001,0.001,0.001,0.001,0.001c0.004,0.005,0.007,0.011,0.011,0.015v0.001c0.004,0.005,0.008,0.011,0.01,0.016
			c0.002,0,0.002,0,0.002,0.001c0.003,0.005,0.007,0.011,0.011,0.015c0,0,0,0,0,0.001c0.002,0.005,0.007,0.011,0.009,0.016
			c0.001,0,0.001,0,0.002,0c0.003,0.006,0.006,0.011,0.01,0.016c0,0.001,0,0.001,0,0.001c0.004,0.005,0.008,0.01,0.012,0.016v0.001
			c0.004,0.005,0.006,0.011,0.008,0.016c0.003,0,0.003,0,0.003,0.001c0.003,0.004,0.007,0.01,0.01,0.015c0,0,0.001,0,0.001,0.001
			c0.004,0.004,0.006,0.01,0.01,0.016c0,0,0,0,0.002,0.001c0.004,0.005,0.006,0.01,0.011,0.016v0.001
			c0.002,0.005,0.006,0.01,0.01,0.016c0,0,0,0,0,0.001c0.004,0.005,0.007,0.01,0.01,0.015c0.001,0,0.001,0,0.003,0.001
			c0.002,0.005,0.004,0.01,0.01,0.015c0,0,0,0,0,0.001c0.004,0.005,0.006,0.01,0.008,0.015c0.002,0.001,0.002,0.002,0.002,0.002
			c0.004,0.005,0.007,0.01,0.011,0.016h0.001c0.004,0.006,0.006,0.011,0.01,0.016c0,0,0.002,0,0.002,0.001
			c0.002,0.005,0.006,0.01,0.008,0.015c0.002,0.001,0.002,0.001,0.002,0.002c0.005,0.005,0.007,0.01,0.009,0.015
			c0.002,0.001,0.002,0.001,0.002,0.001c0.004,0.005,0.006,0.01,0.011,0.016c0,0,0,0.001,0.001,0.001
			c0.003,0.005,0.007,0.01,0.009,0.016h0.002c0.002,0.005,0.008,0.01,0.008,0.016c0.002,0,0.002,0,0.002,0
			c0.004,0.005,0.006,0.011,0.01,0.016c0,0.001,0,0.001,0,0.002c0.005,0.004,0.009,0.01,0.012,0.016c0,0,0,0,0.001,0
			c0.003,0.005,0.007,0.01,0.009,0.015c0.002,0.001,0.002,0.001,0.002,0.001c0.002,0.006,0.007,0.01,0.011,0.016l0,0
			c0.004,0.006,0.008,0.01,0.01,0.016c0,0.001,0,0.001,0.002,0.002c0.002,0.005,0.006,0.01,0.009,0.016c0.002,0,0.002,0,0.002,0.001
			c0.002,0.005,0.006,0.01,0.01,0.015c0,0.001,0,0.001,0,0.001c0.004,0.006,0.006,0.011,0.01,0.016c0,0,0,0,0.002,0
			c0.002,0.006,0.007,0.011,0.009,0.016l0.002,0.001c0.002,0.006,0.007,0.011,0.011,0.016c0,0.001,0,0.001,0,0.002
			c0.004,0.004,0.006,0.01,0.008,0.015c0.003,0,0.003,0,0.003,0.001c0.004,0.005,0.006,0.011,0.01,0.017h0.002
			c0.002,0.006,0.006,0.011,0.008,0.017c0.003,0,0.003,0,0.003,0c0.004,0.005,0.006,0.01,0.01,0.016v0.001
			c0.004,0.005,0.006,0.011,0.01,0.016c0,0.001,0.002,0.001,0.002,0.001c0.002,0.005,0.006,0.011,0.008,0.017h0.003
			c0.002,0.005,0.006,0.01,0.009,0.015c0.002,0,0.002,0,0.002,0.001c0.004,0.005,0.006,0.01,0.008,0.016
			c0.002,0,0.002,0.001,0.002,0.001c0.004,0.006,0.007,0.01,0.011,0.016v0.001c0.004,0.005,0.008,0.01,0.01,0.016
			c0.002,0.001,0.002,0.001,0.002,0.001c0.004,0.005,0.007,0.01,0.011,0.015c0,0.001,0,0.001,0,0.001
			c0.004,0.005,0.006,0.01,0.01,0.016v0.001c0.004,0.006,0.008,0.011,0.01,0.016c0.002,0,0.002,0.001,0.002,0.001
			c0.002,0.005,0.007,0.01,0.011,0.016v0.001c0.005,0.005,0.007,0.011,0.011,0.016c0,0,0,0,0,0.001
			c0.004,0.005,0.006,0.011,0.011,0.016v0.001c0.004,0.005,0.006,0.011,0.012,0.016v0.001c0.004,0.006,0.006,0.011,0.01,0.016v0.001
			c0.005,0.005,0.007,0.01,0.011,0.016v0.001c0.004,0.005,0.007,0.011,0.012,0.016c0,0,0,0,0,0.001
			c0.004,0.004,0.006,0.01,0.01,0.016c0,0,0,0,0,0.001c0.005,0.005,0.007,0.01,0.009,0.015c0.003,0.001,0.003,0.001,0.003,0.002
			c0.004,0.005,0.006,0.01,0.01,0.016c0,0,0,0.001,0.002,0.001c0.003,0.005,0.007,0.01,0.009,0.016h0.002
			c0.004,0.006,0.006,0.011,0.01,0.016c0,0,0,0,0,0.001c0.004,0.005,0.007,0.01,0.011,0.016c0,0,0,0,0,0.001
			c0.004,0.005,0.008,0.01,0.01,0.016c0.001,0,0.001,0,0.002,0.001c0.004,0.005,0.006,0.01,0.01,0.016l0,0
			c0.004,0.006,0.009,0.011,0.011,0.016c0,0,0,0,0,0.001c0.005,0.005,0.007,0.011,0.011,0.015c0,0,0,0.001,0.002,0.001
			c0.002,0.006,0.006,0.011,0.009,0.016c0.002,0,0.002,0,0.002,0.001c0.002,0.005,0.006,0.01,0.01,0.016c0,0,0,0,0,0.001
			c0.004,0.005,0.008,0.011,0.011,0.016c0,0,0,0,0.002,0c0.002,0.005,0.004,0.01,0.008,0.016h0.002
			c0.003,0.005,0.006,0.011,0.01,0.016c0,0.001,0,0.001,0.002,0.002c0.002,0.005,0.006,0.01,0.008,0.015
			c0,0.001,0.003,0.001,0.003,0.001c0.002,0.005,0.005,0.01,0.009,0.016h0.002c0.002,0.006,0.006,0.01,0.008,0.016h0.002
			c0.005,0.006,0.007,0.01,0.011,0.016c0,0.001,0,0.001,0,0.002c0.004,0.005,0.006,0.01,0.008,0.015
			c0.002,0,0.002,0.001,0.004,0.002c0.003,0.005,0.007,0.01,0.009,0.016h0.002c0.004,0.005,0.006,0.011,0.009,0.016
			c0.001,0,0.002,0,0.002,0c0.003,0.006,0.007,0.011,0.009,0.016l0.002,0.001c0.002,0.006,0.006,0.011,0.009,0.016
			c0,0.001,0,0.001,0.003,0.001c0.002,0.006,0.006,0.011,0.008,0.016c0.002,0,0.002,0,0.002,0.001
			c0.004,0.005,0.007,0.011,0.011,0.017l0,0c0.004,0.005,0.006,0.01,0.008,0.016c0.002,0,0.002,0,0.002,0
			c0.004,0.005,0.008,0.01,0.011,0.016c0.002,0,0.002,0.001,0.002,0.001c0.002,0.005,0.006,0.01,0.01,0.016v0.001
			c0.004,0.005,0.007,0.011,0.01,0.016c0.002,0.001,0.002,0.001,0.002,0.001c0.002,0.005,0.006,0.01,0.008,0.015
			c0,0,0.002,0,0.002,0.001c0.003,0.006,0.008,0.01,0.012,0.016v0.001c0.004,0.006,0.006,0.01,0.01,0.016V33.6
			c0.004,0.006,0.007,0.01,0.011,0.016c0,0.001,0,0.001,0,0.001c0.004,0.005,0.006,0.011,0.01,0.015c0,0.001,0,0.001,0.002,0.001
			c0.005,0.005,0.007,0.011,0.011,0.015c0,0,0,0,0,0.001c0.004,0.006,0.006,0.011,0.01,0.016c0,0,0,0,0.002,0.001
			c0.004,0.005,0.006,0.01,0.008,0.016l0.002,0.001c0.004,0.005,0.006,0.01,0.01,0.016l0.002,0.001
			c0.004,0.005,0.006,0.011,0.01,0.016c0,0,0,0,0,0.001c0.004,0.004,0.008,0.01,0.011,0.015c0,0,0.001,0,0.001,0.001
			c0.003,0.005,0.005,0.01,0.009,0.016c0,0.001,0,0.001,0,0.001c0.004,0.004,0.009,0.01,0.011,0.016l0.002,0.001
			c0.004,0.005,0.008,0.011,0.01,0.016c0,0,0.002,0,0.002,0.001c0.002,0.004,0.006,0.01,0.008,0.016c0.002,0,0.002,0,0.002,0.001
			c0.002,0.005,0.006,0.01,0.01,0.015c0,0.001,0,0.001,0,0.002c0.004,0.005,0.008,0.01,0.012,0.016c0,0,0,0.001,0.002,0.001
			c0.002,0.005,0.006,0.01,0.008,0.016c0.002,0,0.002,0.001,0.002,0.001c0.002,0.005,0.004,0.01,0.009,0.015c0,0,0,0,0.002,0.001
			c0.002,0.005,0.006,0.011,0.008,0.016c0.003,0,0.003,0,0.003,0.001c0.004,0.005,0.008,0.01,0.01,0.016c0,0,0.002,0,0.002,0.001
			c0.002,0.005,0.006,0.01,0.008,0.016c0,0,0,0,0.002,0c0.002,0.006,0.006,0.012,0.01,0.016l0,0c0.004,0.006,0.006,0.011,0.01,0.016
			c0.002,0,0.002,0.001,0.002,0.001c0.004,0.005,0.008,0.01,0.01,0.015c0.002,0.001,0.002,0.001,0.002,0.002
			c0.002,0.004,0.004,0.01,0.008,0.015c0,0.001,0.002,0.002,0.002,0.002c0.003,0.005,0.007,0.01,0.011,0.016l0,0
			c0.005,0.005,0.007,0.01,0.011,0.016l0,0c0.006,0.005,0.008,0.01,0.01,0.016c0.002,0.001,0.002,0.001,0.002,0.001
			c0.002,0.005,0.006,0.011,0.008,0.017c0,0,0.002,0,0.002,0.001c0.004,0.004,0.008,0.01,0.01,0.016h0.002
			c0.002,0.006,0.006,0.01,0.01,0.016l0,0c0.006,0.006,0.008,0.01,0.01,0.016c0,0,0.002,0.001,0.002,0.002
			c0.002,0.005,0.007,0.01,0.009,0.015c0.002,0.001,0.002,0.001,0.002,0.002c0.004,0.005,0.007,0.01,0.011,0.016l0,0
			c0.004,0.005,0.008,0.011,0.01,0.016l0,0c0.004,0.005,0.008,0.011,0.01,0.016c0.002,0,0.002,0.001,0.002,0.001
			c0.002,0.006,0.006,0.011,0.01,0.016c0.002,0,0.002,0,0.002,0.001c0.002,0.005,0.006,0.01,0.01,0.015c0,0.001,0,0.001,0.002,0.002
			c0.002,0.004,0.006,0.01,0.008,0.015c0,0.001,0.002,0.001,0.002,0.001c0.002,0.005,0.006,0.01,0.01,0.016l0,0
			c0.005,0.005,0.007,0.01,0.011,0.015c0,0,0,0.001,0.003,0.001c0.002,0.005,0.006,0.011,0.008,0.016
			c0,0.001,0.002,0.001,0.002,0.001c0.002,0.005,0.005,0.011,0.01,0.016c0,0.001,0,0.001,0,0.001c0.004,0.005,0.006,0.01,0.01,0.015
			c0,0,0,0,0,0.001c0.004,0.005,0.008,0.01,0.012,0.016v0.001c0.004,0.006,0.008,0.01,0.01,0.016c0,0,0,0.001,0.002,0.001
			c0.003,0.006,0.006,0.01,0.01,0.016v0.001c0.004,0.005,0.006,0.011,0.011,0.015c0,0.001,0,0.001,0.002,0.001
			c0.002,0.005,0.007,0.011,0.009,0.016l0.002,0.001c0.002,0.006,0.006,0.011,0.008,0.016c0,0,0,0.001,0.002,0.001
			c0.003,0.005,0.006,0.01,0.01,0.016l0,0c0.004,0.005,0.006,0.01,0.01,0.016c0,0,0,0.001,0.002,0.001
			c0.004,0.005,0.008,0.011,0.012,0.016c0,0,0,0,0,0.001c0.002,0.004,0.006,0.01,0.009,0.015c0,0,0.001,0,0.001,0.001
			c0.003,0.005,0.008,0.01,0.01,0.016c0,0,0,0.001,0.002,0.001c0.003,0.005,0.007,0.01,0.01,0.016c0.002,0,0.002,0.001,0.002,0.001
			c0.002,0.005,0.004,0.01,0.008,0.016h0.002c0.002,0.006,0.007,0.011,0.01,0.017c0,0,0,0,0.001,0.001
			c0.003,0.005,0.007,0.01,0.009,0.016c0,0,0.002,0,0.002,0.001c0.002,0.005,0.006,0.01,0.01,0.016v0.001
			c0.004,0.005,0.008,0.01,0.01,0.016c0.002,0,0.002,0.001,0.003,0.001c0.003,0.005,0.005,0.01,0.009,0.016h0.002
			c0.002,0.006,0.006,0.012,0.011,0.016c0,0,0,0,0,0.001c0.005,0.005,0.007,0.01,0.009,0.015c0,0.001,0.002,0.001,0.002,0.002
			c0.002,0.005,0.006,0.01,0.01,0.015c0,0,0,0,0.001,0.001c0.003,0.006,0.006,0.011,0.009,0.017h0.002
			c0.004,0.006,0.006,0.012,0.01,0.017c0,0,0,0,0,0.001c0.004,0.005,0.006,0.01,0.01,0.015c0,0.001,0,0.001,0,0.002
			c0.006,0.004,0.009,0.01,0.012,0.016l0.001,0.001c0.003,0.004,0.007,0.01,0.009,0.016c0.002,0,0.002,0,0.002,0
			c0.005,0.005,0.008,0.01,0.01,0.016c0.002,0,0.002,0,0.002,0c0.002,0.006,0.006,0.01,0.01,0.016c0,0.001,0,0.001,0.001,0.002
			c0.003,0.005,0.006,0.01,0.009,0.015c0.001,0.001,0.001,0.001,0.002,0.002c0.002,0.005,0.006,0.01,0.01,0.015
			c0,0.001,0,0.001,0,0.001c0.004,0.006,0.006,0.01,0.01,0.016l0,0c0.004,0.006,0.008,0.01,0.012,0.016
			c0.001,0,0.001,0.001,0.002,0.001c0.002,0.006,0.005,0.011,0.009,0.016c0,0.001,0.001,0.001,0.001,0.002
			c0.003,0.005,0.006,0.01,0.009,0.016c0.003,0,0.003,0,0.003,0c0.004,0.006,0.006,0.011,0.01,0.016l0,0
			c0.004,0.005,0.007,0.011,0.01,0.016c0.001,0,0.001,0.001,0.002,0.001c0.003,0.006,0.006,0.011,0.009,0.016
			c0.001,0,0.001,0,0.002,0.001c0.003,0.005,0.005,0.01,0.009,0.015c0,0.001,0,0.001,0,0.001c0.004,0.004,0.006,0.01,0.01,0.015
			v0.001c0.007,0.004,0.01,0.01,0.013,0.016h0.001c0.003,0.005,0.006,0.01,0.009,0.016c0.001,0,0.001,0.001,0.001,0.001
			c0.006,0.005,0.008,0.01,0.012,0.016v0.001c0.004,0.005,0.008,0.011,0.011,0.016c0,0.001,0.001,0.001,0.001,0.001
			c0.003,0.005,0.006,0.011,0.009,0.016c0.001,0,0.001,0,0.001,0.001c0.004,0.005,0.007,0.01,0.009,0.016c0,0,0,0.001,0.001,0.001
			c0.004,0.006,0.006,0.01,0.01,0.016c0,0,0,0.001,0.002,0.001c0.002,0.006,0.008,0.011,0.011,0.016l0.001,0.001
			c0.003,0.005,0.007,0.01,0.01,0.015c0,0,0,0.001,0.001,0.001c0.003,0.005,0.005,0.011,0.011,0.015c0,0,0,0,0.002,0.001
			c0.002,0.006,0.006,0.011,0.008,0.016c0.002,0,0.002,0.001,0.002,0.001c0.002,0.005,0.006,0.01,0.009,0.016
			c0.001,0,0.001,0.001,0.002,0.001c0.003,0.005,0.006,0.01,0.008,0.016l0.001,0.001c0.003,0.005,0.006,0.011,0.01,0.016
			c0,0,0,0,0.002,0.001c0.002,0.004,0.006,0.01,0.008,0.016c0.003,0,0.003,0,0.003,0.001c0.005,0.004,0.007,0.01,0.011,0.015
			l0.001,0.001c0.003,0.005,0.005,0.01,0.008,0.016c0.001,0,0.001,0.001,0.002,0.001c0.003,0.005,0.009,0.01,0.011,0.016h0.002
			c0.004,0.006,0.006,0.011,0.01,0.016c0,0,0,0,0,0.001c0.004,0.005,0.007,0.01,0.009,0.015c0,0.001,0.002,0.001,0.002,0.002
			c0.003,0.005,0.006,0.01,0.009,0.016l0.002,0.001c0.002,0.005,0.006,0.01,0.008,0.016c0.002,0,0.002,0.001,0.002,0.001
			c0.005,0.005,0.008,0.01,0.012,0.015c0,0,0,0,0,0.001c0.004,0.005,0.007,0.011,0.009,0.015c0.001,0,0.001,0,0.002,0.001
			c0.003,0.005,0.007,0.01,0.011,0.016c0,0,0,0,0,0.001c0.006,0.005,0.008,0.01,0.012,0.016l0,0c0.004,0.006,0.006,0.011,0.01,0.017
			c0.001,0,0.001,0,0.001,0c0.002,0.005,0.006,0.011,0.009,0.016h0.001c0.003,0.005,0.007,0.011,0.011,0.016
			c0,0.001,0,0.001,0,0.002c0.004,0.004,0.006,0.01,0.011,0.016c0,0,0,0.001,0.003,0.001c0.002,0.005,0.004,0.01,0.008,0.015
			c0,0.001,0,0.001,0.001,0.001c0.003,0.005,0.006,0.01,0.009,0.016c0.001,0,0.001,0,0.002,0c0.004,0.006,0.008,0.01,0.012,0.016
			v0.001c0.004,0.006,0.006,0.011,0.01,0.016c0,0.001,0,0.001,0.002,0.002c0.002,0.005,0.004,0.01,0.008,0.016
			c0.001,0,0.001,0,0.001,0c0.004,0.006,0.006,0.011,0.011,0.016l0,0c0.004,0.006,0.006,0.011,0.01,0.016l0,0
			c0.005,0.006,0.01,0.011,0.012,0.016c0,0,0,0.001,0,0.002c0.004,0.005,0.007,0.01,0.011,0.015c0,0.001,0,0.001,0,0.001
			c0.004,0.005,0.007,0.011,0.011,0.015c0,0.001,0.002,0.001,0.002,0.001c0.004,0.005,0.008,0.011,0.01,0.016l0.002,0.001
			c0.002,0.005,0.004,0.01,0.008,0.016c0,0.001,0,0.001,0,0.001c0.004,0.005,0.008,0.011,0.011,0.016
			c0,0.001,0.001,0.001,0.001,0.001c0.003,0.005,0.006,0.011,0.01,0.016c0,0.001,0,0.001,0.002,0.001
			c0.002,0.004,0.006,0.01,0.009,0.016c0.002,0,0.002,0,0.002,0c0.003,0.004,0.005,0.01,0.009,0.015c0,0,0,0.001,0.002,0.001
			c0.003,0.005,0.006,0.01,0.009,0.016c0.001,0,0.001,0.001,0.003,0.001c0.002,0.005,0.006,0.01,0.01,0.015v0.001
			c0.004,0.005,0.006,0.009,0.01,0.015c0,0.001,0,0.001,0.002,0.001c0.002,0.005,0.006,0.01,0.008,0.016
			c0.002,0,0.002,0.001,0.002,0.001c0.003,0.006,0.008,0.011,0.01,0.016c0,0,0,0.001,0.002,0.001
			c0.002,0.006,0.006,0.011,0.008,0.016c0.003,0.001,0.003,0.001,0.003,0.001c0.002,0.005,0.004,0.01,0.009,0.016
			c0,0.001,0.002,0.001,0.002,0.001c0.002,0.005,0.006,0.011,0.008,0.016c0.002,0,0.002,0,0.003,0.001
			c0.003,0.005,0.007,0.011,0.009,0.015c0,0.001,0.002,0.001,0.002,0.001c0.004,0.006,0.006,0.01,0.01,0.016
			c0,0,0,0.001,0.002,0.001c0.002,0.005,0.006,0.01,0.008,0.016l0.002,0.001c0.004,0.005,0.006,0.011,0.01,0.016l0.002,0.001
			c0.002,0.004,0.006,0.01,0.008,0.016c0.002,0,0.002,0,0.002,0.001c0.002,0.004,0.007,0.01,0.009,0.015c0,0,0.002,0,0.002,0.001
			c0.002,0.005,0.007,0.01,0.011,0.016v0.001c0.004,0.005,0.007,0.01,0.01,0.016c0.002,0,0.002,0,0.002,0
			c0.004,0.006,0.008,0.01,0.01,0.016c0,0,0,0,0,0.001c0.004,0.005,0.006,0.01,0.01,0.015c0.002,0.001,0.002,0.001,0.002,0.002
			c0.002,0.005,0.006,0.01,0.01,0.015c0,0.001,0,0.002,0,0.002c0.004,0.005,0.008,0.01,0.01,0.016c0.002,0,0.002,0.001,0.002,0.001
			c0.004,0.005,0.006,0.01,0.009,0.016h0.002c0.002,0.006,0.006,0.012,0.011,0.016c0,0,0,0,0,0.001
			c0.004,0.005,0.006,0.01,0.01,0.016c0,0,0,0,0.002,0.001c0.004,0.005,0.006,0.01,0.008,0.016c0,0,0.002,0,0.002,0.001
			c0.004,0.004,0.006,0.01,0.01,0.016c0,0,0,0,0.002,0c0.002,0.005,0.006,0.011,0.01,0.016c0,0,0,0,0.002,0
			c0.002,0.005,0.004,0.01,0.008,0.016c0,0.001,0,0.001,0.002,0.001c0.004,0.005,0.006,0.011,0.008,0.017l0.002,0.001
			c0.005,0.005,0.007,0.01,0.011,0.016l0,0c0.005,0.005,0.007,0.01,0.011,0.016c0,0,0,0,0.002,0c0.002,0.006,0.006,0.01,0.008,0.016
			c0,0.001,0.002,0.001,0.002,0.002c0.004,0.005,0.008,0.01,0.01,0.015c0,0.001,0.002,0.001,0.002,0.002
			c0.002,0.005,0.006,0.01,0.008,0.015c0.002,0.001,0.002,0.001,0.002,0.002c0.004,0.004,0.008,0.01,0.01,0.016h0.002
			c0.002,0.006,0.004,0.011,0.008,0.016c0.002,0,0.002,0,0.002,0c0.004,0.006,0.007,0.011,0.011,0.016c0,0.001,0,0.001,0,0.002
			c0.004,0.005,0.008,0.01,0.011,0.015c0,0.001,0,0.001,0.002,0.001c0.002,0.005,0.006,0.011,0.008,0.016
			c0.002,0.001,0.002,0.001,0.002,0.001c0.002,0.006,0.006,0.011,0.01,0.016c0,0,0,0.001,0.002,0.001
			c0.002,0.005,0.006,0.01,0.008,0.016c0.002,0,0.002,0.001,0.002,0.001c0.004,0.005,0.007,0.01,0.01,0.016
			c0.002,0,0.002,0.001,0.002,0.002c0.002,0.004,0.006,0.01,0.008,0.015c0,0.001,0,0.001,0.002,0.001
			c0.002,0.005,0.006,0.01,0.011,0.015c0,0.001,0,0.001,0.002,0.001c0.002,0.005,0.004,0.01,0.008,0.016c0,0,0,0.001,0.002,0.001
			c0.003,0.006,0.007,0.01,0.009,0.016c0.002,0,0.002,0.001,0.002,0.001c0.004,0.005,0.006,0.01,0.008,0.016
			c0,0.001,0.002,0.001,0.002,0.001c0.002,0.005,0.008,0.01,0.01,0.015c0.002,0.001,0.002,0.001,0.002,0.001
			c0.004,0.005,0.006,0.01,0.01,0.016c0.001,0,0.001,0.001,0.002,0.001c0.003,0.005,0.006,0.011,0.008,0.016l0.002,0.001
			c0.002,0.006,0.006,0.011,0.008,0.016c0.002,0,0.002,0.001,0.002,0.001c0.005,0.005,0.009,0.01,0.011,0.016
			c0,0.001,0.002,0.001,0.002,0.001c0.002,0.005,0.006,0.011,0.009,0.016c0.001,0,0.001,0,0.002,0.001
			c0.004,0.005,0.006,0.011,0.008,0.016c0.002,0,0.002,0,0.002,0c0.002,0.005,0.006,0.01,0.012,0.016c0,0,0,0,0,0.001
			c0.004,0.005,0.006,0.01,0.01,0.016c0,0,0,0.001,0.002,0.001c0.002,0.005,0.006,0.011,0.008,0.016
			c0.002,0.001,0.002,0.001,0.002,0.002c0.004,0.004,0.006,0.009,0.008,0.015c0.002,0,0.002,0,0.002,0.001
			c0.004,0.005,0.007,0.01,0.011,0.015c0,0.001,0.002,0.001,0.002,0.001c0.002,0.006,0.006,0.01,0.01,0.016v0.001
			c0.004,0.006,0.007,0.01,0.009,0.015c0.002,0.001,0.002,0.001,0.002,0.001c0.004,0.006,0.006,0.011,0.01,0.016
			c0,0.001,0,0.001,0,0.001c0.005,0.006,0.01,0.011,0.012,0.016c0,0,0,0,0.002,0.001c0.002,0.005,0.006,0.01,0.009,0.015
			c0,0.001,0.001,0.001,0.001,0.001c0.002,0.006,0.006,0.011,0.01,0.016v0.001c0.004,0.006,0.006,0.011,0.011,0.015
			c0,0,0,0.001,0.002,0.001c0.002,0.006,0.006,0.012,0.01,0.016c0,0.001,0,0.001,0,0.001c0.004,0.005,0.006,0.011,0.011,0.016
			c0,0,0,0,0,0.001c0.004,0.005,0.006,0.011,0.01,0.016v0.001c0.004,0.005,0.007,0.01,0.011,0.016l0.003,0.001
			c0.002,0.005,0.006,0.011,0.008,0.016c0.002,0,0.002,0.001,0.002,0.001c0.004,0.006,0.006,0.012,0.01,0.016
			c0,0.001,0,0.001,0,0.001c0.004,0.005,0.006,0.011,0.01,0.016c0,0.001,0,0.002,0.002,0.002c0.003,0.005,0.007,0.011,0.009,0.015
			c0.002,0,0.002,0.001,0.002,0.001c0.004,0.005,0.006,0.011,0.01,0.017v0.001c0.004,0.005,0.007,0.01,0.011,0.016
			c0,0.001,0,0.001,0.002,0.001c0.002,0.005,0.006,0.01,0.009,0.016c0,0,0,0.001,0.002,0.001c0.002,0.005,0.007,0.011,0.009,0.016
			c0.002,0.001,0.002,0.001,0.002,0.002c0.004,0.004,0.006,0.01,0.008,0.015c0,0,0.002,0,0.002,0.001
			c0.004,0.006,0.006,0.011,0.01,0.017c0,0,0,0.001,0.002,0.001c0.002,0.004,0.007,0.009,0.009,0.015
			c0.002,0,0.002,0.001,0.002,0.002c0.004,0.005,0.006,0.011,0.008,0.016c0,0,0,0,0.004,0.001c0.002,0.005,0.004,0.01,0.009,0.016
			c0,0,0,0,0.002,0.001c0.002,0.005,0.006,0.01,0.008,0.015c0,0.001,0.002,0.001,0.002,0.002c0.003,0.006,0.007,0.01,0.011,0.016
			l0,0c0.005,0.006,0.007,0.012,0.009,0.017l0.002,0.001c0.004,0.006,0.006,0.012,0.01,0.016h0.002
			c0.002,0.006,0.006,0.012,0.008,0.018c0.003,0,0.003,0.001,0.003,0.001c0.004,0.005,0.006,0.01,0.01,0.015v0
			c0.002,0.006,0.006,0.011,0.01,0.017h0.003c0.002,0.006,0.006,0.011,0.008,0.017c0.002,0,0.002,0.001,0.002,0.001
			c0.004,0.005,0.007,0.011,0.011,0.015c0,0.001,0,0.001,0,0.002c0.004,0.005,0.006,0.011,0.009,0.016
			c0.002,0.001,0.002,0.001,0.002,0.002c0.004,0.004,0.006,0.009,0.01,0.015v0.001c0.006,0.006,0.008,0.011,0.01,0.017
			c0.002,0,0.002,0,0.002,0c0.004,0.006,0.007,0.01,0.011,0.016c0,0.001,0,0.001,0,0.002c0.002,0.005,0.006,0.01,0.01,0.015
			c0,0.001,0,0.001,0,0.002c0.004,0.005,0.009,0.01,0.011,0.015c0.002,0.001,0.002,0.002,0.002,0.002
			c0.004,0.004,0.006,0.01,0.01,0.016c0,0,0,0.001,0.001,0.001c0.003,0.006,0.006,0.011,0.01,0.016l0,0
			c0.005,0.006,0.007,0.012,0.011,0.017c0,0.001,0,0.001,0,0.001c0.004,0.006,0.006,0.011,0.012,0.015c0,0.001,0,0.001,0,0.002
			c0.004,0.005,0.006,0.011,0.01,0.017c0.001,0,0.001,0,0.001,0c0.004,0.005,0.006,0.011,0.01,0.017l0,0
			c0.004,0.006,0.006,0.011,0.01,0.016c0,0,0,0.001,0.003,0.001c0.004,0.006,0.006,0.012,0.01,0.017c0,0.001,0,0.001,0,0.001
			c0.004,0.005,0.007,0.009,0.01,0.015c0,0.001,0.002,0.001,0.002,0.002c0.003,0.005,0.005,0.011,0.01,0.016
			c0,0.001,0,0.001,0,0.001c0.004,0.005,0.008,0.01,0.01,0.016l0.002,0.001c0.004,0.006,0.006,0.011,0.01,0.016
			c0,0.001,0,0.001,0.002,0.001c0.002,0.006,0.005,0.01,0.008,0.016c0.001,0,0.001,0.001,0.001,0.001
			c0.004,0.005,0.006,0.011,0.01,0.016c0,0.001,0.002,0.002,0.002,0.002c0.003,0.005,0.007,0.01,0.011,0.015c0,0,0,0,0.002,0.001
			c0.002,0.006,0.006,0.011,0.009,0.017c0,0,0,0.001,0.001,0.001c0.002,0.006,0.005,0.011,0.008,0.015
			c0.001,0,0.001,0.001,0.003,0.001c0.003,0.006,0.007,0.012,0.009,0.017l0.002,0.001c0.002,0.005,0.006,0.011,0.01,0.015
			c0,0.001,0,0.001,0.002,0.002c0.002,0.005,0.005,0.011,0.008,0.016c0.001,0,0.001,0,0.002,0.001
			c0.003,0.006,0.006,0.011,0.009,0.017c0,0,0,0.001,0.002,0.001c0.002,0.004,0.007,0.009,0.009,0.015
			c0.002,0,0.002,0.001,0.002,0.001c0.004,0.006,0.008,0.011,0.01,0.017c0,0.001,0.002,0.001,0.002,0.001
			c0.002,0.004,0.006,0.01,0.009,0.015c0,0.001,0,0.001,0.001,0.002c0.003,0.005,0.007,0.011,0.01,0.016l0.002,0.001
			c0.004,0.006,0.006,0.01,0.01,0.016V37.8c0.004,0.005,0.008,0.01,0.011,0.016c0,0.001,0,0.001,0.001,0.001
			c0.003,0.006,0.006,0.011,0.009,0.016c0,0,0.001,0,0.001,0.001c0.003,0.005,0.007,0.011,0.009,0.017c0.003,0,0.003,0,0.003,0.001
			c0.004,0.005,0.006,0.009,0.01,0.014c0,0.001,0,0.002,0,0.002c0.006,0.006,0.007,0.011,0.01,0.017
			c0.001,0,0.002,0.001,0.002,0.001c0.003,0.005,0.006,0.011,0.01,0.015c0,0.001,0,0.001,0.001,0.001
			c0.005,0.006,0.007,0.011,0.011,0.017c0,0,0,0,0,0.001c0.004,0.005,0.006,0.011,0.01,0.015c0,0.001,0,0.001,0,0.002
			c0.005,0.005,0.008,0.01,0.011,0.016c0.001,0,0.001,0.001,0.001,0.001c0.004,0.006,0.007,0.011,0.009,0.017
			c0.001,0,0.002,0,0.002,0c0.005,0.005,0.007,0.01,0.011,0.016c0,0,0,0.001,0.002,0.001c0.002,0.006,0.004,0.012,0.009,0.017
			c0,0,0,0,0.001,0.001c0.003,0.004,0.006,0.01,0.009,0.015c0.001,0.001,0.001,0.001,0.002,0.002
			c0.003,0.005,0.006,0.01,0.009,0.015c0,0.001,0.002,0.001,0.002,0.002c0.004,0.005,0.008,0.01,0.01,0.016c0,0,0,0,0.002,0
			c0.003,0.006,0.005,0.011,0.009,0.017c0,0,0.001,0.001,0.002,0.001c0.003,0.006,0.006,0.01,0.009,0.015
			c0,0.001,0.001,0.001,0.001,0.002c0.003,0.005,0.007,0.011,0.011,0.016c0,0.001,0,0.001,0.002,0.002
			c0.002,0.004,0.004,0.01,0.008,0.015v0.001c0.005,0.006,0.007,0.011,0.011,0.017c0.001,0,0.002,0,0.002,0
			c0.003,0.006,0.006,0.011,0.009,0.016c0.001,0,0.001,0.001,0.001,0.001c0.005,0.006,0.007,0.011,0.011,0.016
			c0,0.001,0.002,0.001,0.002,0.002c0.002,0.005,0.004,0.011,0.009,0.016c0,0,0,0,0.002,0c0.002,0.006,0.006,0.011,0.009,0.017
			c0.001,0,0.001,0.001,0.001,0.001c0.003,0.006,0.006,0.011,0.009,0.016c0.001,0,0.004,0.001,0.004,0.001
			c0.002,0.005,0.006,0.011,0.008,0.016c0,0.001,0,0.001,0,0.002c0.004,0.005,0.009,0.01,0.011,0.015
			c0,0.001,0.002,0.001,0.002,0.002c0.002,0.004,0.006,0.01,0.009,0.015c0.001,0.001,0.001,0.001,0.002,0.001
			c0.003,0.005,0.006,0.011,0.01,0.017v0.001c0.002,0.006,0.006,0.01,0.01,0.015c0,0,0,0.001,0.002,0.001
			c0.003,0.006,0.007,0.012,0.009,0.017c0,0.001,0.002,0.001,0.002,0.001c0.003,0.005,0.007,0.01,0.01,0.015
			c0,0.001,0.001,0.001,0.001,0.002c0.003,0.005,0.008,0.011,0.01,0.016c0,0,0,0.001,0.002,0.001
			c0.002,0.005,0.006,0.011,0.008,0.015c0,0.001,0.003,0.002,0.003,0.002c0.002,0.006,0.006,0.011,0.01,0.016
			c0,0.001,0,0.001,0.001,0.001c0.003,0.006,0.006,0.011,0.009,0.016l0.001,0.001c0.004,0.005,0.006,0.011,0.01,0.017
			c0,0,0,0,0,0.001c0.004,0.005,0.008,0.011,0.011,0.016c0.002,0,0.002,0,0.002,0.001c0.004,0.004,0.006,0.01,0.01,0.016
			l0.001,0.001c0.003,0.005,0.006,0.01,0.01,0.016l0.002,0.001c0.002,0.005,0.006,0.01,0.008,0.016
			c0.002,0.001,0.002,0.001,0.002,0.001c0.005,0.005,0.007,0.011,0.009,0.016c0.002,0.001,0.002,0.001,0.002,0.002
			c0.004,0.005,0.006,0.01,0.01,0.015c0.001,0,0.001,0,0.002,0.001c0.003,0.006,0.005,0.011,0.009,0.017v0.001
			c0.004,0.005,0.006,0.009,0.01,0.015c0.003,0,0.003,0.001,0.003,0.001c0.004,0.006,0.006,0.011,0.01,0.017l0,0
			c0.004,0.006,0.008,0.011,0.011,0.017c0,0,0,0,0.001,0.001c0.003,0.005,0.007,0.01,0.009,0.016c0.002,0,0.002,0.001,0.002,0.001
			c0.004,0.006,0.006,0.011,0.011,0.016v0.001c0.004,0.005,0.008,0.01,0.01,0.016c0,0,0,0.001,0.002,0.001
			c0.002,0.006,0.006,0.012,0.008,0.016c0,0,0.001,0,0.001,0.001c0.004,0.005,0.006,0.011,0.01,0.016c0,0.001,0,0.001,0.002,0.002
			c0.002,0.005,0.007,0.01,0.011,0.016c0,0,0,0,0.002,0.001c0.002,0.004,0.006,0.01,0.008,0.016h0.002
			c0.002,0.006,0.005,0.011,0.011,0.017c0,0.001,0,0.001,0,0.001c0.004,0.005,0.006,0.01,0.01,0.015c0,0.001,0,0.001,0.002,0.002
			c0.002,0.005,0.005,0.011,0.009,0.016c0,0.001,0.002,0.001,0.002,0.002c0.002,0.004,0.006,0.009,0.008,0.015c0,0,0,0,0,0.001
			c0.005,0.006,0.009,0.011,0.011,0.017h0.002c0.002,0.006,0.006,0.011,0.011,0.016v0.001c0.004,0.006,0.008,0.011,0.01,0.016
			c0,0.001,0.002,0.001,0.002,0.002c0.002,0.005,0.004,0.01,0.008,0.015c0,0.001,0.003,0.001,0.003,0.002
			c0.002,0.005,0.006,0.01,0.01,0.016c0,0,0,0,0,0.001c0.004,0.005,0.008,0.011,0.01,0.016c0.001,0,0.003,0,0.003,0
			c0.002,0.006,0.006,0.011,0.008,0.017c0,0,0,0.001,0.002,0.001c0.002,0.006,0.007,0.011,0.009,0.016c0,0,0.002,0,0.002,0.002
			c0.002,0.004,0.006,0.01,0.008,0.016c0.002,0,0.002,0,0.002,0c0.005,0.006,0.007,0.012,0.011,0.018
			c0.002,0,0.002,0.001,0.002,0.001c0.004,0.004,0.006,0.011,0.008,0.015c0,0,0,0.002,0.002,0.002
			c0.003,0.006,0.007,0.011,0.009,0.017c0.002,0,0.002,0.001,0.004,0.001c0.002,0.005,0.006,0.01,0.008,0.017
			c0.002,0,0.002,0,0.002,0.002c0.002,0.004,0.006,0.01,0.011,0.017c0,0.001,0,0.001,0,0.001c0.002,0.005,0.006,0.01,0.008,0.016
			l0.002,0.001c0.003,0.007,0.007,0.013,0.011,0.017c0,0,0,0,0,0.002c0.004,0.007,0.006,0.011,0.011,0.017v0.001
			c0.005,0.005,0.008,0.012,0.01,0.018c0,0,0.002,0,0.002,0.002c0.002,0.004,0.006,0.011,0.011,0.016c0,0,0,0,0,0.001
			c0.004,0.006,0.008,0.011,0.01,0.017c0.002,0,0.002,0,0.002,0.002c0.002,0.006,0.006,0.012,0.008,0.016c0.002,0,0.002,0,0.003,0
			c0.002,0.008,0.006,0.013,0.008,0.019c0.002,0,0.002,0.001,0.002,0.001c0.004,0.006,0.007,0.012,0.011,0.018l0,0
			c0.004,0.007,0.006,0.013,0.01,0.018c0,0,0,0.001,0.003,0.001c0.002,0.005,0.006,0.011,0.009,0.017c0,0.002,0,0.002,0,0.002
			c0.003,0.004,0.007,0.01,0.009,0.017c0.002,0,0.002,0,0.002,0c0.005,0.007,0.007,0.012,0.011,0.019l0,0
			c0.006,0.006,0.008,0.012,0.012,0.017c0,0.002,0,0.002,0,0.002c0.004,0.006,0.007,0.012,0.009,0.017
			c0.001,0,0.001,0.001,0.002,0.001c0.004,0.005,0.006,0.011,0.01,0.017c0,0,0,0,0,0.002c0.005,0.004,0.007,0.01,0.011,0.017
			c0,0,0,0,0.002,0c0.002,0.007,0.007,0.013,0.009,0.017c0,0,0,0,0.002,0.002c0.002,0.004,0.005,0.013,0.009,0.017l0.001,0.002
			c0.004,0.006,0.006,0.011,0.011,0.015c0,0.002,0,0.002,0.002,0.002c0.002,0.006,0.006,0.012,0.01,0.018v0.002
			c0.004,0.004,0.006,0.011,0.01,0.015v0.002c0.004,0.007,0.007,0.011,0.011,0.017l0,0c0.004,0.009,0.007,0.015,0.011,0.019
			c0,0.002,0.002,0.002,0.002,0.002c0.002,0.004,0.006,0.011,0.011,0.017l0,0c0.002,0.006,0.006,0.012,0.008,0.018h0.002
			c0.004,0.007,0.006,0.011,0.01,0.018c0,0,0,0.002,0.002,0.002c0.003,0.006,0.007,0.012,0.009,0.017c0.002,0,0.002,0,0.002,0.002
			c0.002,0.004,0.006,0.01,0.008,0.016c0.002,0,0.002,0,0.002,0.002c0.004,0.005,0.006,0.011,0.011,0.017c0,0,0,0,0.001,0.002
			c0.003,0.006,0.007,0.01,0.009,0.017h0.003c0.002,0.006,0.006,0.011,0.008,0.017c0.002,0,0.002,0.002,0.002,0.002
			c0.002,0.006,0.007,0.011,0.009,0.015c0.002,0,0.002,0.002,0.002,0.002c0.002,0.006,0.006,0.012,0.01,0.019c0,0,0,0,0.001,0.002
			c0.003,0.004,0.007,0.01,0.01,0.014c0.002,0.002,0.002,0.002,0.002,0.002c0.004,0.006,0.006,0.012,0.01,0.019l0,0
			c0.004,0.007,0.006,0.011,0.01,0.017c0,0,0,0,0.002,0c0.003,0.007,0.006,0.013,0.009,0.017c0.001,0.002,0.001,0.002,0.001,0.002
			c0.003,0.006,0.008,0.013,0.01,0.019c0.002,0,0.002,0,0.002,0c0.002,0.004,0.006,0.012,0.009,0.018c0.002,0,0.002,0,0.002,0
			c0.004,0.006,0.006,0.013,0.01,0.018l0.001,0.002c0.003,0.004,0.006,0.01,0.009,0.017c0.001,0,0.003,0,0.003,0
			c0.004,0.006,0.006,0.012,0.01,0.018l0,0c0.004,0.007,0.006,0.013,0.01,0.017c0,0.002,0.002,0.002,0.002,0.002
			c0.002,0.006,0.006,0.012,0.009,0.016c0.001,0.002,0.001,0.002,0.002,0.002c0.003,0.007,0.007,0.012,0.011,0.018l0,0
			c0.004,0.006,0.006,0.013,0.008,0.019c0.002,0,0.002,0,0.002,0c0.005,0.006,0.007,0.012,0.011,0.017c0,0.002,0,0.002,0,0.002
			c0.004,0.006,0.008,0.012,0.01,0.017c0.001,0,0.001,0.001,0.002,0.001c0.003,0.006,0.007,0.012,0.011,0.016c0,0,0,0,0,0.002
			c0.004,0.006,0.006,0.012,0.01,0.018l0,0c0.004,0.007,0.008,0.013,0.01,0.019c0.002,0,0.002,0,0.002,0
			c0.004,0.004,0.007,0.013,0.01,0.017c0,0.002,0.002,0.002,0.002,0.002c0.002,0.006,0.006,0.012,0.01,0.018l0,0
			c0.004,0.004,0.007,0.01,0.011,0.018V40c0.004,0.005,0.008,0.011,0.01,0.018h0.002c0.003,0.006,0.007,0.01,0.011,0.017v0.002
			c0.002,0.005,0.006,0.012,0.01,0.016c0,0.003,0,0.003,0,0.003c0.004,0.006,0.006,0.01,0.01,0.016c0,0,0.002,0,0.002,0.002
			c0.004,0.006,0.006,0.011,0.011,0.017v0.002c0.005,0.004,0.007,0.009,0.009,0.015l0.002,0.002c0.002,0.007,0.006,0.011,0.01,0.018
			l0,0c0.005,0.006,0.009,0.014,0.011,0.018c0,0,0.002,0,0.002,0.002c0.002,0.004,0.006,0.01,0.009,0.016
			c0.001,0,0.002,0,0.002,0.002c0.002,0.004,0.006,0.011,0.008,0.015c0.002,0.002,0.002,0.002,0.002,0.002
			c0.004,0.007,0.008,0.011,0.01,0.017l0.002,0.003c0.004,0.006,0.006,0.012,0.01,0.017l0,0c0.004,0.005,0.008,0.012,0.012,0.018
			c0,0,0,0,0,0.002c0.002,0.004,0.006,0.01,0.008,0.016c0.002,0,0.002,0,0.004,0.002c0.002,0.004,0.007,0.01,0.009,0.018
			c0.002,0,0.002,0,0.002,0c0.002,0.006,0.006,0.01,0.01,0.017c0,0,0,0.002,0.001,0.002c0.003,0.004,0.006,0.01,0.008,0.015
			c0.002,0,0.002,0.001,0.002,0.002c0.002,0.006,0.006,0.012,0.01,0.018c0,0,0.002,0,0.002,0.002c0.002,0.006,0.006,0.01,0.01,0.014
			c0,0.002,0,0.002,0,0.003c0.004,0.007,0.008,0.013,0.011,0.019c0,0,0,0,0.002,0c0.001,0.007,0.005,0.011,0.009,0.017l0,0
			c0.004,0.007,0.006,0.012,0.01,0.017c0.003,0,0.003,0.002,0.003,0.002c0.004,0.006,0.006,0.012,0.01,0.016
			c0,0.002,0,0.002,0,0.002c0.004,0.006,0.007,0.012,0.009,0.017c0.001,0.001,0.002,0.001,0.002,0.003
			c0.004,0.006,0.006,0.012,0.01,0.016c0,0,0,0,0.002,0c0.002,0.007,0.006,0.013,0.01,0.019l0,0c0.004,0.007,0.006,0.013,0.01,0.019
			l0,0c0.005,0.006,0.008,0.012,0.012,0.016c0,0.002,0,0.002,0,0.002c0.004,0.006,0.006,0.012,0.01,0.018c0,0,0,0,0.002,0.002
			c0.003,0.004,0.007,0.01,0.011,0.017l0,0c0.004,0.006,0.006,0.012,0.008,0.019c0.002,0,0.002,0,0.002,0
			c0.004,0.006,0.007,0.01,0.011,0.016c0,0.002,0,0.002,0,0.002c0.004,0.006,0.008,0.01,0.01,0.018h0.002
			c0.004,0.006,0.008,0.012,0.01,0.016c0,0.002,0,0.002,0.002,0.002c0.002,0.006,0.004,0.013,0.009,0.019l0,0
			c0.005,0.006,0.009,0.013,0.011,0.017c0,0,0,0.002,0.002,0.002c0.002,0.004,0.006,0.01,0.009,0.016
			c0.001,0.002,0.001,0.002,0.001,0.002c0.005,0.006,0.007,0.012,0.011,0.016c0,0,0,0,0,0.002c0.004,0.006,0.006,0.012,0.01,0.016
			c0.001,0.002,0.001,0.002,0.003,0.003c0.002,0.005,0.006,0.012,0.008,0.018h0.002c0.002,0.007,0.006,0.011,0.01,0.017l0.002,0.002
			c0.002,0.005,0.004,0.012,0.008,0.016v0.002c0.004,0.004,0.007,0.01,0.012,0.018h0.002c0.002,0.006,0.006,0.012,0.01,0.018v0.002
			c0.004,0.005,0.007,0.011,0.011,0.015v0.003c0.004,0.006,0.006,0.01,0.01,0.017l0.002,0.001c0.002,0.005,0.007,0.01,0.009,0.016
			c0,0,0.002,0,0.002,0.002c0.004,0.004,0.006,0.012,0.01,0.018h0.001c0.003,0.006,0.007,0.011,0.009,0.019l0,0
			c0.004,0.006,0.008,0.01,0.01,0.017c0,0,0,0.002,0.003,0.002c0.003,0.006,0.007,0.011,0.009,0.016
			c0.002,0,0.002,0.001,0.002,0.001c0.004,0.005,0.007,0.011,0.01,0.017c0.001,0,0.001,0,0.001,0
			c0.004,0.008,0.008,0.014,0.01,0.018c0,0,0,0,0.002,0.002c0.002,0.005,0.006,0.011,0.009,0.017
			c0.002,0.002,0.002,0.002,0.002,0.002c0.002,0.007,0.006,0.011,0.01,0.017v0.002c0.004,0.005,0.007,0.01,0.01,0.016
			c0,0,0,0,0.002,0c0.002,0.006,0.006,0.012,0.008,0.018c0.002,0,0.002,0,0.002,0.004c0.002,0.004,0.008,0.009,0.012,0.014
			c0,0.001,0,0.001,0,0.002c0.004,0.005,0.006,0.011,0.01,0.02c0,0,0,0,0.002,0c0.002,0.006,0.004,0.01,0.009,0.016c0,0,0,0,0,0.001
			c0.004,0.006,0.008,0.011,0.012,0.017l0,0c0.005,0.006,0.007,0.01,0.011,0.018c0,0.002,0,0.002,0,0.002
			c0.004,0.006,0.006,0.011,0.008,0.016c0.003,0.001,0.003,0.001,0.003,0.002c0.003,0.005,0.007,0.012,0.011,0.018l0,0
			c0.004,0.006,0.006,0.012,0.01,0.018v0.001c0.006,0.006,0.008,0.011,0.012,0.015v0.002c0.004,0.006,0.006,0.01,0.01,0.018
			l0.001,0.002c0.004,0.005,0.008,0.011,0.01,0.015c0.002,0.001,0.002,0.001,0.002,0.002c0.004,0.007,0.006,0.013,0.011,0.019l0,0
			c0.004,0.006,0.008,0.012,0.01,0.017c0,0.001,0,0.001,0,0.001c0.004,0.006,0.008,0.012,0.01,0.016
			c0.001,0.002,0.001,0.002,0.002,0.002c0.002,0.006,0.006,0.012,0.01,0.018c0,0,0,0.002,0,0.003
			c0.004,0.003,0.008,0.009,0.012,0.017c0,0,0,0,0.002,0c0.002,0.006,0.006,0.012,0.008,0.018c0,0,0,0,0.002,0
			c0.002,0.006,0.006,0.011,0.009,0.017l0.001,0.001c0.003,0.006,0.007,0.012,0.011,0.016c0,0,0,0.002,0.002,0.002
			c0.003,0.008,0.007,0.012,0.009,0.018c0,0.001,0.002,0.001,0.002,0.001c0.002,0.005,0.004,0.013,0.009,0.017
			c0,0.002,0.001,0.002,0.001,0.002c0.003,0.008,0.006,0.012,0.01,0.016v0.002c0.004,0.006,0.006,0.011,0.01,0.018h0.002
			c0.004,0.006,0.008,0.012,0.01,0.018c0,0,0,0,0,0.002c0.004,0.004,0.008,0.01,0.011,0.016c0,0,0.001,0,0.001,0.001
			c0.003,0.007,0.006,0.013,0.009,0.017c0.002,0,0.002,0,0.002,0.002c0.004,0.006,0.008,0.012,0.011,0.016l0.002,0.002
			c0.002,0.006,0.006,0.012,0.008,0.018h0.002c0.003,0.004,0.006,0.011,0.01,0.018c0,0,0,0,0,0.002
			c0.003,0.004,0.008,0.01,0.01,0.016c0,0,0.002,0,0.002,0.002c0.002,0.004,0.006,0.01,0.008,0.016c0.004,0,0.004,0,0.004,0.002
			c0.002,0.006,0.006,0.012,0.008,0.016c0.002,0,0.002,0,0.002,0.002c0.003,0.006,0.007,0.01,0.01,0.016l0.001,0.002
			c0.004,0.005,0.006,0.012,0.01,0.018c0.003,0,0.003,0,0.003,0c0.002,0.006,0.006,0.012,0.008,0.018c0,0,0.002,0,0.002,0.002
			c0.002,0.004,0.006,0.01,0.01,0.016c0,0.002,0,0.002,0.001,0.002c0.003,0.006,0.006,0.01,0.009,0.014
			c0.002,0.002,0.002,0.002,0.002,0.002c0.002,0.008,0.006,0.012,0.01,0.019c0,0.002,0,0.002,0,0.002
			c0.002,0.005,0.008,0.011,0.01,0.015l0.002,0.002c0.004,0.006,0.007,0.014,0.01,0.018c0,0,0.001,0,0.001,0.002
			c0.003,0.004,0.006,0.011,0.01,0.016c0,0.002,0,0.002,0.002,0.002c0.003,0.004,0.007,0.01,0.009,0.014
			c0,0.002,0.002,0.004,0.002,0.004c0.004,0.006,0.006,0.011,0.01,0.017l0,0c0.004,0.007,0.007,0.013,0.01,0.017
			c0,0.002,0.001,0.002,0.001,0.002c0.005,0.006,0.007,0.012,0.009,0.018c0.002,0,0.002,0,0.002,0.002
			c0.002,0.004,0.006,0.01,0.008,0.016c0.004,0,0.004,0,0.004,0c0.004,0.006,0.006,0.012,0.01,0.018c0,0,0,0,0,0.002
			c0.005,0.007,0.008,0.011,0.011,0.017h0.001c0.003,0.007,0.007,0.013,0.01,0.017v0.002c0.004,0.008,0.008,0.012,0.012,0.016
			c0,0.002,0,0.002,0,0.002c0.004,0.006,0.008,0.012,0.01,0.018c0,0,0,0,0.002,0c0.002,0.006,0.006,0.012,0.009,0.017
			c0,0.002,0.001,0.002,0.001,0.002c0.004,0.006,0.006,0.013,0.01,0.017v0.001c0.004,0.007,0.008,0.011,0.012,0.019c0,0,0,0,0.002,0
			c0.002,0.006,0.006,0.012,0.008,0.016c0.002,0.002,0.002,0.002,0.002,0.003c0.003,0.005,0.006,0.011,0.009,0.017c0,0,0,0,0.002,0
			c0.003,0.004,0.005,0.013,0.009,0.017c0,0.002,0.002,0.002,0.002,0.002c0.004,0.007,0.006,0.012,0.01,0.017l0.002,0.002
			c0.002,0.004,0.006,0.01,0.009,0.018c0,0,0.001,0,0.002,0.002c0.002,0.004,0.005,0.01,0.009,0.015c0,0.001,0,0.001,0,0.002
			c0.004,0.005,0.006,0.011,0.01,0.015c0,0.002,0,0.002,0.004,0.002c0.002,0.007,0.006,0.013,0.008,0.019h0.002
			c0.004,0.007,0.006,0.011,0.009,0.017c0.001,0,0.001,0,0.001,0c0.003,0.006,0.007,0.014,0.01,0.02h0.002
			c0.002,0.006,0.006,0.011,0.01,0.016c0,0.002,0,0.002,0.002,0.002c0.002,0.006,0.006,0.012,0.008,0.017
			c0.002,0,0.002,0,0.002,0.002c0.004,0.006,0.007,0.012,0.009,0.017l0.001,0.001c0.004,0.007,0.006,0.011,0.01,0.017
			c0,0,0,0,0.002,0c0.002,0.008,0.008,0.014,0.01,0.018c0.002,0,0.002,0.002,0.002,0.002c0.004,0.004,0.006,0.012,0.01,0.018l0,0
			c0.002,0.006,0.006,0.013,0.009,0.017c0.003,0,0.003,0.002,0.003,0.002c0.002,0.004,0.006,0.01,0.01,0.017v0.002
			c0.004,0.004,0.008,0.01,0.012,0.017l0,0c0.004,0.007,0.006,0.011,0.008,0.017c0,0,0.002,0,0.002,0.002
			c0.002,0.006,0.007,0.012,0.01,0.016c0,0.002,0.002,0.002,0.002,0.002c0.002,0.007,0.006,0.011,0.008,0.015
			c0.002,0.002,0.002,0.002,0.002,0.002c0.006,0.008,0.008,0.013,0.012,0.019v0.002c0.004,0.004,0.006,0.009,0.008,0.016
			c0.002,0,0.002,0.002,0.002,0.002c0.004,0.006,0.008,0.012,0.012,0.018l0,0c0.004,0.006,0.006,0.012,0.01,0.017
			c0.001,0,0.002,0,0.002,0.002c0.004,0.004,0.006,0.01,0.008,0.016h0.002c0.004,0.009,0.006,0.013,0.01,0.019h0.001
			c0.003,0.006,0.007,0.011,0.009,0.018c0.002,0,0.002,0.002,0.002,0.002c0.004,0.006,0.007,0.012,0.011,0.018h0.001
			c0.004,0.004,0.006,0.011,0.01,0.017c0,0,0,0,0,0.002c0.004,0.004,0.006,0.01,0.012,0.017c0,0,0,0,0,0.002
			c0.004,0.004,0.008,0.01,0.01,0.015c0,0.001,0.002,0.001,0.002,0.001c0.002,0.008,0.007,0.012,0.008,0.018
			c0.002,0,0.002,0.002,0.002,0.002c0.004,0.004,0.006,0.01,0.01,0.016c0,0,0,0,0,0.002c0.004,0.005,0.008,0.011,0.012,0.017
			c0,0,0,0,0,0.002c0.004,0.004,0.006,0.009,0.01,0.015c0,0.002,0,0.002,0.003,0.002c0.002,0.006,0.005,0.012,0.009,0.018l0,0
			c0.004,0.008,0.006,0.012,0.01,0.018c0,0,0,0,0.002,0c0.002,0.008,0.008,0.012,0.01,0.018c0,0,0.002,0.001,0.002,0.002
			c0.002,0.005,0.006,0.011,0.01,0.015c0,0.002,0,0.002,0,0.002c0.003,0.005,0.006,0.011,0.01,0.019c0,0,0,0,0.002,0
			c0.002,0.007,0.006,0.012,0.008,0.016l0.002,0.002c0.002,0.006,0.006,0.012,0.01,0.018c0,0,0,0,0.002,0
			c0.003,0.008,0.007,0.013,0.009,0.018c0,0,0.001,0,0.001,0.002c0.003,0.005,0.006,0.011,0.01,0.016c0,0.002,0,0.002,0.002,0.002
			c0.002,0.004,0.006,0.012,0.008,0.018c0,0,0.004,0,0.004,0.001c0.002,0.005,0.006,0.01,0.008,0.017c0.002,0,0.002,0,0.002,0
			c0.004,0.006,0.006,0.012,0.009,0.018c0.001,0,0.001,0.002,0.001,0.003c0.004,0.003,0.008,0.009,0.01,0.014
			c0,0.001,0.002,0.001,0.002,0.001c0.002,0.007,0.006,0.014,0.008,0.018c0.002,0.002,0.002,0.002,0.004,0.002
			c0.002,0.006,0.007,0.011,0.009,0.017v0.001c0.004,0.006,0.008,0.012,0.011,0.018c0,0,0,0,0.001,0
			c0.003,0.006,0.007,0.012,0.009,0.018c0.002,0,0.002,0.001,0.002,0.001c0.002,0.005,0.008,0.011,0.012,0.016
			c0,0.002,0,0.002,0,0.002c0.004,0.007,0.006,0.013,0.01,0.017c0,0,0,0,0.001,0c0.003,0.007,0.006,0.013,0.009,0.019l0.002,0.001
			c0.002,0.006,0.006,0.01,0.01,0.016v0.002c0.004,0.006,0.006,0.011,0.01,0.018l0.002,0.001c0.003,0.005,0.005,0.012,0.01,0.017
			c0,0.002,0.001,0.002,0.001,0.002c0.003,0.004,0.006,0.01,0.009,0.017c0.002,0,0.002,0,0.002,0
			c0.004,0.006,0.006,0.012,0.012,0.019l0,0c0.004,0.004,0.006,0.01,0.008,0.016c0.002,0,0.002,0.002,0.002,0.002
			c0.004,0.007,0.007,0.011,0.01,0.018c0,0,0.001,0,0.001,0.001c0.004,0.005,0.007,0.011,0.011,0.017c0,0,0,0,0,0.002
			c0.004,0.004,0.006,0.011,0.01,0.015c0,0.002,0,0.002,0,0.002c0.004,0.006,0.008,0.011,0.011,0.017l0.002,0.002
			c0.002,0.004,0.007,0.01,0.009,0.017c0.001,0,0.002,0.002,0.002,0.002c0.003,0.006,0.006,0.011,0.01,0.016l0,0
			c0.004,0.007,0.01,0.013,0.012,0.019c0,0,0,0,0,0.002c0.004,0.005,0.006,0.011,0.01,0.015c0,0,0,0,0.002,0.002
			c0.002,0.005,0.006,0.011,0.009,0.017c0.001,0,0.001,0.002,0.001,0.002c0.003,0.007,0.008,0.011,0.01,0.017c0,0,0,0,0.002,0
			c0.002,0.006,0.004,0.013,0.008,0.019c0,0,0,0,0.003,0c0.002,0.006,0.006,0.012,0.01,0.019c0,0,0.001,0,0.001,0.002
			c0.003,0.004,0.006,0.008,0.009,0.015c0.001,0,0.001,0.002,0.002,0.002c0.003,0.004,0.007,0.01,0.009,0.016l0,0
			c0.006,0.007,0.008,0.013,0.012,0.019c0,0,0,0,0.002,0c0.002,0.006,0.006,0.013,0.009,0.019c0.001,0,0.001,0,0.002,0.002
			c0.003,0.004,0.005,0.01,0.009,0.015c0,0.002,0.002,0.002,0.002,0.002c0.002,0.006,0.004,0.01,0.008,0.017c0,0,0,0,0.002,0.002
			c0.002,0.004,0.007,0.01,0.011,0.017l0,0c0.004,0.006,0.007,0.012,0.01,0.018c0.001,0,0.001,0,0.002,0
			c0.003,0.007,0.007,0.013,0.009,0.017c0,0.002,0.002,0.002,0.002,0.002c0.002,0.006,0.008,0.013,0.01,0.017
			c0,0.002,0.002,0.002,0.002,0.002c0.002,0.004,0.006,0.011,0.008,0.017c0.002,0,0.002,0,0.002,0
			c0.004,0.006,0.007,0.013,0.01,0.018l0.001,0.001c0.003,0.006,0.007,0.013,0.009,0.019h0.002c0.002,0.006,0.006,0.012,0.009,0.018
			c0.002,0,0.002,0,0.002,0c0.002,0.006,0.008,0.013,0.011,0.017c0,0.003,0.001,0.003,0.001,0.003
			c0.003,0.004,0.006,0.01,0.009,0.017c0.002,0,0.002,0,0.002,0c0.002,0.006,0.004,0.012,0.008,0.018h0.004
			c0.002,0.007,0.006,0.011,0.01,0.017v0.002c0.004,0.006,0.007,0.012,0.01,0.016c0.001,0.002,0.001,0.002,0.002,0.003
			c0.002,0.006,0.006,0.01,0.008,0.017c0,0,0,0,0.002,0c0.002,0.006,0.006,0.013,0.008,0.019c0.002,0,0.002,0,0.002,0
			c0.005,0.007,0.007,0.011,0.011,0.016v0.003c0.005,0.006,0.008,0.01,0.012,0.018l0,0c0.003,0.006,0.007,0.01,0.009,0.016
			l0.002,0.001c0.004,0.007,0.006,0.013,0.01,0.019c0.002,0,0.002,0,0.002,0c0.004,0.007,0.006,0.013,0.01,0.017c0,0,0,0,0,0.002
			c0.005,0.005,0.008,0.01,0.01,0.017l0.001,0.002c0.003,0.006,0.007,0.012,0.011,0.018l0,0c0.004,0.004,0.006,0.011,0.011,0.016
			v0.002c0.004,0.006,0.008,0.012,0.01,0.019c0.002,0,0.002,0,0.003,0c0.003,0.004,0.005,0.01,0.008,0.017
			c0.002,0,0.002,0.001,0.002,0.001c0.004,0.005,0.006,0.011,0.01,0.017v0.002c0.006,0.004,0.008,0.01,0.012,0.016
			c0,0,0,0,0.002,0.002c0.002,0.004,0.006,0.012,0.008,0.016c0,0.002,0.002,0.002,0.002,0.004c0.002,0.004,0.005,0.011,0.01,0.015
			c0,0,0,0,0,0.002c0.004,0.006,0.006,0.01,0.01,0.017c0,0,0,0,0.003,0.002c0.002,0.004,0.006,0.01,0.008,0.016h0.002
			c0.002,0.006,0.005,0.014,0.009,0.018c0.001,0,0.001,0,0.002,0c0.004,0.008,0.006,0.012,0.01,0.018v0.002
			c0.004,0.006,0.008,0.011,0.012,0.017c0,0,0,0,0.002,0.002c0.002,0.004,0.006,0.011,0.008,0.017h0.002
			c0.002,0.004,0.005,0.012,0.009,0.018h0.001c0.004,0.006,0.006,0.014,0.01,0.02c0,0,0,0,0.002,0
			c0.002,0.004,0.007,0.01,0.009,0.016c0,0.002,0.002,0.002,0.002,0.002c0.002,0.007,0.004,0.011,0.008,0.017c0,0,0,0,0.003,0.002
			c0.002,0.005,0.006,0.011,0.01,0.017l0,0c0.004,0.006,0.008,0.012,0.01,0.018h0.002c0.004,0.008,0.008,0.012,0.01,0.018
			c0.002,0,0.002,0,0.002,0c0.002,0.006,0.006,0.014,0.008,0.018c0,0.003,0.002,0.003,0.002,0.003
			c0.003,0.006,0.006,0.01,0.01,0.014c0,0.003,0,0.003,0.002,0.003c0.002,0.006,0.006,0.012,0.009,0.018c0.002,0,0.002,0,0.002,0
			c0.002,0.006,0.006,0.012,0.008,0.016c0,0,0,0.002,0.002,0.002c0.002,0.006,0.007,0.012,0.009,0.018c0.002,0,0.002,0,0.004,0
			c0.002,0.007,0.006,0.012,0.008,0.019h0.002c0.002,0.006,0.006,0.013,0.01,0.017c0,0.002,0,0.002,0.002,0.002
			c0.004,0.006,0.006,0.012,0.008,0.017c0.002,0,0.002,0.001,0.002,0.001c0.002,0.004,0.006,0.01,0.01,0.016
			c0,0,0,0.002,0.002,0.002c0.002,0.008,0.006,0.012,0.008,0.018c0.002,0.001,0.002,0.001,0.002,0.001
			c0.004,0.005,0.007,0.012,0.009,0.018h0.002c0.002,0.007,0.006,0.013,0.008,0.019c0.003,0,0.003,0,0.003,0
			c0.002,0.004,0.004,0.007,0.006,0.011V29.022H120.09v18.955h15.016C135.104,47.979,135.1,47.977,135.098,47.977z"/>
		<g id="svg_10">
			<path id="svg_11" fill="#FFFFFF" d="M123.172,44.293c-0.029-0.256,0.061-0.474,0.197-0.686c0.41-0.627,0.813-1.261,1.221-1.893
				c0.131-0.203,0.26-0.403,0.386-0.607c0.182-0.298,0.581-0.402,0.871-0.322c0.27,0.072,0.54,0.141,0.805,0.225
				c0.196,0.063,0.348,0.021,0.479-0.137c0.271-0.32,0.494-0.672,0.659-1.059c0.137-0.321,0.268-0.646,0.381-0.976
				c0.109-0.319,0.205-0.645,0.287-0.968c0.191-0.745,0.304-1.499,0.239-2.27c-0.011-0.13-0.042-0.263-0.092-0.383
				c-0.028-0.064-0.108-0.13-0.179-0.151c-0.322-0.101-0.648-0.194-0.979-0.273c-0.414-0.099-0.696-0.536-0.683-0.958
				c0.021-0.507,0.021-1.016,0.033-1.525c0.016-0.499,0.02-1,0.047-1.5c0.011-0.133,0.102-0.262,0.153-0.394
				c0.094-0.054,0.189-0.108,0.286-0.163c0.192-0.033,0.374,0.019,0.559,0.071c0.734,0.208,1.474,0.405,2.205,0.616
				c0.155,0.045,0.309,0.125,0.446,0.209c0.105,0.063,0.191,0.159,0.287,0.24c0.1,0.176,0.199,0.354,0.299,0.53
				c0.006,0.026,0.008,0.055,0.018,0.079c0.063,0.149,0.142,0.294,0.189,0.447c0.203,0.614,0.31,1.251,0.351,1.896
				c0.041,0.674,0.043,1.352-0.047,2.021c-0.08,0.588-0.168,1.177-0.289,1.758c-0.099,0.464-0.249,0.916-0.374,1.374
				c-0.151,0.563-0.354,1.105-0.585,1.641c-0.394,0.907-0.856,1.773-1.468,2.557c-0.286,0.364-0.6,0.702-0.952,1.003
				c-0.127,0.106-0.253,0.22-0.38,0.329c-0.22,0.124-0.438,0.249-0.661,0.372c-0.013-0.002-0.023-0.008-0.031-0.006
				c-0.26,0.088-0.52,0.088-0.781,0.016c-0.742-0.208-1.484-0.415-2.231-0.618c-0.186-0.05-0.36-0.106-0.519-0.229
				C123.272,44.469,123.223,44.383,123.172,44.293z"/>
		</g>
	</g>
</g>
</svg>
