<?xml version="1.0" encoding="iso-8859-1"?>
<!-- Generator: Adobe Illustrator 19.0.0, SVG Export Plug-In . SVG Version: 6.00 Build 0)  -->
<svg version="1.1" id="Capa_1" xmlns="http://www.w3.org/2000/svg" xmlns:xlink="http://www.w3.org/1999/xlink" x="0px" y="0px"
	 viewBox="0 0 480 480" style="enable-background:new 0 0 480 480;" xml:space="preserve">
<linearGradient id="SVGID_1_" gradientUnits="userSpaceOnUse" x1="-26.875" y1="556.692" x2="-26.875" y2="616.692" gradientTransform="matrix(8 0 0 -8 454.9998 4941)">
	<stop  offset="0" style="stop-color:#006DF0"/>
	<stop  offset="1" style="stop-color:#00E7F0"/>
</linearGradient>
<path style="fill:url(#SVGID_1_);" d="M472,0H88c-4.418,0-8,3.582-8,8v64H8c-4.418,0-8,3.582-8,8v280c0,4.418,3.582,8,8,8h72v104
	c-0.001,3.235,1.947,6.153,4.936,7.392c0.971,0.405,2.012,0.611,3.064,0.608c2.122,0,4.156-0.844,5.656-2.344L203.312,368H392
	c4.418,0,8-3.582,8-8v-64h72c4.418,0,8-3.582,8-8V8C480,3.582,476.418,0,472,0z M384,352H200c-2.122,0-4.156,0.844-5.656,2.344
	L96,452.688V360c0-4.418-3.582-8-8-8H16V88h368V352z M464,280h-64V80c0-4.418-3.582-8-8-8H96V16h368V280z"/>
<g>
</g>
<g>
</g>
<g>
</g>
<g>
</g>
<g>
</g>
<g>
</g>
<g>
</g>
<g>
</g>
<g>
</g>
<g>
</g>
<g>
</g>
<g>
</g>
<g>
</g>
<g>
</g>
<g>
</g>
</svg>
