<?xml version="1.0" encoding="utf-8"?>
<!-- Generator: Adobe Illustrator 16.0.0, SVG Export Plug-In . SVG Version: 6.00 Build 0)  -->
<!DOCTYPE svg PUBLIC "-//W3C//DTD SVG 1.1//EN" "http://www.w3.org/Graphics/SVG/1.1/DTD/svg11.dtd">
<svg version="1.1" id="Layer_1" xmlns="http://www.w3.org/2000/svg" xmlns:xlink="http://www.w3.org/1999/xlink" x="0px" y="0px"
	 width="1036px" height="686px" viewBox="0 0 1036 686" enable-background="new 0 0 1036 686" xml:space="preserve">
<metadata><?xpacket begin="﻿" id="W5M0MpCehiHzreSzNTczkc9d"?>
<x:xmpmeta xmlns:x="adobe:ns:meta/" x:xmptk="Adobe XMP Core 5.3-c011 66.145661, 2012/02/06-14:56:27        ">
   <rdf:RDF xmlns:rdf="http://www.w3.org/1999/02/22-rdf-syntax-ns#">
      <rdf:Description rdf:about=""
            xmlns:xmp="http://ns.adobe.com/xap/1.0/"
            xmlns:xmpGImg="http://ns.adobe.com/xap/1.0/g/img/">
         <xmp:CreatorTool>Adobe Illustrator CS6 (Windows)</xmp:CreatorTool>
         <xmp:CreateDate>2018-09-03T14:07:51-04:00</xmp:CreateDate>
         <xmp:Thumbnails>
            <rdf:Alt>
               <rdf:li rdf:parseType="Resource">
                  <xmpGImg:width>256</xmpGImg:width>
                  <xmpGImg:height>172</xmpGImg:height>
                  <xmpGImg:format>JPEG</xmpGImg:format>
                  <xmpGImg:image>/9j/4AAQSkZJRgABAgEAYABgAAD/7QAsUGhvdG9zaG9wIDMuMAA4QklNA+0AAAAAABAAYAAAAAEA&#xA;AQBgAAAAAQAB/+4ADkFkb2JlAGTAAAAAAf/bAIQABgQEBAUEBgUFBgkGBQYJCwgGBggLDAoKCwoK&#xA;DBAMDAwMDAwQDA4PEA8ODBMTFBQTExwbGxscHx8fHx8fHx8fHwEHBwcNDA0YEBAYGhURFRofHx8f&#xA;Hx8fHx8fHx8fHx8fHx8fHx8fHx8fHx8fHx8fHx8fHx8fHx8fHx8fHx8fHx8f/8AAEQgArAEAAwER&#xA;AAIRAQMRAf/EAaIAAAAHAQEBAQEAAAAAAAAAAAQFAwIGAQAHCAkKCwEAAgIDAQEBAQEAAAAAAAAA&#xA;AQACAwQFBgcICQoLEAACAQMDAgQCBgcDBAIGAnMBAgMRBAAFIRIxQVEGE2EicYEUMpGhBxWxQiPB&#xA;UtHhMxZi8CRygvElQzRTkqKyY3PCNUQnk6OzNhdUZHTD0uIIJoMJChgZhJRFRqS0VtNVKBry4/PE&#xA;1OT0ZXWFlaW1xdXl9WZ2hpamtsbW5vY3R1dnd4eXp7fH1+f3OEhYaHiImKi4yNjo+Ck5SVlpeYmZ&#xA;qbnJ2en5KjpKWmp6ipqqusra6voRAAICAQIDBQUEBQYECAMDbQEAAhEDBCESMUEFURNhIgZxgZEy&#xA;obHwFMHR4SNCFVJicvEzJDRDghaSUyWiY7LCB3PSNeJEgxdUkwgJChgZJjZFGidkdFU38qOzwygp&#xA;0+PzhJSktMTU5PRldYWVpbXF1eX1RlZmdoaWprbG1ub2R1dnd4eXp7fH1+f3OEhYaHiImKi4yNjo&#xA;+DlJWWl5iZmpucnZ6fkqOkpaanqKmqq6ytrq+v/aAAwDAQACEQMRAD8A9UKoUUHTFXMoalexrire&#xA;KtBQCSOp64q2QCCD0OKuAAAA6DFWioLBu46Yq3irSqF6dzXFXMoYUPTFW8Va4jly7nbFW8VaVQoA&#xA;HQYq4qCQT1HTFW8Va4jly70pireKtKoUUHTFXMoNK9jUYq3irQUAkjqeuKtkAgg9DirgAAAOgxVo&#xA;qCwbuOmKt4q0qhRQfPFXMoYUPTFW8Va4jkW7nFWyKimKuUBQAOgxVzVoade2KuFab9e+KtfFyG3w&#xA;9zireKtLyp8VK+2KublT4RU++Kt4q0OXI1px7HFWzWm3XtirhWgr174q0eVRTp3xVvFWl5b1p12p&#xA;4Yq5uVPh3PvireKtfFy7cade9cVbxVocqmtKdsVc3Kh47ntXFW8Va+Ll2406964q3irS8qfEKH2x&#xA;VzctuNDvvXwxVvFWhyqa0p2xVs1oade2KuFaCvXvirR5VFBt3xVvFWl5b8h32p4Yq5uVPh3Pvirl&#xA;YMKg1GKuLAUqaV2GKt4q0GBJAO464q2SAKnoMVcCCKjocVaLAEAnc9BireKtBgehr2xVzMFFSaDF&#xA;W8Va5DlxruN6Yq3irgQRUbg4q0WAIBO56Yq3irXIcuNd+tMVbxVpWDCoNRiriwFKmldhireKtBgS&#xA;QDuOoxVskAVPQYq4EEVHQ4q1yFQtdz0GKt4q0GDCoNe2KuZgoqTQYq3irXIcitdx1GKtk0FTirgQ&#xA;RUbg4q7FXUxV2KupirsVdirqYq7FXYq7FXYq7FXYq7FXYq7FXU798VdirqUxV1MVdirsVdirsVdi&#xA;rsVdirsVdirsVdirsVcQSCAaHxxVw6Yq1Q8ga7eGKt4q0oIFCa++KuYEjY098VbxVoA8ia7HoMVb&#xA;PTw98VcBQAE198VaIJINaAdR44q3irSgitTWpxVzAkUBofHFW8VaoeVa7U6Yq3irQBBJrWvQeGKu&#xA;YEggGh8cVbxVqh5VrtTpireKtKCBua++KuYE0oab4q3irQB5E1qD28MVbIqCAae+KuAoACa++KtE&#xA;EkGtAOo8cVbxVpQRWprU4q5gSKA0PjirlJIqRT2OKuY0psTU02xVvFWgakihFO/jirZNAT19sVcD&#xA;UA0p7Yq0TRgKHfvireKtKSa1BG9N8VcxoK0J9hireKtV+KlD069sVbxVpTUA0pXscVcTQgUJr38M&#xA;VbxVqvxUoela9sVbxVpTUVpT2OKuY0psTU02xVvFWgSSRSlO/jirZNATStO2KuBqAentirRPxAUO&#xA;/ftireKtKSR0I+eKuY0FaE+wxVvFWqnkRTYd8VbPTFXKagGlK9jirsVdirsVdirsVdirsVdirsVd&#xA;irsVdirsVdirsVdirsVdirsVdirsVdirsVdirsVdirsVdirsVdirsVdiriAQQehxVwFBQdMVa4jk&#xA;G7jYYq3irSqFFAKDFXMoYUO/fFW8VaCgMW7nrirZAIoehxVwAAAHQYq0VBIJ6jpireKtBVFaCldz&#xA;irmUMKHcYq3irXEcuXelK4q3irQUAkgbnrirbKGBB6HFXDbFWuI5cqb9K4q3irSqFFAKDFXMobrv&#xA;Q1xVvFWgqgkgbnqcVbIBBB6HFXAAAAdBirRUEgnqOmKt4q0FArQdTU4q5lDCh3GKuXlT4qV9sVc3&#xA;LbjTrvXwxVvFWhyqa0p2xVs1oade2KuFaCvXvirR5chSnHvireKtLy35U67U8MVc3Knw0r74q3ir&#xA;Xxcj049vGuKtn264q0vKg5de9MVceVRSlO+Kt4q18XLtxp9NcVbxVpeVPipX2xVzctuNOu9fDFW8&#xA;VaHKprSnbFWzWhp17Yq4VoK9e+KtHlyFKce/jireKtLyp8VK+2KublT4aV98VbxVr4uR6ce3jirZ&#xA;rTbr2xVy1oOXXvTFXMQoJPQYq4GoqMVa5DkF7ncYq3irSsGFR0xVzMFFTt2xVvFWgwLFe464q2SA&#xA;KnoMVcCCAR0OKtFgCAep6Yq3irQYGtOxocVczBRU7DFW8Va5Dlx70rTFW8VaDAkgdR1xVtmCgk9B&#xA;irhvirXIcuPfrireKtKwYVG4xVzMF67VNMVbxVoMCSB1HXFWyQASegxVwIIBHQ4q0WAIB6npireK&#xA;tBga07GhxVzMFFTsMVbxV2KuxV2KuxV2KuxV2KuxV2KuxV2KuxV2KuxV2KuxV2KuxV2KuxV2KuxV&#xA;2KuxV2KuxV2KuxV2KuxV2KtKCBQmvucVcwJpQ0oa7Yq3irQBBJrWvbwxVsioIrT3xVwFABWvvirR&#xA;B5A1oB28cVbxVpQRWpJ3rvirmBIoDT3GKt4q1Q8q12p0xVvFWlBAAJrTucVcQSQa0p1HjireKtUP&#xA;KtdqdMVbxVpQQKE19zirmBNKGlDXFW8VaAIJNa17eGKtkVBFae+KuAoAK198VaIPIGuw7Yq3irSg&#xA;gUJr88VcwJFAae4xVvFWqHkTXY9sVbPTFXKCAATWnfFXMSASBWnbFXDpirVTyApse+Kt4q0pJFSK&#xA;exxVzEgVAr8sVbxVoE8iKbDvirZNATSvtirgagGlPbFWiSCBSte/hireKtKSa1FKGmKuYkCoFfYY&#xA;q3irVTypTanXFW8VaBJJFKU6HxxVzEgEgVp2GKt4q1U8qU2p1xVvFWlJIqRT2OKuYkUoCd6bYq3i&#xA;rQJ5EUoB38cVbJoCaV9sVcDUA0p7Yq0SQQKVr38MVbxVpSTWopQ03xVzEgVAr7DFW8VdirsVdirs&#xA;VdirsVdirsVdirsVdirsVdirsVdirsVdirsVdirsVdirsVdirsVdirsVdirsVdirsVdirSqFFAKD&#xA;FXFQaVFabjFW8VaCgEkDc9cVbIBFD0OKuAAFB0GKtFVJBI3HQ4q3irSqF6Cld8VcyhhQioxVvFWu&#xA;I5cqb9K4q3irgAAANgMVaKgkEjcdMVbxVriOXKm/SuKt4q0qhRQCgxVxVTSorTcYq3irQUAkgbnq&#xA;cVbIBBB6HFXAACg6DFWioJDU3HQ4q3irSqFFAKDFXMoYUIqMVbxVriORam56nFWyKih6Yq4AAADY&#xA;DFXNWh49e1cVcK0364q18XIdOPfxxVvFWl5U+KlfbFXNyp8NK++Kt4q0OXI1px7eOKtmtDTr2xVw&#xA;rQV698VaPKopSnfFW8VaXlvyp12p4Yq5uVPhpX3xVvFWvi5duNPprireKtDlU1pTtirm5UPHr2ri&#xA;rY9+uKtfFy7cab+NcVbxVpeVPipX2xVzctuNOu9fDFW8VaHLka049sVbNaGnXtirhWgr174q0eVR&#xA;SlO+Kt4q0vLflTrtTwxVzcqfDSvvirlYMKjpirmYLSvc0GKt4q0GBJA6jrirZIAJPQYq4EEAjocV&#xA;aLAEA9T0xVvFWlYNWnY0xVzMFFT0xVvFWuQ5ce/XFWztirSsGAI6HFXFgCAep6Yq3irXIcuPelcV&#xA;bxVpWDCo6Yq4sBSvc0GKt4q0GBJA6jrirZIAJPQYq4GoqOhxVosAwXuemKt4q0rBhUfLFXMwUVPT&#xA;FW8Va5DkV7jfFWyaCpxVwIIBHQ4q7FXYq7FXYq7FXYq7FXYq7FXYq7FXYq7FXYq7FXYq7FXYq7FX&#xA;Yq7FXYq7FXYq7FXYq7FXYq7FXYq7FXYq5hUEVpXuMVcNhTFWuPxA1O3btireKtKvEUqT88Vcy1FK&#xA;kfLFW8VaC/ETU79u2KtkVBHSuKuAoAOtO+KtFakGp27Yq3irSrSu5NTXfFXMKilSPcYq3irVPirU&#xA;9KU7Yq3irQWhJqTXFXMKgitK9xireKtcfiDVPhTtireKtKvEUqT88Vcy1puRQ12xVvFWgtGJqd+2&#xA;KtkVBHSvfFXAUAHWmKtFakGp27Yq3irSrSu5NTXfFXMtRSpHuMVcpJFSKHwxVzEilBXffFW8VaBN&#xA;SCKAdD44q2agGgqfDFXCpAqKHwxVok8gKVB6nwxVvFWlJNaim+KuYkDYVPhireKtVPKlNqdcVbOK&#xA;tKSQCRQ+GKuJIIAFQep8MVbxVqp5UptTrireKtKSRUih8MVcSRSgrvvireKtAmpBFAOh8cVbJIBI&#xA;FT4Yq4dN9j4Yq0SeQFNj1OKt4q0pJG4pirmJAqBU+GKt4q1U8iKbeOKtnp44q4EkAkUPhiriQNz0&#xA;xV2KuqK074q7FXAg9N8VcSB1xV2KuqK074q7FXdcVdUdMVdirgQemKuJA3O2KuxV1RWnfwxV2Kuq&#xA;Pu64q4kDc4q7FXVFad/DFXYq4EHpviriQOuKuxV1RWncYq7FXYq6o6ePTFXYq4EHpiriQOuKtNx4&#xA;nl9nvXFWxSgp07Yq0eHMVpypt8sVbxVpOFPhpT2xVzcKDlSldq+OKt4q0OHI0py7+OKtmlDXp3xV&#xA;pacRx6dsVceHJa05fs4q3irS8N+NOu9PHFXPx4/FSnvireKtfBz7cqfTTFW8VaXhU0pX9rFXNx4n&#xA;l9nvXFWxSm3TFWvg5jpypt40xVvFWk4U+GlPbFXNwoOVKV2r44q3irQ4cjSnLvirmpxPLp3xVsUo&#xA;KdO2KtHhyFacv2cVbxVpeG/GnXenjirn48fipT3xV//Z</xmpGImg:image>
               </rdf:li>
            </rdf:Alt>
         </xmp:Thumbnails>
      </rdf:Description>
      <rdf:Description rdf:about=""
            xmlns:xmpTPg="http://ns.adobe.com/xap/1.0/t/pg/"
            xmlns:stDim="http://ns.adobe.com/xap/1.0/sType/Dimensions#"
            xmlns:xmpG="http://ns.adobe.com/xap/1.0/g/">
         <xmpTPg:MaxPageSize rdf:parseType="Resource">
            <stDim:w>1036.000000</stDim:w>
            <stDim:h>686.000000</stDim:h>
            <stDim:unit>Points</stDim:unit>
         </xmpTPg:MaxPageSize>
         <xmpTPg:NPages>1</xmpTPg:NPages>
         <xmpTPg:HasVisibleTransparency>True</xmpTPg:HasVisibleTransparency>
         <xmpTPg:HasVisibleOverprint>False</xmpTPg:HasVisibleOverprint>
         <xmpTPg:PlateNames>
            <rdf:Seq>
               <rdf:li>Cyan</rdf:li>
               <rdf:li>Magenta</rdf:li>
               <rdf:li>Yellow</rdf:li>
            </rdf:Seq>
         </xmpTPg:PlateNames>
         <xmpTPg:SwatchGroups>
            <rdf:Seq>
               <rdf:li rdf:parseType="Resource">
                  <xmpG:groupName>Default Swatch Group</xmpG:groupName>
                  <xmpG:groupType>0</xmpG:groupType>
               </rdf:li>
            </rdf:Seq>
         </xmpTPg:SwatchGroups>
      </rdf:Description>
      <rdf:Description rdf:about=""
            xmlns:dc="http://purl.org/dc/elements/1.1/">
         <dc:format>image/svg+xml</dc:format>
      </rdf:Description>
   </rdf:RDF>
</x:xmpmeta>
                                                                                                    
                                                                                                    
                                                                                                    
                                                                                                    
                                                                                                    
                                                                                                    
                                                                                                    
                                                                                                    
                                                                                                    
                                                                                                    
                                                                                                    
                                                                                                    
                                                                                                    
                                                                                                    
                                                                                                    
                                                                                                    
                                                                                                    
                                                                                                    
                                                                                                    
                                                                                                    
                           
<?xpacket end="w"?>
	</metadata>
<g opacity="0.5">
	<g>
		<circle fill="#E6E7E8" cx="5" cy="366" r="5"/>
		<circle id="Ellipse_1_copy" fill="#E6E7E8" cx="57" cy="366" r="5"/>
		<circle id="Ellipse_1_copy_2" fill="#E6E7E8" cx="109" cy="366" r="5"/>
		<circle id="Ellipse_1_copy_3" fill="#E6E7E8" cx="162" cy="366" r="5"/>
		<circle id="Ellipse_1_copy_4" fill="#E6E7E8" cx="214" cy="366" r="5"/>
		<circle id="Ellipse_1_copy_5" fill="#E6E7E8" cx="266" cy="366" r="5"/>
		<circle id="Ellipse_1_copy_6" fill="#E6E7E8" cx="318" cy="366" r="5"/>
		<circle id="Ellipse_1_copy_7" fill="#E6E7E8" cx="371" cy="366" r="5"/>
		<circle id="Ellipse_1_copy_8" fill="#E6E7E8" cx="423" cy="366" r="5"/>
		<circle id="Ellipse_1_copy_9" fill="#E6E7E8" cx="475" cy="366" r="5"/>
	</g>
	<g>
		<circle id="Ellipse_1_copy_10" fill="#E6E7E8" cx="31" cy="411" r="5"/>
		<circle id="Ellipse_1_copy_10-2" fill="#E6E7E8" cx="83" cy="411" r="5"/>
		<circle id="Ellipse_1_copy_10-3" fill="#E6E7E8" cx="135" cy="411" r="5"/>
		<circle id="Ellipse_1_copy_10-4" fill="#E6E7E8" cx="188" cy="411" r="5"/>
		<circle id="Ellipse_1_copy_10-5" fill="#E6E7E8" cx="240" cy="411" r="5"/>
		<circle id="Ellipse_1_copy_10-6" fill="#E6E7E8" cx="292" cy="411" r="5"/>
		<circle id="Ellipse_1_copy_10-7" fill="#E6E7E8" cx="344" cy="411" r="5"/>
		<circle id="Ellipse_1_copy_10-8" fill="#E6E7E8" cx="397" cy="411" r="5"/>
		<circle id="Ellipse_1_copy_10-9" fill="#E6E7E8" cx="449" cy="411" r="5"/>
		<circle id="Ellipse_1_copy_10-10" fill="#E6E7E8" cx="501" cy="411" r="5"/>
	</g>
	<g>
		<circle id="Ellipse_1_copy_11" fill="#E6E7E8" cx="5" cy="456" r="5"/>
		<circle id="Ellipse_1_copy_11-2" fill="#E6E7E8" cx="57" cy="456" r="5"/>
		<circle id="Ellipse_1_copy_11-3" fill="#E6E7E8" cx="109" cy="456" r="5"/>
		<circle id="Ellipse_1_copy_11-4" fill="#E6E7E8" cx="162" cy="456" r="5"/>
		<circle id="Ellipse_1_copy_11-5" fill="#E6E7E8" cx="214" cy="456" r="5"/>
		<circle id="Ellipse_1_copy_11-6" fill="#E6E7E8" cx="266" cy="456" r="5"/>
		<circle id="Ellipse_1_copy_11-7" fill="#E6E7E8" cx="318" cy="456" r="5"/>
		<circle id="Ellipse_1_copy_11-8" fill="#E6E7E8" cx="371" cy="456" r="5"/>
		<circle id="Ellipse_1_copy_11-9" fill="#E6E7E8" cx="423" cy="456" r="5"/>
		<circle id="Ellipse_1_copy_11-10" fill="#E6E7E8" cx="475" cy="456" r="5"/>
	</g>
	<g>
		<circle id="Ellipse_1_copy_12" fill="#E6E7E8" cx="31" cy="501" r="5"/>
		<circle id="Ellipse_1_copy_12-2" fill="#E6E7E8" cx="83" cy="501" r="5"/>
		<circle id="Ellipse_1_copy_12-3" fill="#E6E7E8" cx="135" cy="501" r="5"/>
		<circle id="Ellipse_1_copy_12-4" fill="#E6E7E8" cx="188" cy="501" r="5"/>
		<circle id="Ellipse_1_copy_12-5" fill="#E6E7E8" cx="240" cy="501" r="5"/>
		<circle id="Ellipse_1_copy_12-6" fill="#E6E7E8" cx="292" cy="501" r="5"/>
		<circle id="Ellipse_1_copy_12-7" fill="#E6E7E8" cx="344" cy="501" r="5"/>
		<circle id="Ellipse_1_copy_12-8" fill="#E6E7E8" cx="397" cy="501" r="5"/>
		<circle id="Ellipse_1_copy_12-9" fill="#E6E7E8" cx="449" cy="501" r="5"/>
		<circle id="Ellipse_1_copy_12-10" fill="#E6E7E8" cx="501" cy="501" r="5"/>
	</g>
	<g id="Group_4_copy">
		<circle fill="#E6E7E8" cx="5" cy="546" r="5"/>
		<circle id="Ellipse_1_copy-2" fill="#E6E7E8" cx="57" cy="546" r="5"/>
		<circle id="Ellipse_1_copy_2-2" fill="#E6E7E8" cx="109" cy="546" r="5"/>
		<circle id="Ellipse_1_copy_3-2" fill="#E6E7E8" cx="162" cy="546" r="5"/>
		<circle id="Ellipse_1_copy_4-2" fill="#E6E7E8" cx="214" cy="546" r="5"/>
		<circle id="Ellipse_1_copy_5-2" fill="#E6E7E8" cx="266" cy="546" r="5"/>
		<circle id="Ellipse_1_copy_6-2" fill="#E6E7E8" cx="318" cy="546" r="5"/>
		<circle id="Ellipse_1_copy_7-2" fill="#E6E7E8" cx="371" cy="546" r="5"/>
		<circle id="Ellipse_1_copy_8-2" fill="#E6E7E8" cx="423" cy="546" r="5"/>
		<circle id="Ellipse_1_copy_9-2" fill="#E6E7E8" cx="475" cy="546" r="5"/>
	</g>
	<g id="Group_3_copy">
		<circle id="Ellipse_1_copy_10-11" fill="#E6E7E8" cx="31" cy="591" r="5"/>
		<circle id="Ellipse_1_copy_10-12" fill="#E6E7E8" cx="83" cy="591" r="5"/>
		<circle id="Ellipse_1_copy_10-13" fill="#E6E7E8" cx="135" cy="591" r="5"/>
		<circle id="Ellipse_1_copy_10-14" fill="#E6E7E8" cx="188" cy="591" r="5"/>
		<circle id="Ellipse_1_copy_10-15" fill="#E6E7E8" cx="240" cy="591" r="5"/>
		<circle id="Ellipse_1_copy_10-16" fill="#E6E7E8" cx="292" cy="591" r="5"/>
		<circle id="Ellipse_1_copy_10-17" fill="#E6E7E8" cx="344" cy="591" r="5"/>
		<circle id="Ellipse_1_copy_10-18" fill="#E6E7E8" cx="397" cy="591" r="5"/>
		<circle id="Ellipse_1_copy_10-19" fill="#E6E7E8" cx="449" cy="591" r="5"/>
		<circle id="Ellipse_1_copy_10-20" fill="#E6E7E8" cx="501" cy="591" r="5"/>
	</g>
	<g id="Group_2_copy">
		<circle id="Ellipse_1_copy_11-11" fill="#E6E7E8" cx="5" cy="636" r="5"/>
		<circle id="Ellipse_1_copy_11-12" fill="#E6E7E8" cx="57" cy="636" r="5"/>
		<circle id="Ellipse_1_copy_11-13" fill="#E6E7E8" cx="109" cy="636" r="5"/>
		<circle id="Ellipse_1_copy_11-14" fill="#E6E7E8" cx="162" cy="636" r="5"/>
		<circle id="Ellipse_1_copy_11-15" fill="#E6E7E8" cx="214" cy="636" r="5"/>
		<circle id="Ellipse_1_copy_11-16" fill="#E6E7E8" cx="266" cy="636" r="5"/>
		<circle id="Ellipse_1_copy_11-17" fill="#E6E7E8" cx="318" cy="636" r="5"/>
		<circle id="Ellipse_1_copy_11-18" fill="#E6E7E8" cx="371" cy="636" r="5"/>
		<circle id="Ellipse_1_copy_11-19" fill="#E6E7E8" cx="423" cy="636" r="5"/>
		<circle id="Ellipse_1_copy_11-20" fill="#E6E7E8" cx="475" cy="636" r="5"/>
	</g>
	<g id="Group_1_copy">
		<circle id="Ellipse_1_copy_12-11" fill="#E6E7E8" cx="31" cy="681" r="5"/>
		<circle id="Ellipse_1_copy_12-12" fill="#E6E7E8" cx="83" cy="681" r="5"/>
		<circle id="Ellipse_1_copy_12-13" fill="#E6E7E8" cx="135" cy="681" r="5"/>
		<circle id="Ellipse_1_copy_12-14" fill="#E6E7E8" cx="188" cy="681" r="5"/>
		<circle id="Ellipse_1_copy_12-15" fill="#E6E7E8" cx="240" cy="681" r="5"/>
		<circle id="Ellipse_1_copy_12-16" fill="#E6E7E8" cx="292" cy="681" r="5"/>
		<circle id="Ellipse_1_copy_12-17" fill="#E6E7E8" cx="344" cy="681" r="5"/>
		<circle id="Ellipse_1_copy_12-18" fill="#E6E7E8" cx="397" cy="681" r="5"/>
		<circle id="Ellipse_1_copy_12-19" fill="#E6E7E8" cx="449" cy="681" r="5"/>
		<circle id="Ellipse_1_copy_12-20" fill="#E6E7E8" cx="501" cy="681" r="5"/>
	</g>
</g>
<g id="Group_5_copy" opacity="0.5">
	<g>
		<circle fill="#E6E7E8" cx="535" cy="366" r="5"/>
		<circle id="Ellipse_1_copy-3" fill="#E6E7E8" cx="587" cy="366" r="5"/>
		<circle id="Ellipse_1_copy_2-3" fill="#E6E7E8" cx="639" cy="366" r="5"/>
		<circle id="Ellipse_1_copy_3-3" fill="#E6E7E8" cx="692" cy="366" r="5"/>
		<circle id="Ellipse_1_copy_4-3" fill="#E6E7E8" cx="744" cy="366" r="5"/>
		<circle id="Ellipse_1_copy_5-3" fill="#E6E7E8" cx="796" cy="366" r="5"/>
		<circle id="Ellipse_1_copy_6-3" fill="#E6E7E8" cx="848" cy="366" r="5"/>
		<circle id="Ellipse_1_copy_7-3" fill="#E6E7E8" cx="901" cy="366" r="5"/>
		<circle id="Ellipse_1_copy_8-3" fill="#E6E7E8" cx="953" cy="366" r="5"/>
		<circle id="Ellipse_1_copy_9-3" fill="#E6E7E8" cx="1005" cy="366" r="5"/>
	</g>
	<g>
		<circle id="Ellipse_1_copy_10-21" fill="#E6E7E8" cx="561" cy="411" r="5"/>
		<circle id="Ellipse_1_copy_10-22" fill="#E6E7E8" cx="613" cy="411" r="5"/>
		<circle id="Ellipse_1_copy_10-23" fill="#E6E7E8" cx="665" cy="411" r="5"/>
		<circle id="Ellipse_1_copy_10-24" fill="#E6E7E8" cx="718" cy="411" r="5"/>
		<circle id="Ellipse_1_copy_10-25" fill="#E6E7E8" cx="770" cy="411" r="5"/>
		<circle id="Ellipse_1_copy_10-26" fill="#E6E7E8" cx="822" cy="411" r="5"/>
		<circle id="Ellipse_1_copy_10-27" fill="#E6E7E8" cx="874" cy="411" r="5"/>
		<circle id="Ellipse_1_copy_10-28" fill="#E6E7E8" cx="927" cy="411" r="5"/>
		<circle id="Ellipse_1_copy_10-29" fill="#E6E7E8" cx="979" cy="411" r="5"/>
		<circle id="Ellipse_1_copy_10-30" fill="#E6E7E8" cx="1031" cy="411" r="5"/>
	</g>
	<g>
		<circle id="Ellipse_1_copy_11-21" fill="#E6E7E8" cx="535" cy="456" r="5"/>
		<circle id="Ellipse_1_copy_11-22" fill="#E6E7E8" cx="587" cy="456" r="5"/>
		<circle id="Ellipse_1_copy_11-23" fill="#E6E7E8" cx="639" cy="456" r="5"/>
		<circle id="Ellipse_1_copy_11-24" fill="#E6E7E8" cx="692" cy="456" r="5"/>
		<circle id="Ellipse_1_copy_11-25" fill="#E6E7E8" cx="744" cy="456" r="5"/>
		<circle id="Ellipse_1_copy_11-26" fill="#E6E7E8" cx="796" cy="456" r="5"/>
		<circle id="Ellipse_1_copy_11-27" fill="#E6E7E8" cx="848" cy="456" r="5"/>
		<circle id="Ellipse_1_copy_11-28" fill="#E6E7E8" cx="901" cy="456" r="5"/>
		<circle id="Ellipse_1_copy_11-29" fill="#E6E7E8" cx="953" cy="456" r="5"/>
		<circle id="Ellipse_1_copy_11-30" fill="#E6E7E8" cx="1005" cy="456" r="5"/>
	</g>
	<g>
		<circle id="Ellipse_1_copy_12-21" fill="#E6E7E8" cx="561" cy="501" r="5"/>
		<circle id="Ellipse_1_copy_12-22" fill="#E6E7E8" cx="613" cy="501" r="5"/>
		<circle id="Ellipse_1_copy_12-23" fill="#E6E7E8" cx="665" cy="501" r="5"/>
		<circle id="Ellipse_1_copy_12-24" fill="#E6E7E8" cx="718" cy="501" r="5"/>
		<circle id="Ellipse_1_copy_12-25" fill="#E6E7E8" cx="770" cy="501" r="5"/>
		<circle id="Ellipse_1_copy_12-26" fill="#E6E7E8" cx="822" cy="501" r="5"/>
		<circle id="Ellipse_1_copy_12-27" fill="#E6E7E8" cx="874" cy="501" r="5"/>
		<circle id="Ellipse_1_copy_12-28" fill="#E6E7E8" cx="927" cy="501" r="5"/>
		<circle id="Ellipse_1_copy_12-29" fill="#E6E7E8" cx="979" cy="501" r="5"/>
		<circle id="Ellipse_1_copy_12-30" fill="#E6E7E8" cx="1031" cy="501" r="5"/>
	</g>
	<g id="Group_4_copy-2">
		<circle fill="#E6E7E8" cx="535" cy="546" r="5"/>
		<circle id="Ellipse_1_copy-4" fill="#E6E7E8" cx="587" cy="546" r="5"/>
		<circle id="Ellipse_1_copy_2-4" fill="#E6E7E8" cx="639" cy="546" r="5"/>
		<circle id="Ellipse_1_copy_3-4" fill="#E6E7E8" cx="692" cy="546" r="5"/>
		<circle id="Ellipse_1_copy_4-4" fill="#E6E7E8" cx="744" cy="546" r="5"/>
		<circle id="Ellipse_1_copy_5-4" fill="#E6E7E8" cx="796" cy="546" r="5"/>
		<circle id="Ellipse_1_copy_6-4" fill="#E6E7E8" cx="848" cy="546" r="5"/>
		<circle id="Ellipse_1_copy_7-4" fill="#E6E7E8" cx="901" cy="546" r="5"/>
		<circle id="Ellipse_1_copy_8-4" fill="#E6E7E8" cx="953" cy="546" r="5"/>
		<circle id="Ellipse_1_copy_9-4" fill="#E6E7E8" cx="1005" cy="546" r="5"/>
	</g>
	<g id="Group_3_copy-2">
		<circle id="Ellipse_1_copy_10-31" fill="#E6E7E8" cx="561" cy="591" r="5"/>
		<circle id="Ellipse_1_copy_10-32" fill="#E6E7E8" cx="613" cy="591" r="5"/>
		<circle id="Ellipse_1_copy_10-33" fill="#E6E7E8" cx="665" cy="591" r="5"/>
		<circle id="Ellipse_1_copy_10-34" fill="#E6E7E8" cx="718" cy="591" r="5"/>
		<circle id="Ellipse_1_copy_10-35" fill="#E6E7E8" cx="770" cy="591" r="5"/>
		<circle id="Ellipse_1_copy_10-36" fill="#E6E7E8" cx="822" cy="591" r="5"/>
		<circle id="Ellipse_1_copy_10-37" fill="#E6E7E8" cx="874" cy="591" r="5"/>
		<circle id="Ellipse_1_copy_10-38" fill="#E6E7E8" cx="927" cy="591" r="5"/>
		<circle id="Ellipse_1_copy_10-39" fill="#E6E7E8" cx="979" cy="591" r="5"/>
		<circle id="Ellipse_1_copy_10-40" fill="#E6E7E8" cx="1031" cy="591" r="5"/>
	</g>
	<g id="Group_2_copy-2">
		<circle id="Ellipse_1_copy_11-31" fill="#E6E7E8" cx="535" cy="636" r="5"/>
		<circle id="Ellipse_1_copy_11-32" fill="#E6E7E8" cx="587" cy="636" r="5"/>
		<circle id="Ellipse_1_copy_11-33" fill="#E6E7E8" cx="639" cy="636" r="5"/>
		<circle id="Ellipse_1_copy_11-34" fill="#E6E7E8" cx="692" cy="636" r="5"/>
		<circle id="Ellipse_1_copy_11-35" fill="#E6E7E8" cx="744" cy="636" r="5"/>
		<circle id="Ellipse_1_copy_11-36" fill="#E6E7E8" cx="796" cy="636" r="5"/>
		<circle id="Ellipse_1_copy_11-37" fill="#E6E7E8" cx="848" cy="636" r="5"/>
		<circle id="Ellipse_1_copy_11-38" fill="#E6E7E8" cx="901" cy="636" r="5"/>
		<circle id="Ellipse_1_copy_11-39" fill="#E6E7E8" cx="953" cy="636" r="5"/>
		<circle id="Ellipse_1_copy_11-40" fill="#E6E7E8" cx="1005" cy="636" r="5"/>
	</g>
	<g id="Group_1_copy-2">
		<circle id="Ellipse_1_copy_12-31" fill="#E6E7E8" cx="561" cy="681" r="5"/>
		<circle id="Ellipse_1_copy_12-32" fill="#E6E7E8" cx="613" cy="681" r="5"/>
		<circle id="Ellipse_1_copy_12-33" fill="#E6E7E8" cx="665" cy="681" r="5"/>
		<circle id="Ellipse_1_copy_12-34" fill="#E6E7E8" cx="718" cy="681" r="5"/>
		<circle id="Ellipse_1_copy_12-35" fill="#E6E7E8" cx="770" cy="681" r="5"/>
		<circle id="Ellipse_1_copy_12-36" fill="#E6E7E8" cx="822" cy="681" r="5"/>
		<circle id="Ellipse_1_copy_12-37" fill="#E6E7E8" cx="874" cy="681" r="5"/>
		<circle id="Ellipse_1_copy_12-38" fill="#E6E7E8" cx="927" cy="681" r="5"/>
		<circle id="Ellipse_1_copy_12-39" fill="#E6E7E8" cx="979" cy="681" r="5"/>
		<circle id="Ellipse_1_copy_12-40" fill="#E6E7E8" cx="1031" cy="681" r="5"/>
	</g>
</g>
<g id="Group_5_copy_2" opacity="0.5">
	<g>
		<circle fill="#E6E7E8" cx="5" cy="5" r="5"/>
		<circle id="Ellipse_1_copy-5" fill="#E6E7E8" cx="57" cy="5" r="5"/>
		<circle id="Ellipse_1_copy_2-5" fill="#E6E7E8" cx="109" cy="5" r="5"/>
		<circle id="Ellipse_1_copy_3-5" fill="#E6E7E8" cx="162" cy="5" r="5"/>
		<circle id="Ellipse_1_copy_4-5" fill="#E6E7E8" cx="214" cy="5" r="5"/>
		<circle id="Ellipse_1_copy_5-5" fill="#E6E7E8" cx="266" cy="5" r="5"/>
		<circle id="Ellipse_1_copy_6-5" fill="#E6E7E8" cx="318" cy="5" r="5"/>
		<circle id="Ellipse_1_copy_7-5" fill="#E6E7E8" cx="371" cy="5" r="5"/>
		<circle id="Ellipse_1_copy_8-5" fill="#E6E7E8" cx="423" cy="5" r="5"/>
		<circle id="Ellipse_1_copy_9-5" fill="#E6E7E8" cx="475" cy="5" r="5"/>
	</g>
	<g>
		<circle id="Ellipse_1_copy_10-41" fill="#E6E7E8" cx="31" cy="50" r="5"/>
		<circle id="Ellipse_1_copy_10-42" fill="#E6E7E8" cx="83" cy="50" r="5"/>
		<circle id="Ellipse_1_copy_10-43" fill="#E6E7E8" cx="135" cy="50" r="5"/>
		<circle id="Ellipse_1_copy_10-44" fill="#E6E7E8" cx="188" cy="50" r="5"/>
		<circle id="Ellipse_1_copy_10-45" fill="#E6E7E8" cx="240" cy="50" r="5"/>
		<circle id="Ellipse_1_copy_10-46" fill="#E6E7E8" cx="292" cy="50" r="5"/>
		<circle id="Ellipse_1_copy_10-47" fill="#E6E7E8" cx="344" cy="50" r="5"/>
		<circle id="Ellipse_1_copy_10-48" fill="#E6E7E8" cx="397" cy="50" r="5"/>
		<circle id="Ellipse_1_copy_10-49" fill="#E6E7E8" cx="449" cy="50" r="5"/>
		<circle id="Ellipse_1_copy_10-50" fill="#E6E7E8" cx="501" cy="50" r="5"/>
	</g>
	<g>
		<circle id="Ellipse_1_copy_11-41" fill="#E6E7E8" cx="5" cy="95" r="5"/>
		<circle id="Ellipse_1_copy_11-42" fill="#E6E7E8" cx="57" cy="95" r="5"/>
		<circle id="Ellipse_1_copy_11-43" fill="#E6E7E8" cx="109" cy="95" r="5"/>
		<circle id="Ellipse_1_copy_11-44" fill="#E6E7E8" cx="162" cy="95" r="5"/>
		<circle id="Ellipse_1_copy_11-45" fill="#E6E7E8" cx="214" cy="95" r="5"/>
		<circle id="Ellipse_1_copy_11-46" fill="#E6E7E8" cx="266" cy="95" r="5"/>
		<circle id="Ellipse_1_copy_11-47" fill="#E6E7E8" cx="318" cy="95" r="5"/>
		<circle id="Ellipse_1_copy_11-48" fill="#E6E7E8" cx="371" cy="95" r="5"/>
		<circle id="Ellipse_1_copy_11-49" fill="#E6E7E8" cx="423" cy="95" r="5"/>
		<circle id="Ellipse_1_copy_11-50" fill="#E6E7E8" cx="475" cy="95" r="5"/>
	</g>
	<g>
		<circle id="Ellipse_1_copy_12-41" fill="#E6E7E8" cx="31" cy="140" r="5"/>
		<circle id="Ellipse_1_copy_12-42" fill="#E6E7E8" cx="83" cy="140" r="5"/>
		<circle id="Ellipse_1_copy_12-43" fill="#E6E7E8" cx="135" cy="140" r="5"/>
		<circle id="Ellipse_1_copy_12-44" fill="#E6E7E8" cx="188" cy="140" r="5"/>
		<circle id="Ellipse_1_copy_12-45" fill="#E6E7E8" cx="240" cy="140" r="5"/>
		<circle id="Ellipse_1_copy_12-46" fill="#E6E7E8" cx="292" cy="140" r="5"/>
		<circle id="Ellipse_1_copy_12-47" fill="#E6E7E8" cx="344" cy="140" r="5"/>
		<circle id="Ellipse_1_copy_12-48" fill="#E6E7E8" cx="397" cy="140" r="5"/>
		<circle id="Ellipse_1_copy_12-49" fill="#E6E7E8" cx="449" cy="140" r="5"/>
		<circle id="Ellipse_1_copy_12-50" fill="#E6E7E8" cx="501" cy="140" r="5"/>
	</g>
	<g id="Group_4_copy-3">
		<circle fill="#E6E7E8" cx="5" cy="185" r="5"/>
		<circle id="Ellipse_1_copy-6" fill="#E6E7E8" cx="57" cy="185" r="5"/>
		<circle id="Ellipse_1_copy_2-6" fill="#E6E7E8" cx="109" cy="185" r="5"/>
		<circle id="Ellipse_1_copy_3-6" fill="#E6E7E8" cx="162" cy="185" r="5"/>
		<circle id="Ellipse_1_copy_4-6" fill="#E6E7E8" cx="214" cy="185" r="5"/>
		<circle id="Ellipse_1_copy_5-6" fill="#E6E7E8" cx="266" cy="185" r="5"/>
		<circle id="Ellipse_1_copy_6-6" fill="#E6E7E8" cx="318" cy="185" r="5"/>
		<circle id="Ellipse_1_copy_7-6" fill="#E6E7E8" cx="371" cy="185" r="5"/>
		<circle id="Ellipse_1_copy_8-6" fill="#E6E7E8" cx="423" cy="185" r="5"/>
		<circle id="Ellipse_1_copy_9-6" fill="#E6E7E8" cx="475" cy="185" r="5"/>
	</g>
	<g id="Group_3_copy-3">
		<circle id="Ellipse_1_copy_10-51" fill="#E6E7E8" cx="31" cy="230" r="5"/>
		<circle id="Ellipse_1_copy_10-52" fill="#E6E7E8" cx="83" cy="230" r="5"/>
		<circle id="Ellipse_1_copy_10-53" fill="#E6E7E8" cx="135" cy="230" r="5"/>
		<circle id="Ellipse_1_copy_10-54" fill="#E6E7E8" cx="188" cy="230" r="5"/>
		<circle id="Ellipse_1_copy_10-55" fill="#E6E7E8" cx="240" cy="230" r="5"/>
		<circle id="Ellipse_1_copy_10-56" fill="#E6E7E8" cx="292" cy="230" r="5"/>
		<circle id="Ellipse_1_copy_10-57" fill="#E6E7E8" cx="344" cy="230" r="5"/>
		<circle id="Ellipse_1_copy_10-58" fill="#E6E7E8" cx="397" cy="230" r="5"/>
		<circle id="Ellipse_1_copy_10-59" fill="#E6E7E8" cx="449" cy="230" r="5"/>
		<circle id="Ellipse_1_copy_10-60" fill="#E6E7E8" cx="501" cy="230" r="5"/>
	</g>
	<g id="Group_2_copy-3">
		<circle id="Ellipse_1_copy_11-51" fill="#E6E7E8" cx="5" cy="275" r="5"/>
		<circle id="Ellipse_1_copy_11-52" fill="#E6E7E8" cx="57" cy="275" r="5"/>
		<circle id="Ellipse_1_copy_11-53" fill="#E6E7E8" cx="109" cy="275" r="5"/>
		<circle id="Ellipse_1_copy_11-54" fill="#E6E7E8" cx="162" cy="275" r="5"/>
		<circle id="Ellipse_1_copy_11-55" fill="#E6E7E8" cx="214" cy="275" r="5"/>
		<circle id="Ellipse_1_copy_11-56" fill="#E6E7E8" cx="266" cy="275" r="5"/>
		<circle id="Ellipse_1_copy_11-57" fill="#E6E7E8" cx="318" cy="275" r="5"/>
		<circle id="Ellipse_1_copy_11-58" fill="#E6E7E8" cx="371" cy="275" r="5"/>
		<circle id="Ellipse_1_copy_11-59" fill="#E6E7E8" cx="423" cy="275" r="5"/>
		<circle id="Ellipse_1_copy_11-60" fill="#E6E7E8" cx="475" cy="275" r="5"/>
	</g>
	<g id="Group_1_copy-3">
		<circle id="Ellipse_1_copy_12-51" fill="#E6E7E8" cx="31" cy="320" r="5"/>
		<circle id="Ellipse_1_copy_12-52" fill="#E6E7E8" cx="83" cy="320" r="5"/>
		<circle id="Ellipse_1_copy_12-53" fill="#E6E7E8" cx="135" cy="320" r="5"/>
		<circle id="Ellipse_1_copy_12-54" fill="#E6E7E8" cx="188" cy="320" r="5"/>
		<circle id="Ellipse_1_copy_12-55" fill="#E6E7E8" cx="240" cy="320" r="5"/>
		<circle id="Ellipse_1_copy_12-56" fill="#E6E7E8" cx="292" cy="320" r="5"/>
		<circle id="Ellipse_1_copy_12-57" fill="#E6E7E8" cx="344" cy="320" r="5"/>
		<circle id="Ellipse_1_copy_12-58" fill="#E6E7E8" cx="397" cy="320" r="5"/>
		<circle id="Ellipse_1_copy_12-59" fill="#E6E7E8" cx="449" cy="320" r="5"/>
		<circle id="Ellipse_1_copy_12-60" fill="#E6E7E8" cx="501" cy="320" r="5"/>
	</g>
</g>
<g id="Group_5_copy_2-2" opacity="0.5">
	<g>
		<circle fill="#E6E7E8" cx="535" cy="5" r="5"/>
		<circle id="Ellipse_1_copy-7" fill="#E6E7E8" cx="587" cy="5" r="5"/>
		<circle id="Ellipse_1_copy_2-7" fill="#E6E7E8" cx="639" cy="5" r="5"/>
		<circle id="Ellipse_1_copy_3-7" fill="#E6E7E8" cx="692" cy="5" r="5"/>
		<circle id="Ellipse_1_copy_4-7" fill="#E6E7E8" cx="744" cy="5" r="5"/>
		<circle id="Ellipse_1_copy_5-7" fill="#E6E7E8" cx="796" cy="5" r="5"/>
		<circle id="Ellipse_1_copy_6-7" fill="#E6E7E8" cx="848" cy="5" r="5"/>
		<circle id="Ellipse_1_copy_7-7" fill="#E6E7E8" cx="901" cy="5" r="5"/>
		<circle id="Ellipse_1_copy_8-7" fill="#E6E7E8" cx="953" cy="5" r="5"/>
		<circle id="Ellipse_1_copy_9-7" fill="#E6E7E8" cx="1005" cy="5" r="5"/>
	</g>
	<g>
		<circle id="Ellipse_1_copy_10-61" fill="#E6E7E8" cx="561" cy="50" r="5"/>
		<circle id="Ellipse_1_copy_10-62" fill="#E6E7E8" cx="613" cy="50" r="5"/>
		<circle id="Ellipse_1_copy_10-63" fill="#E6E7E8" cx="665" cy="50" r="5"/>
		<circle id="Ellipse_1_copy_10-64" fill="#E6E7E8" cx="718" cy="50" r="5"/>
		<circle id="Ellipse_1_copy_10-65" fill="#E6E7E8" cx="770" cy="50" r="5"/>
		<circle id="Ellipse_1_copy_10-66" fill="#E6E7E8" cx="822" cy="50" r="5"/>
		<circle id="Ellipse_1_copy_10-67" fill="#E6E7E8" cx="874" cy="50" r="5"/>
		<circle id="Ellipse_1_copy_10-68" fill="#E6E7E8" cx="927" cy="50" r="5"/>
		<circle id="Ellipse_1_copy_10-69" fill="#E6E7E8" cx="979" cy="50" r="5"/>
		<circle id="Ellipse_1_copy_10-70" fill="#E6E7E8" cx="1031" cy="50" r="5"/>
	</g>
	<g>
		<circle id="Ellipse_1_copy_11-61" fill="#E6E7E8" cx="535" cy="95" r="5"/>
		<circle id="Ellipse_1_copy_11-62" fill="#E6E7E8" cx="587" cy="95" r="5"/>
		<circle id="Ellipse_1_copy_11-63" fill="#E6E7E8" cx="639" cy="95" r="5"/>
		<circle id="Ellipse_1_copy_11-64" fill="#E6E7E8" cx="692" cy="95" r="5"/>
		<circle id="Ellipse_1_copy_11-65" fill="#E6E7E8" cx="744" cy="95" r="5"/>
		<circle id="Ellipse_1_copy_11-66" fill="#E6E7E8" cx="796" cy="95" r="5"/>
		<circle id="Ellipse_1_copy_11-67" fill="#E6E7E8" cx="848" cy="95" r="5"/>
		<circle id="Ellipse_1_copy_11-68" fill="#E6E7E8" cx="901" cy="95" r="5"/>
		<circle id="Ellipse_1_copy_11-69" fill="#E6E7E8" cx="953" cy="95" r="5"/>
		<circle id="Ellipse_1_copy_11-70" fill="#E6E7E8" cx="1005" cy="95" r="5"/>
	</g>
	<g>
		<circle id="Ellipse_1_copy_12-61" fill="#E6E7E8" cx="561" cy="140" r="5"/>
		<circle id="Ellipse_1_copy_12-62" fill="#E6E7E8" cx="613" cy="140" r="5"/>
		<circle id="Ellipse_1_copy_12-63" fill="#E6E7E8" cx="665" cy="140" r="5"/>
		<circle id="Ellipse_1_copy_12-64" fill="#E6E7E8" cx="718" cy="140" r="5"/>
		<circle id="Ellipse_1_copy_12-65" fill="#E6E7E8" cx="770" cy="140" r="5"/>
		<circle id="Ellipse_1_copy_12-66" fill="#E6E7E8" cx="822" cy="140" r="5"/>
		<circle id="Ellipse_1_copy_12-67" fill="#E6E7E8" cx="874" cy="140" r="5"/>
		<circle id="Ellipse_1_copy_12-68" fill="#E6E7E8" cx="927" cy="140" r="5"/>
		<circle id="Ellipse_1_copy_12-69" fill="#E6E7E8" cx="979" cy="140" r="5"/>
		<circle id="Ellipse_1_copy_12-70" fill="#E6E7E8" cx="1031" cy="140" r="5"/>
	</g>
	<g id="Group_4_copy-4">
		<circle fill="#E6E7E8" cx="535" cy="185" r="5"/>
		<circle id="Ellipse_1_copy-8" fill="#E6E7E8" cx="587" cy="185" r="5"/>
		<circle id="Ellipse_1_copy_2-8" fill="#E6E7E8" cx="639" cy="185" r="5"/>
		<circle id="Ellipse_1_copy_3-8" fill="#E6E7E8" cx="692" cy="185" r="5"/>
		<circle id="Ellipse_1_copy_4-8" fill="#E6E7E8" cx="744" cy="185" r="5"/>
		<circle id="Ellipse_1_copy_5-8" fill="#E6E7E8" cx="796" cy="185" r="5"/>
		<circle id="Ellipse_1_copy_6-8" fill="#E6E7E8" cx="848" cy="185" r="5"/>
		<circle id="Ellipse_1_copy_7-8" fill="#E6E7E8" cx="901" cy="185" r="5"/>
		<circle id="Ellipse_1_copy_8-8" fill="#E6E7E8" cx="953" cy="185" r="5"/>
		<circle id="Ellipse_1_copy_9-8" fill="#E6E7E8" cx="1005" cy="185" r="5"/>
	</g>
	<g id="Group_3_copy-4">
		<circle id="Ellipse_1_copy_10-71" fill="#E6E7E8" cx="561" cy="230" r="5"/>
		<circle id="Ellipse_1_copy_10-72" fill="#E6E7E8" cx="613" cy="230" r="5"/>
		<circle id="Ellipse_1_copy_10-73" fill="#E6E7E8" cx="665" cy="230" r="5"/>
		<circle id="Ellipse_1_copy_10-74" fill="#E6E7E8" cx="718" cy="230" r="5"/>
		<circle id="Ellipse_1_copy_10-75" fill="#E6E7E8" cx="770" cy="230" r="5"/>
		<circle id="Ellipse_1_copy_10-76" fill="#E6E7E8" cx="822" cy="230" r="5"/>
		<circle id="Ellipse_1_copy_10-77" fill="#E6E7E8" cx="874" cy="230" r="5"/>
		<circle id="Ellipse_1_copy_10-78" fill="#E6E7E8" cx="927" cy="230" r="5"/>
		<circle id="Ellipse_1_copy_10-79" fill="#E6E7E8" cx="979" cy="230" r="5"/>
		<circle id="Ellipse_1_copy_10-80" fill="#E6E7E8" cx="1031" cy="230" r="5"/>
	</g>
	<g id="Group_2_copy-4">
		<circle id="Ellipse_1_copy_11-71" fill="#E6E7E8" cx="535" cy="275" r="5"/>
		<circle id="Ellipse_1_copy_11-72" fill="#E6E7E8" cx="587" cy="275" r="5"/>
		<circle id="Ellipse_1_copy_11-73" fill="#E6E7E8" cx="639" cy="275" r="5"/>
		<circle id="Ellipse_1_copy_11-74" fill="#E6E7E8" cx="692" cy="275" r="5"/>
		<circle id="Ellipse_1_copy_11-75" fill="#E6E7E8" cx="744" cy="275" r="5"/>
		<circle id="Ellipse_1_copy_11-76" fill="#E6E7E8" cx="796" cy="275" r="5"/>
		<circle id="Ellipse_1_copy_11-77" fill="#E6E7E8" cx="848" cy="275" r="5"/>
		<circle id="Ellipse_1_copy_11-78" fill="#E6E7E8" cx="901" cy="275" r="5"/>
		<circle id="Ellipse_1_copy_11-79" fill="#E6E7E8" cx="953" cy="275" r="5"/>
		<circle id="Ellipse_1_copy_11-80" fill="#E6E7E8" cx="1005" cy="275" r="5"/>
	</g>
	<g id="Group_1_copy-4">
		<circle id="Ellipse_1_copy_12-71" fill="#E6E7E8" cx="561" cy="320" r="5"/>
		<circle id="Ellipse_1_copy_12-72" fill="#E6E7E8" cx="613" cy="320" r="5"/>
		<circle id="Ellipse_1_copy_12-73" fill="#E6E7E8" cx="665" cy="320" r="5"/>
		<circle id="Ellipse_1_copy_12-74" fill="#E6E7E8" cx="718" cy="320" r="5"/>
		<circle id="Ellipse_1_copy_12-75" fill="#E6E7E8" cx="770" cy="320" r="5"/>
		<circle id="Ellipse_1_copy_12-76" fill="#E6E7E8" cx="822" cy="320" r="5"/>
		<circle id="Ellipse_1_copy_12-77" fill="#E6E7E8" cx="874" cy="320" r="5"/>
		<circle id="Ellipse_1_copy_12-78" fill="#E6E7E8" cx="927" cy="320" r="5"/>
		<circle id="Ellipse_1_copy_12-79" fill="#E6E7E8" cx="979" cy="320" r="5"/>
		<circle id="Ellipse_1_copy_12-80" fill="#E6E7E8" cx="1031" cy="320" r="5"/>
	</g>
</g>
</svg>
