<?xml version="1.0" encoding="utf-8"?>
<!-- Generator: Adobe Illustrator 16.0.0, SVG Export Plug-In . SVG Version: 6.00 Build 0)  -->
<!DOCTYPE svg PUBLIC "-//W3C//DTD SVG 1.1//EN" "http://www.w3.org/Graphics/SVG/1.1/DTD/svg11.dtd">
<svg version="1.1" id="Layer_1" xmlns="http://www.w3.org/2000/svg" xmlns:xlink="http://www.w3.org/1999/xlink" x="0px" y="0px"
	 width="1600px" height="609.75px" viewBox="0 0 1600 609.75" enable-background="new 0 0 1600 609.75" xml:space="preserve">
<g>
	<g>
		<defs>
			<path id="SVGID_1_" d="M1319.628,5.624c-6.912,0.023-13.899,0.398-20.921,1.146c-71.563,7.603-124.758,51.372-134.02,104.541
				c-23.553-6.157-49.273-5.797-72.291,2.541c-25.27,9.151-42.334,26.128-49.283,45.961c-28.225-11.735-68.495-16.12-110.891-10.085
				c-20.453,2.911-39.233,7.941-55.489,14.465c-10.261-35.667-48.58-62.172-94.294-62.172c-41.631,0-77.127,21.981-90.89,52.847
				c-4.619-0.335-9.329-0.51-14.109-0.51c-17.147,0-33.37,2.223-47.82,6.173c-18.349-39.979-71.705-68.903-134.681-68.903
				c-54.916,0-102.525,21.996-125.978,54.139c-11.983-6.582-25.804-10.338-40.521-10.338c-8.57,0-16.838,1.274-24.614,3.634
				c-17.049-45.991-79.475-80.1-153.886-80.1C80.433,58.962,21.381,88.713,0,130.118v68.507c1.335,2.586,2.817,5.126,4.441,7.618
				v121.46H1600V109.617c-20.349-30.167-58.104-48.07-94.183-41.888c-14.22,2.437-26.462,8.323-36.11,16.626
				c-24.43-46.814-83.306-78.52-148.738-78.731H1319.628z"/>
		</defs>
		<clipPath id="SVGID_2_">
			<use xlink:href="#SVGID_1_"  overflow="visible"/>
		</clipPath>
		
			<linearGradient id="SVGID_3_" gradientUnits="userSpaceOnUse" x1="-0.2808" y1="4687" x2="0.7192" y2="4687" gradientTransform="matrix(0 322.0805 -322.0805 0 1510391.625 96)">
			<stop  offset="0" style="stop-color:#FFFFFF"/>
			<stop  offset="0" style="stop-color:#C5FFFF"/>
			<stop  offset="0.1766" style="stop-color:#9ADBF7"/>
			<stop  offset="0.4657" style="stop-color:#58A6EC"/>
			<stop  offset="0.7092" style="stop-color:#287FE4"/>
			<stop  offset="0.8946" style="stop-color:#0B67DF"/>
			<stop  offset="1" style="stop-color:#005EDD"/>
		</linearGradient>
		<rect y="5.624" clip-path="url(#SVGID_2_)" fill="url(#SVGID_3_)" width="1600" height="322.079"/>
	</g>
	<g>
		<defs>
			<path id="SVGID_4_" d="M134.734,203.457c-9.649-8.304-21.894-14.191-36.11-16.626C59.727,180.167,18.882,201.494,0,236.002
				v210.801h1600V241.604c-24.36-37.386-80.339-63.54-145.499-63.54c-74.414,0-136.839,34.109-153.885,80.102
				c-7.782-2.364-16.046-3.637-24.616-3.637c-14.716,0-28.536,3.756-40.521,10.337c-23.454-32.143-71.062-54.137-125.979-54.137
				c-62.974,0-116.33,28.923-134.679,68.905c-14.45-3.953-30.675-6.175-47.82-6.175c-4.783,0-9.491,0.174-14.113,0.508
				c-13.758-30.865-49.259-52.841-90.888-52.841c-45.714,0-84.034,26.498-94.294,62.167c-16.255-6.522-35.036-11.551-55.49-14.466
				c-42.393-6.036-82.668-1.646-110.889,10.089c-6.95-19.835-24.015-36.813-49.284-45.963c-23.018-8.339-48.74-8.699-72.291-2.543
				c-9.259-53.165-62.458-96.936-134.019-104.541c-7.254-0.771-14.471-1.142-21.606-1.143
				C218.428,124.723,159.245,156.483,134.734,203.457"/>
		</defs>
		<clipPath id="SVGID_5_">
			<use xlink:href="#SVGID_4_"  overflow="visible"/>
		</clipPath>
		
			<linearGradient id="SVGID_6_" gradientUnits="userSpaceOnUse" x1="-0.2803" y1="4687" x2="0.7197" y2="4687" gradientTransform="matrix(0 322.0805 322.0805 0 -1508791.375 215)">
			<stop  offset="0" style="stop-color:#FFFFFF"/>
			<stop  offset="0" style="stop-color:#C5FFFF"/>
			<stop  offset="0.0098" style="stop-color:#C1FCFE"/>
			<stop  offset="0.1474" style="stop-color:#8ED2F6"/>
			<stop  offset="0.2877" style="stop-color:#63AFEE"/>
			<stop  offset="0.4284" style="stop-color:#3F92E8"/>
			<stop  offset="0.5695" style="stop-color:#237BE3"/>
			<stop  offset="0.7112" style="stop-color:#106BE0"/>
			<stop  offset="0.8541" style="stop-color:#0461DE"/>
			<stop  offset="1" style="stop-color:#005EDD"/>
		</linearGradient>
		<rect y="124.723" clip-path="url(#SVGID_5_)" fill="url(#SVGID_6_)" width="1600" height="322.081"/>
	</g>
	<g>
		<defs>
			<path id="SVGID_7_" d="M174.342,376.624c-18.603-10.289-43.026-16.534-69.776-16.534C46.263,360.089-1,389.742-1,426.316
				c0,3.096,0.346,6.137,1,9.12V609.75h1600V350.392c-28.757-20.877-75.789-25.72-121.723-9.346
				c-41.311,14.726-71.463,42.951-82.418,73.015c-18.444-9.883-42.377-15.852-68.53-15.852c-33.271,0-62.946,9.66-82.295,24.75
				c-8.03-67.858-81.232-120.994-170.362-120.994c-81.822,0-150.221,44.783-167.102,104.622c-1.621-1.217-3.293-2.391-5.051-3.483
				c-30.42-18.893-71.19-12.063-97.176,14.351c-29.627-16.873-64.198-30.21-102.131-38.405
				c-56.4-12.181-111.259-11.044-157.464,0.762c-12.019-65.434-90.722-115.963-186.022-115.963
				C265.974,263.849,188.288,312.743,174.342,376.624"/>
		</defs>
		<clipPath id="SVGID_8_">
			<use xlink:href="#SVGID_7_"  overflow="visible"/>
		</clipPath>
		
			<linearGradient id="SVGID_9_" gradientUnits="userSpaceOnUse" x1="-0.2065" y1="4686.998" x2="0.7935" y2="4686.998" gradientTransform="matrix(0 437.0969 437.0969 0 -2047872.5 354)">
			<stop  offset="0" style="stop-color:#FFFFFF"/>
			<stop  offset="0" style="stop-color:#C5FFFF"/>
			<stop  offset="0.1766" style="stop-color:#9ADBF7"/>
			<stop  offset="0.4657" style="stop-color:#58A6EC"/>
			<stop  offset="0.7092" style="stop-color:#287FE4"/>
			<stop  offset="0.8946" style="stop-color:#0B67DF"/>
			<stop  offset="1" style="stop-color:#005EDD"/>
		</linearGradient>
		<rect x="-1" y="263.849" clip-path="url(#SVGID_8_)" fill="url(#SVGID_9_)" width="1601" height="345.901"/>
	</g>
</g>
</svg>
