<?xml version="1.0" encoding="utf-8"?>
<!-- Generator: Adobe Illustrator 22.1.0, SVG Export Plug-In . SVG Version: 6.00 Build 0)  -->
<svg version="1.1" id="Layer_1" xmlns="http://www.w3.org/2000/svg" xmlns:xlink="http://www.w3.org/1999/xlink" x="0px" y="0px"
	 viewBox="0 0 488.3 488.3" style="enable-background:new 0 0 488.3 488.3;" xml:space="preserve">
<style type="text/css">
	.st0{fill:url(#SVGID_1_);}
	.st1{fill:url(#SVGID_2_);}
</style>
<g>
	<g>
		<linearGradient id="SVGID_1_" gradientUnits="userSpaceOnUse" x1="244.1727" y1="61.772" x2="244.1727" y2="426.572">
			<stop  offset="0" style="stop-color:#AAFFFF"/>
			<stop  offset="1" style="stop-color:#005EDE"/>
		</linearGradient>
		<path class="st0" d="M47.1,71.7v248L1,412.3c-1.5,3.1-1.4,6.7,0.4,9.6s5,4.7,8.4,4.7h468.6l0,0c5.5,0,9.9-4.4,9.9-9.9
			c0-1.9-0.5-3.7-1.5-5.2l-45.3-91.8v-248c0-5.5-4.4-9.9-9.9-9.9H57C51.5,61.8,47.1,66.2,47.1,71.7z M185.3,403.1l5.2-10.4h107.4
			l5.1,10.4H185.3z M66.9,81.6h355v230.5h-355L66.9,81.6L66.9,81.6z M425.6,331.9l36.9,74.9H327l-14-28.4c-1.7-3.4-5.1-5.5-8.9-5.5
			H184.4c-3.8,0-7.2,2.1-8.9,5.5l-14.1,28.4H25.9l37.3-74.9H425.6z"/>
		<linearGradient id="SVGID_2_" gradientUnits="userSpaceOnUse" x1="244.1953" y1="113.172" x2="244.1953" y2="280.472">
			<stop  offset="0" style="stop-color:#AAFFFF"/>
			<stop  offset="1" style="stop-color:#005EDE"/>
		</linearGradient>
		<path class="st1" d="M255.6,186.8h-22.7c-8.3,0-15-6.7-15-15s6.7-15,15-15H273c5.5,0,9.9-4.4,9.9-9.9s-4.4-9.9-9.9-9.9h-18.9
			v-13.9c0-5.5-4.4-9.9-9.9-9.9s-9.9,4.4-9.9,9.9V137h-1.5c-19.2,0-34.8,15.6-34.8,34.8s15.6,34.8,34.8,34.8h22.7
			c8.3,0,15,6.7,15,15s-6.7,15-15,15h-40.9c-5.5,0-9.9,4.4-9.9,9.9s4.4,9.9,9.9,9.9h19.6v14.2c0,5.5,4.4,9.9,9.9,9.9
			s9.9-4.4,9.9-9.9v-14.2h1.5c19.2,0,34.8-15.6,34.8-34.8C290.4,202.5,274.8,186.8,255.6,186.8z"/>
	</g>
</g>
</svg>
