<?xml version="1.0" encoding="utf-8"?>
<!-- Generator: Adobe Illustrator 22.1.0, SVG Export Plug-In . SVG Version: 6.00 Build 0)  -->
<svg version="1.1" id="Layer_1" xmlns="http://www.w3.org/2000/svg" xmlns:xlink="http://www.w3.org/1999/xlink" x="0px" y="0px"
	 viewBox="0 0 800 800" style="enable-background:new 0 0 800 800;" xml:space="preserve">
<style type="text/css">
	.st0{fill:url(#SVGID_1_);}
</style>
<linearGradient id="SVGID_1_" gradientUnits="userSpaceOnUse" x1="399.996" y1="-5.384567e-02" x2="399.996" y2="800">
	<stop  offset="0" style="stop-color:#7FECE6"/>
	<stop  offset="0.1743" style="stop-color:#6ED9E5"/>
	<stop  offset="0.5271" style="stop-color:#42A8E2"/>
	<stop  offset="1" style="stop-color:#005EDE"/>
</linearGradient>
<path class="st0" d="M800,552.6c0-0.2,0-0.4,0-0.5c0,0,0-0.1,0-0.1c0-0.3,0-0.6,0-0.9c0-0.1,0-0.3,0-0.4c0-0.3-0.1-0.5-0.1-0.8
	c0-0.2-0.1-0.4-0.1-0.5c0-0.2-0.1-0.4-0.2-0.6c-0.1-0.2-0.1-0.5-0.2-0.7c0-0.1-0.1-0.3-0.2-0.4c-0.1-0.3-0.2-0.5-0.3-0.8
	c0,0,0-0.1,0-0.1L661.8,245.1v-39.5h0.9c14.8,0,26.8-12,26.8-26.8v-2.1c0-13.2-9.5-24.4-22.5-26.4l-226.3-36.5V90.6
	c20-22.4,18.1-56.8-4.4-76.8c-22.4-20-56.8-18.1-76.8,4.4C341,38.8,341,70,359.4,90.6v21.9L133,150.3c-12.9,2.1-22.4,13.3-22.4,26.4
	v2.1c0,14.8,12,26.8,26.8,26.8h0.9v39.5L1.2,546.7c0,0,0,0.1,0,0.1c-0.1,0.3-0.2,0.5-0.3,0.8c-0.1,0.1-0.1,0.3-0.2,0.4
	c-0.1,0.2-0.1,0.5-0.2,0.7c-0.1,0.2-0.1,0.4-0.2,0.6c0,0.2-0.1,0.4-0.1,0.5c0,0.3-0.1,0.5-0.1,0.8c0,0.1,0,0.3,0,0.4
	c0,0.3,0,0.6,0,0.9c0,0,0,0.1,0,0.1c0,0.2,0,0.4,0,0.5c0,0.1,0,0.3,0,0.4c0.8,53.3,66.9,94.9,151.2,94.9s150.3-41.6,151.1-94.9
	c0-0.1,0-0.3,0-0.4c0-0.2,0-0.4,0-0.5c0,0,0-0.1,0-0.1c0-0.3,0-0.6,0-0.9c0-0.1,0-0.3,0-0.4c0-0.3-0.1-0.5-0.1-0.8
	c0-0.2-0.1-0.4-0.1-0.5c0-0.2-0.1-0.4-0.1-0.6c-0.1-0.2-0.1-0.5-0.2-0.7c0-0.1-0.1-0.3-0.2-0.4c-0.1-0.3-0.2-0.5-0.3-0.8
	c0,0,0-0.1,0-0.1L164.1,245.1v-39.5h195.3v281.5c-8.5,4.7-13.8,13.7-13.8,23.4v190.9l-82.1,25.7c-17,5.2-28.6,21-28.5,38.8V787
	c0,7.2,5.8,13,13,13c0,0,0,0,0,0H552c7.2,0,13-5.8,13-13c0,0,0,0,0,0v-21.1c0.1-17.8-11.5-33.5-28.5-38.8l-82.1-25.7V510.6
	c0-9.7-5.3-18.7-13.8-23.4V205.6h195.3v39.5L498.8,546.7c0,0,0,0.1,0,0.1c-0.1,0.3-0.2,0.5-0.3,0.8c-0.1,0.1-0.1,0.3-0.2,0.4
	c-0.1,0.2-0.1,0.5-0.2,0.7c-0.1,0.2-0.1,0.4-0.1,0.6c0,0.2-0.1,0.4-0.1,0.5c0,0.3-0.1,0.5-0.1,0.8c0,0.1,0,0.3,0,0.4
	c0,0.3,0,0.6,0,0.9c0,0,0,0.1,0,0.1c0,0.2,0,0.4,0,0.5c0,0.1,0,0.3,0,0.4c0.8,53.3,66.9,94.9,151.2,94.9S799.2,606.3,800,553
	C800,552.9,800,552.7,800,552.6z M151.2,279.3l118.1,259.8H33.1L151.2,279.3z M151.2,622c-60,0-111.8-25-123-57h246
	C263,597,211.2,622,151.2,622z M428.5,510.6v187.5h-57V510.6c0-0.5,0.4-0.9,0.9-0.9h55.3C428.1,509.7,428.5,510.1,428.5,510.6z
	 M385.3,483.8v-377c9.6,2.7,19.8,2.7,29.4,0v377L385.3,483.8L385.3,483.8z M400,25.9c15.7,0,28.5,12.8,28.5,28.5
	c0,15.7-12.8,28.5-28.5,28.5c-15.7,0-28.5-12.8-28.5-28.5C371.5,38.7,384.3,25.9,400,25.9z M137.4,179.7c-0.5,0-0.9-0.4-0.9-0.9
	v-2.1c0-0.4,0.3-0.8,0.7-0.9l222.2-37v40.9H137.4z M539.1,765.9v8.2H260.9v-8.2c0-6.4,4.2-12.1,10.3-14l89.3-27.9h79l89.3,27.9
	C534.9,753.8,539.1,759.5,539.1,765.9z M440.6,140.1l222.2,35.9c0.4,0.1,0.7,0.4,0.7,0.9v2.1c0,0.5-0.4,0.9-0.9,0.9h-222V140.1z
	 M648.8,279.3l118.1,259.8H530.7L648.8,279.3z M648.8,622c-60,0-111.8-25-123-57h246C760.6,597,708.8,622,648.8,622z"/>
</svg>
