<?xml version="1.0" encoding="iso-8859-1"?>
<!-- Generator: Adobe Illustrator 19.0.0, SVG Export Plug-In . SVG Version: 6.00 Build 0)  -->
<svg version="1.1" id="Capa_1" xmlns="http://www.w3.org/2000/svg" xmlns:xlink="http://www.w3.org/1999/xlink" x="0px" y="0px"
	 viewBox="0 0 480 480" style="enable-background:new 0 0 480 480;" xml:space="preserve">
<g>
	
		<linearGradient id="SVGID_1_" gradientUnits="userSpaceOnUse" x1="-26.875" y1="620.926" x2="-26.875" y2="555.821" gradientTransform="matrix(8 0 0 -8 455 4941)">
		<stop  offset="0" style="stop-color:#006DF0"/>
		<stop  offset="1" style="stop-color:#00E7F0"/>
	</linearGradient>
	<path style="fill:url(#SVGID_1_);" d="M368,416H264v16h104v8c0,13.255-10.745,24-24,24H136c-13.255,0-24-10.745-24-24v-8h104v-16
		H112v-64H96v88c0.026,22.08,17.92,39.974,40,40h208c22.08-0.026,39.974-17.92,40-40V296h-16V416z"/>
	
		<linearGradient id="SVGID_2_" gradientUnits="userSpaceOnUse" x1="-26.875" y1="620.926" x2="-26.875" y2="555.821" gradientTransform="matrix(8 0 0 -8 455 4941)">
		<stop  offset="0" style="stop-color:#006DF0"/>
		<stop  offset="1" style="stop-color:#00E7F0"/>
	</linearGradient>
	<path style="fill:url(#SVGID_2_);" d="M112,64h256v24h16V40c-0.026-22.08-17.92-39.974-40-40H136c-22.08,0.026-39.974,17.92-40,40
		v111.936h16V64z M136,16h208c13.255,0,24,10.745,24,24v8H112v-8C112,26.745,122.745,16,136,16z"/>
	
		<linearGradient id="SVGID_3_" gradientUnits="userSpaceOnUse" x1="-26.875" y1="620.926" x2="-26.875" y2="555.821" gradientTransform="matrix(8 0 0 -8 455 4941)">
		<stop  offset="0" style="stop-color:#006DF0"/>
		<stop  offset="1" style="stop-color:#00E7F0"/>
	</linearGradient>
	<path style="fill:url(#SVGID_3_);" d="M232,416h16v16h-16V416z"/>
	
		<linearGradient id="SVGID_4_" gradientUnits="userSpaceOnUse" x1="-26.875" y1="620.926" x2="-26.875" y2="555.821" gradientTransform="matrix(8 0 0 -8 455 4941)">
		<stop  offset="0" style="stop-color:#006DF0"/>
		<stop  offset="1" style="stop-color:#00E7F0"/>
	</linearGradient>
	<path style="fill:url(#SVGID_4_);" d="M232,24h16v16h-16V24z"/>
	
		<linearGradient id="SVGID_5_" gradientUnits="userSpaceOnUse" x1="-26.875" y1="620.926" x2="-26.875" y2="555.821" gradientTransform="matrix(8 0 0 -8 455 4941)">
		<stop  offset="0" style="stop-color:#006DF0"/>
		<stop  offset="1" style="stop-color:#00E7F0"/>
	</linearGradient>
	<path style="fill:url(#SVGID_5_);" d="M456,104H232c-13.255,0-24,10.745-24,24v40H24c-13.255,0-24,10.745-24,24v128
		c0,13.255,10.745,24,24,24h8v40c0.001,4.418,3.583,7.999,8.002,7.998c2.121,0,4.154-0.843,5.654-2.342L91.312,344H248
		c13.255,0,24-10.745,24-24v-40h116.688l45.656,45.656c3.125,3.124,8.19,3.123,11.314-0.002c1.499-1.5,2.342-3.534,2.342-5.654v-40
		h8c13.255,0,24-10.745,24-24V128C480,114.745,469.255,104,456,104z M256,320c0,4.418-3.582,8-8,8H88
		c-2.122,0-4.156,0.844-5.656,2.344L48,364.688V336c0-4.418-3.582-8-8-8H24c-4.418,0-8-3.582-8-8V192c0-4.418,3.582-8,8-8h224
		c4.418,0,8,3.582,8,8V320z M464,256c0,4.418-3.582,8-8,8h-16c-4.418,0-8,3.582-8,8v28.688l-34.344-34.344
		c-1.5-1.5-3.534-2.344-5.656-2.344H272v-40h8c4.418,0,8-3.582,8-8s-3.582-8-8-8h-8v-16h8c4.418,0,8-3.582,8-8s-3.582-8-8-8h-14.24
		c-4.514-5.07-10.972-7.979-17.76-8h-24v-40c0-4.418,3.582-8,8-8h224c4.418,0,8,3.582,8,8V256z"/>
</g>
<g>
	
		<linearGradient id="SVGID_6_" gradientUnits="userSpaceOnUse" x1="-48.875" y1="620.926" x2="-48.875" y2="555.821" gradientTransform="matrix(8 0 0 -8 455 4941)">
		<stop  offset="0" style="stop-color:#006DF0"/>
		<stop  offset="1" style="stop-color:#00E7F0"/>
	</linearGradient>
	<path style="fill:url(#SVGID_6_);" d="M72,216H56c-4.418,0-8,3.582-8,8s3.582,8,8,8h16c4.418,0,8-3.582,8-8S76.418,216,72,216z"/>
	
		<linearGradient id="SVGID_7_" gradientUnits="userSpaceOnUse" x1="-37.375" y1="620.926" x2="-37.375" y2="555.821" gradientTransform="matrix(8 0 0 -8 455 4941)">
		<stop  offset="0" style="stop-color:#006DF0"/>
		<stop  offset="1" style="stop-color:#00E7F0"/>
	</linearGradient>
	<path style="fill:url(#SVGID_7_);" d="M216,216H96c-4.418,0-8,3.582-8,8s3.582,8,8,8h120c4.418,0,8-3.582,8-8S220.418,216,216,216z
		"/>
	
		<linearGradient id="SVGID_8_" gradientUnits="userSpaceOnUse" x1="-48.875" y1="620.926" x2="-48.875" y2="555.821" gradientTransform="matrix(8 0 0 -8 455 4941)">
		<stop  offset="0" style="stop-color:#006DF0"/>
		<stop  offset="1" style="stop-color:#00E7F0"/>
	</linearGradient>
	<path style="fill:url(#SVGID_8_);" d="M72,248H56c-4.418,0-8,3.582-8,8s3.582,8,8,8h16c4.418,0,8-3.582,8-8S76.418,248,72,248z"/>
	
		<linearGradient id="SVGID_9_" gradientUnits="userSpaceOnUse" x1="-37.375" y1="620.926" x2="-37.375" y2="555.821" gradientTransform="matrix(8 0 0 -8 455 4941)">
		<stop  offset="0" style="stop-color:#006DF0"/>
		<stop  offset="1" style="stop-color:#00E7F0"/>
	</linearGradient>
	<path style="fill:url(#SVGID_9_);" d="M216,248H96c-4.418,0-8,3.582-8,8s3.582,8,8,8h120c4.418,0,8-3.582,8-8S220.418,248,216,248z
		"/>
	
		<linearGradient id="SVGID_10_" gradientUnits="userSpaceOnUse" x1="-48.875" y1="620.926" x2="-48.875" y2="555.821" gradientTransform="matrix(8 0 0 -8 455 4941)">
		<stop  offset="0" style="stop-color:#006DF0"/>
		<stop  offset="1" style="stop-color:#00E7F0"/>
	</linearGradient>
	<path style="fill:url(#SVGID_10_);" d="M72,280H56c-4.418,0-8,3.582-8,8s3.582,8,8,8h16c4.418,0,8-3.582,8-8S76.418,280,72,280z"/>
	
		<linearGradient id="SVGID_11_" gradientUnits="userSpaceOnUse" x1="-37.375" y1="620.926" x2="-37.375" y2="555.821" gradientTransform="matrix(8 0 0 -8 455 4941)">
		<stop  offset="0" style="stop-color:#006DF0"/>
		<stop  offset="1" style="stop-color:#00E7F0"/>
	</linearGradient>
	<path style="fill:url(#SVGID_11_);" d="M216,280H96c-4.418,0-8,3.582-8,8s3.582,8,8,8h120c4.418,0,8-3.582,8-8S220.418,280,216,280
		z"/>
	
		<linearGradient id="SVGID_12_" gradientUnits="userSpaceOnUse" x1="-22.875" y1="620.926" x2="-22.875" y2="555.821" gradientTransform="matrix(8 0 0 -8 455 4941)">
		<stop  offset="0" style="stop-color:#006DF0"/>
		<stop  offset="1" style="stop-color:#00E7F0"/>
	</linearGradient>
	<path style="fill:url(#SVGID_12_);" d="M280,144h-16c-4.418,0-8,3.582-8,8s3.582,8,8,8h16c4.418,0,8-3.582,8-8S284.418,144,280,144
		z"/>
	
		<linearGradient id="SVGID_13_" gradientUnits="userSpaceOnUse" x1="-11.375" y1="620.926" x2="-11.375" y2="555.821" gradientTransform="matrix(8 0 0 -8 455 4941)">
		<stop  offset="0" style="stop-color:#006DF0"/>
		<stop  offset="1" style="stop-color:#00E7F0"/>
	</linearGradient>
	<path style="fill:url(#SVGID_13_);" d="M424,144H304c-4.418,0-8,3.582-8,8s3.582,8,8,8h120c4.418,0,8-3.582,8-8
		S428.418,144,424,144z"/>
	
		<linearGradient id="SVGID_14_" gradientUnits="userSpaceOnUse" x1="-11.375" y1="620.926" x2="-11.375" y2="555.821" gradientTransform="matrix(8 0 0 -8 455 4941)">
		<stop  offset="0" style="stop-color:#006DF0"/>
		<stop  offset="1" style="stop-color:#00E7F0"/>
	</linearGradient>
	<path style="fill:url(#SVGID_14_);" d="M424,176H304c-4.418,0-8,3.582-8,8s3.582,8,8,8h120c4.418,0,8-3.582,8-8
		S428.418,176,424,176z"/>
	
		<linearGradient id="SVGID_15_" gradientUnits="userSpaceOnUse" x1="-11.375" y1="620.926" x2="-11.375" y2="555.821" gradientTransform="matrix(8 0 0 -8 455 4941)">
		<stop  offset="0" style="stop-color:#006DF0"/>
		<stop  offset="1" style="stop-color:#00E7F0"/>
	</linearGradient>
	<path style="fill:url(#SVGID_15_);" d="M424,208H304c-4.418,0-8,3.582-8,8s3.582,8,8,8h120c4.418,0,8-3.582,8-8
		S428.418,208,424,208z"/>
</g>
<g>
</g>
<g>
</g>
<g>
</g>
<g>
</g>
<g>
</g>
<g>
</g>
<g>
</g>
<g>
</g>
<g>
</g>
<g>
</g>
<g>
</g>
<g>
</g>
<g>
</g>
<g>
</g>
<g>
</g>
</svg>
