<?xml version="1.0" encoding="utf-8"?>
<!-- Generator: Adobe Illustrator 16.0.0, SVG Export Plug-In . SVG Version: 6.00 Build 0)  -->
<!DOCTYPE svg PUBLIC "-//W3C//DTD SVG 1.1//EN" "http://www.w3.org/Graphics/SVG/1.1/DTD/svg11.dtd">
<svg version="1.1" id="Layer_1" xmlns="http://www.w3.org/2000/svg" xmlns:xlink="http://www.w3.org/1999/xlink" x="0px" y="0px"
	 width="70px" height="70px" viewBox="0 0 70 70" enable-background="new 0 0 70 70" xml:space="preserve">
<g>
	<defs>
		<path id="SVGID_1_" d="M23.177,66.106c-0.002-0.547,0.355-1.029,0.877-1.189l7.59-2.373h6.715l7.592,2.373
			c0.521,0.16,0.877,0.643,0.875,1.189v0.695H23.177V66.106z M3.394,49.028h20.914c-0.955,2.723-5.355,4.848-10.457,4.848
			S4.349,51.751,3.394,49.028 M45.694,49.028h20.914c-0.953,2.723-5.355,4.848-10.457,4.848S46.649,51.751,45.694,49.028
			 M32.577,44.403c0-0.043,0.033-0.072,0.074-0.072h4.699c0.041,0,0.072,0.029,0.072,0.072v15.936h-4.846V44.403z M13.851,24.737
			l10.039,22.09H3.81L13.851,24.737z M56.151,24.737l10.041,22.09h-20.08L56.151,24.737z M38.454,12.906l18.885,3.049
			c0.037,0.006,0.063,0.035,0.063,0.071v0.175c0,0.039-0.035,0.073-0.072,0.073H38.454V12.906z M12.601,16.201v-0.181
			c0-0.037,0.027-0.065,0.063-0.073l18.887-3.146v3.474H12.673C12.634,16.274,12.601,16.24,12.601,16.201 M36.249,10.08v32.048
			h-2.496V10.08c0.408,0.114,0.828,0.173,1.248,0.173S35.839,10.194,36.249,10.08 M32.577,5.627c0.002-1.34,1.086-2.423,2.424-2.426
			c1.34,0,2.422,1.084,2.422,2.426c0,1.336-1.082,2.423-2.422,2.423C33.663,8.05,32.577,6.963,32.577,5.627 M31.55,2.539
			c-1.57,1.755-1.57,4.405,0,6.162v1.865L12.3,13.773c-1.1,0.182-1.904,1.133-1.902,2.247v0.181
			c0.002,1.258,1.021,2.274,2.275,2.275h0.074v3.361L1.099,47.472c-0.004,0.004-0.006,0.008-0.008,0.01
			c-0.008,0.023-0.016,0.043-0.025,0.066c-0.004,0.014-0.01,0.027-0.012,0.039c-0.008,0.02-0.012,0.041-0.018,0.059
			c-0.006,0.02-0.01,0.033-0.014,0.049c-0.004,0.018-0.006,0.031-0.008,0.049c-0.004,0.02-0.01,0.041-0.01,0.064
			c-0.002,0.01-0.002,0.023-0.006,0.035c0,0.025-0.002,0.051-0.002,0.078c0,0,0,0.004,0,0.006c0,0.016,0.002,0.033,0.002,0.047
			v0.037c0.068,4.531,5.689,8.068,12.85,8.068c7.164,0,12.781-3.537,12.852-8.068c0-0.012,0-0.025,0-0.037
			c0-0.014,0.002-0.031,0.002-0.045v-0.008c0-0.027-0.002-0.053-0.008-0.078c0-0.012,0-0.025,0-0.035
			c-0.002-0.023-0.006-0.045-0.01-0.064c-0.004-0.018-0.006-0.031-0.008-0.049c-0.004-0.016-0.01-0.029-0.014-0.049
			c-0.004-0.018-0.01-0.039-0.016-0.059c-0.006-0.012-0.008-0.025-0.016-0.037c-0.008-0.023-0.016-0.045-0.027-0.066
			c0-0.004,0-0.008-0.002-0.012L14.95,21.838v-3.36h16.6v23.938c-0.723,0.396-1.174,1.16-1.174,1.988v16.229l-6.98,2.18
			c-1.443,0.447-2.426,1.783-2.422,3.295v1.797c0,0.609,0.492,1.102,1.102,1.102h25.85c0.611,0,1.104-0.492,1.104-1.102v-1.797
			c0.006-1.512-0.979-2.848-2.422-3.295l-6.979-2.18V44.403c0-0.828-0.451-1.59-1.174-1.988V18.478h16.598v3.36L43.399,47.472
			c-0.002,0.004-0.002,0.008-0.006,0.012c-0.008,0.021-0.018,0.043-0.025,0.064c-0.004,0.014-0.01,0.027-0.014,0.039
			c-0.006,0.02-0.012,0.041-0.018,0.059c-0.004,0.02-0.008,0.033-0.01,0.049c-0.004,0.018-0.01,0.031-0.01,0.049
			c-0.004,0.02-0.008,0.041-0.01,0.064c-0.002,0.01-0.004,0.023-0.004,0.037c-0.002,0.023-0.004,0.049-0.004,0.076v0.008v0.045
			c0.002,0.012,0,0.025,0.004,0.037c0.068,4.531,5.686,8.068,12.848,8.068c7.164,0,12.779-3.537,12.85-8.068
			c0.002-0.012,0.002-0.025,0.002-0.037c0-0.014,0-0.031,0-0.045c0-0.004,0-0.008,0-0.008c0-0.027,0-0.053-0.002-0.078
			c-0.002-0.012-0.002-0.025-0.004-0.035c-0.002-0.023-0.004-0.045-0.01-0.064c-0.002-0.018-0.006-0.031-0.01-0.049
			c-0.002-0.016-0.008-0.029-0.012-0.049c-0.004-0.018-0.008-0.039-0.016-0.059c-0.004-0.012-0.01-0.025-0.016-0.039
			c-0.008-0.023-0.018-0.043-0.025-0.066c0-0.002-0.002-0.006-0.004-0.01l-11.65-25.634v-3.36h0.074
			c1.256-0.002,2.273-1.019,2.275-2.276v-0.175c0.002-1.12-0.809-2.071-1.914-2.248l-19.236-3.103V8.701
			c1.699-1.906,1.535-4.831-0.371-6.532c-0.883-0.785-1.984-1.174-3.08-1.174C33.729,0.995,32.464,1.516,31.55,2.539"/>
	</defs>
	<clipPath id="SVGID_2_">
		<use xlink:href="#SVGID_1_"  overflow="visible"/>
	</clipPath>
	
		<linearGradient id="SVGID_3_" gradientUnits="userSpaceOnUse" x1="-863.1646" y1="2394.8242" x2="-862.165" y2="2394.8242" gradientTransform="matrix(0 68.0119 68.0119 0 -162841.5 58706.4609)">
		<stop  offset="0" style="stop-color:#90D4D6"/>
		<stop  offset="0.1515" style="stop-color:#85C3D1"/>
		<stop  offset="0.458" style="stop-color:#6BA0C5"/>
		<stop  offset="0.8881" style="stop-color:#446FB2"/>
		<stop  offset="1" style="stop-color:#3963AE"/>
	</linearGradient>
	<rect x="0.997" y="0.994" clip-path="url(#SVGID_2_)" fill="url(#SVGID_3_)" width="68.006" height="68.011"/>
</g>
</svg>
