<?xml version="1.0" encoding="iso-8859-1"?>
<!-- Generator: Adobe Illustrator 19.0.0, SVG Export Plug-In . SVG Version: 6.00 Build 0)  -->
<svg version="1.1" id="Capa_1" xmlns="http://www.w3.org/2000/svg" xmlns:xlink="http://www.w3.org/1999/xlink" x="0px" y="0px"
	 viewBox="0 0 480 480" style="enable-background:new 0 0 480 480;" xml:space="preserve">
<g>
	
		<linearGradient id="SVGID_1_" gradientUnits="userSpaceOnUse" x1="-26.875" y1="617.863" x2="-26.875" y2="556.075" gradientTransform="matrix(8 0 0 -8 455 4941)">
		<stop  offset="0" style="stop-color:#006DF0"/>
		<stop  offset="1" style="stop-color:#00E7F0"/>
	</linearGradient>
	<path style="fill:url(#SVGID_1_);" d="M344,0H136c-22.08,0.026-39.974,17.92-40,40v96c0,4.418,3.582,8,8,8s8-3.582,8-8V64h256v72
		c0,4.418,3.582,8,8,8s8-3.582,8-8V32C384,17.6,365.544,0,344,0z M112,48v-8c0-13.255,10.745-24,24-24h208c13.864,0,24,11.2,24,16
		v16H112z"/>
	
		<linearGradient id="SVGID_2_" gradientUnits="userSpaceOnUse" x1="-26.875" y1="617.863" x2="-26.875" y2="556.075" gradientTransform="matrix(8 0 0 -8 455 4941)">
		<stop  offset="0" style="stop-color:#006DF0"/>
		<stop  offset="1" style="stop-color:#00E7F0"/>
	</linearGradient>
	<path style="fill:url(#SVGID_2_);" d="M232,24h16v16h-16V24z"/>
	
		<linearGradient id="SVGID_3_" gradientUnits="userSpaceOnUse" x1="-26.875" y1="617.863" x2="-26.875" y2="556.075" gradientTransform="matrix(8 0 0 -8 455 4941)">
		<stop  offset="0" style="stop-color:#006DF0"/>
		<stop  offset="1" style="stop-color:#00E7F0"/>
	</linearGradient>
	<path style="fill:url(#SVGID_3_);" d="M376,336c-4.418,0-8,3.582-8,8v72H264v16h104v8c0,13.255-10.745,24-24,24H136
		c-13.255,0-24-10.745-24-24v-8h104v-16H112v-72c0-4.418-3.582-8-8-8s-8,3.582-8,8v96c0.026,22.08,17.92,39.974,40,40h208
		c22.08-0.026,39.974-17.92,40-40v-96C384,339.582,380.418,336,376,336z"/>
	
		<linearGradient id="SVGID_4_" gradientUnits="userSpaceOnUse" x1="-26.875" y1="617.863" x2="-26.875" y2="556.075" gradientTransform="matrix(8 0 0 -8 455 4941)">
		<stop  offset="0" style="stop-color:#006DF0"/>
		<stop  offset="1" style="stop-color:#00E7F0"/>
	</linearGradient>
	<path style="fill:url(#SVGID_4_);" d="M232,416h16v16h-16V416z"/>
</g>
<linearGradient id="SVGID_5_" gradientUnits="userSpaceOnUse" x1="-26.8727" y1="617.863" x2="-26.8727" y2="556.075" gradientTransform="matrix(8 0 0 -8 455 4941)">
	<stop  offset="0" style="stop-color:#006DF0"/>
	<stop  offset="1" style="stop-color:#00E7F0"/>
</linearGradient>
<path style="fill:url(#SVGID_5_);" d="M101.432,320c5.6,9.728,17.192,14.64,34.456,14.64c0.568,0,1.216-0.064,1.8-0.072
	c0.2,0.376,0.312,0.8,0.528,1.144c6.599,11.496,21.267,15.466,32.762,8.867c6.672-3.83,11.104-10.625,11.918-18.275
	c2.955-0.88,5.949-1.832,8.984-2.856C200.8,367.2,217.048,400,240,400s39.248-32.888,48.136-76.648
	c17.982,6.571,36.872,10.322,56,11.12c16.248,0,28.568-4.368,34.4-14.472s3.896-23.064-5.512-38.68
	c0.232-0.36,0.504-0.656,0.728-1.032c6.649-11.466,2.744-26.152-8.722-32.801c-6.645-3.854-14.734-4.293-21.758-1.183
	c-2.245-2.133-4.571-4.251-6.976-6.352C369.736,210.4,390.04,179.88,378.56,160s-48.088-17.536-90.4-3.36
	C279.248,112.88,262.968,80,240,80c-11.608,0-21.928,8.16-30.744,24.112c-0.424,0-0.8-0.112-1.256-0.112
	c-13.255-0.022-24.018,10.704-24.041,23.959c-0.013,7.677,3.648,14.898,9.849,19.425c-0.704,3.008-1.384,6.08-2.016,9.232
	c-42.296-14.152-78.872-16.496-90.36,3.384s8.848,50.4,42.296,80C110.28,269.6,89.952,300.112,101.432,320L101.432,320z
	 M163.032,330.64c-3.827,2.207-8.72,0.894-10.927-2.934c0-0.001-0.001-0.001-0.001-0.002c-0.498-0.832-0.817-1.758-0.936-2.72
	c-0.126-0.795-0.126-1.605,0-2.4c0.352-2.422,1.793-4.551,3.912-5.776c0.807-0.448,1.688-0.749,2.6-0.888
	c0.23-0.041,0.463-0.07,0.696-0.088c3.096-0.353,6.102,1.182,7.632,3.896c0.431,0.707,0.727,1.489,0.872,2.304v0.096
	c0.655,3.375-0.903,6.793-3.88,8.512L163.032,330.64z M240,384c-11.032,0-24.912-24-33.08-65.992
	c10.792-4.192,21.896-9.104,33.088-14.608c11.048,5.408,22.176,10.312,33.088,14.544C264.928,359.944,251.04,384,240,384z M200,240
	c0-7.648,0.2-15.248,0.56-22.744c6.192-4,12.592-7.944,19.44-11.896s13.488-7.576,20-10.944c6.512,3.365,13.179,7.013,20,10.944
	c6.624,3.824,13.096,7.776,19.416,11.856C279.76,224.568,280,232.096,280,240s-0.24,15.416-0.584,22.752
	c-6.184,4-12.576,7.944-19.416,11.888c-6.624,3.824-13.304,7.456-20,10.888c-6.536-3.376-13.176-6.936-20-10.888
	s-13.232-7.912-19.416-11.888C200.24,255.416,200,247.896,200,240z M184.16,251.72c-5.6-3.944-10.848-7.856-15.768-11.72
	c4.92-3.864,10.2-7.776,15.768-11.72c-0.088,3.896-0.16,7.8-0.16,11.72C184,243.92,184.064,247.808,184.16,251.72z M202,197.456
	c0.624-6.651,1.395-13.133,2.312-19.448c5.792,2.325,11.787,4.912,17.984,7.76c-3.456,1.88-6.904,3.776-10.296,5.736
	S205.312,195.432,202,197.456L202,197.456z M257.704,185.768c6.224-2.875,12.256-5.477,18.096-7.808
	c0.896,6.2,1.6,12.736,2.272,19.544c-3.328-2.032-6.672-4-10.072-6S261.16,187.648,257.704,185.768L257.704,185.768z
	 M295.84,228.352c5.44,3.872,10.664,7.779,15.672,11.72c-4.888,3.848-10.136,7.736-15.672,11.648c0.096-3.912,0.16-7.824,0.16-11.72
	S295.936,232.24,295.84,228.352L295.84,228.352z M278.072,282.496c-0.632,6.8-1.376,13.328-2.264,19.52
	c-5.808-2.328-11.84-4.944-18.04-7.8c3.424-1.864,6.84-3.752,10.232-5.72S274.728,284.544,278.072,282.496L278.072,282.496z
	 M212,288.496c3.352,1.944,6.752,3.824,10.168,5.688c-6.075,2.773-12.072,5.344-17.992,7.712c-0.88-6.152-1.6-12.648-2.248-19.4
	C205.272,284.565,208.629,286.565,212,288.496z M357,261.36c3.821,2.209,5.132,7.096,2.928,10.92
	c-0.474,0.854-1.119,1.6-1.896,2.192c-2.015,1.639-4.708,2.18-7.2,1.448c-0.639-0.157-1.255-0.397-1.832-0.712
	c-1.842-1.051-3.181-2.803-3.712-4.856c-0.551-2.045-0.263-4.225,0.8-6.056c0.412-0.732,0.955-1.382,1.6-1.92l0.072-0.056
	c2.572-2.289,6.319-2.675,9.304-0.96H357z M331.672,257.256c-0.32,0.624-0.512,1.288-0.8,1.928s-0.536,1.184-0.728,1.8
	c-0.257,0.867-0.463,1.749-0.616,2.64c-0.12,0.6-0.288,1.176-0.36,1.776c-0.096,0.994-0.128,1.994-0.096,2.992
	c0,0.52-0.056,1.032,0,1.552c0.212,3.124,1.027,6.178,2.4,8.992c2.169,4.193,5.459,7.702,9.504,10.136l0.128,0.056
	c1.657,0.926,3.419,1.651,5.248,2.16c0.576,0.168,1.16,0.24,1.744,0.368c1.277,0.272,2.575,0.438,3.88,0.496
	c0.344,0,0.688,0.136,1.04,0.136c0.552,0,1.096-0.104,1.648-0.136s0.856-0.056,1.288-0.112c1.388-0.167,2.759-0.456,4.096-0.864
	c0.08,0,0.168,0,0.248-0.048c5.24,9.184,6.848,16.616,4.392,20.872c-5.528,9.6-33.304,9.6-73.768-4.368
	c1.792-11.576,3.12-23.656,3.96-35.928c10.192-6.856,20-14.032,29.088-21.36C326.656,252.648,329.224,254.952,331.672,257.256
	L331.672,257.256z M344.28,161.256c10.808,0,17.912,2.4,20.424,6.744c5.52,9.552-8.352,33.6-40.608,61.648
	c-9.024-7.248-18.832-14.4-29.192-21.352c-0.8-12.288-2.168-24.384-4-36C308.008,165.843,326.02,162.118,344.28,161.256
	L344.28,161.256z M208,120c0.971-0.014,1.935,0.171,2.832,0.544c4.118,1.601,6.158,6.237,4.557,10.355
	c-1.187,3.053-4.114,5.073-7.389,5.101c-0.836,0.021-1.669-0.115-2.456-0.4h-0.04c-4.197-1.38-6.482-5.901-5.102-10.098
	C201.481,122.22,204.545,120.001,208,120L208,120z M209.112,152c0.704,0,1.36-0.2,2.04-0.296s1.432-0.152,2.12-0.304
	c0.812-0.213,1.613-0.467,2.4-0.76c0.656-0.224,1.328-0.408,1.96-0.688c0.756-0.362,1.493-0.762,2.208-1.2
	c0.6-0.344,1.216-0.648,1.784-1.04c0.669-0.5,1.313-1.034,1.928-1.6c0.512-0.448,1.064-0.848,1.536-1.336
	c0.57-0.625,1.104-1.283,1.6-1.968c0.416-0.52,0.872-1,1.24-1.552c0.467-0.778,0.894-1.579,1.28-2.4
	c0.288-0.56,0.632-1.088,0.88-1.672c0.357-0.937,0.654-1.897,0.888-2.872c0.152-0.528,0.368-1.032,0.48-1.6
	c0.646-3.065,0.646-6.231,0-9.296c-0.08-0.408-0.184-0.8-0.28-1.208c-0.292-1.171-0.671-2.318-1.136-3.432
	c-0.12-0.288-0.208-0.576-0.344-0.856c-0.636-1.403-1.405-2.743-2.296-4l-0.176-0.208c-0.868-1.182-1.849-2.278-2.928-3.272
	c-0.08-0.088-0.144-0.192-0.232-0.272C229.456,101.112,235.088,96,240,96c11.048,0,24.936,24.072,33.104,66.104
	c-10.928,4.232-22.048,9.104-33.104,14.52c-11.032-5.4-22.136-10.272-33.04-14.496C207.632,158.664,208.352,155.264,209.112,152
	L209.112,152z M115.296,168c2.512-4.352,9.6-6.744,20.424-6.744c18.226,0.872,36.202,4.6,53.272,11.048
	c-1.768,11.456-3.072,23.544-3.904,36c-10.208,6.864-20,14.048-29.128,21.392C123.664,201.6,109.768,177.6,115.296,168L115.296,168z
	 M156,250.304c9.12,7.344,18.928,14.536,29.136,21.4c0.84,12.248,2.16,24.312,3.952,35.856c-3.328,1.144-6.616,2.216-9.832,3.2
	c-0.4-0.624-0.896-1.152-1.344-1.72s-0.704-0.984-1.112-1.432c-0.647-0.685-1.336-1.329-2.064-1.928
	c-0.432-0.376-0.8-0.8-1.288-1.136c-0.823-0.589-1.683-1.124-2.576-1.6c-0.44-0.248-0.848-0.552-1.304-0.8
	c-1.387-0.668-2.833-1.203-4.32-1.6c-6.146-1.662-12.702-0.798-18.208,2.4l-0.112,0.08c-1.262,0.751-2.452,1.619-3.552,2.592
	c-0.328,0.288-0.632,0.584-0.944,0.888c-0.865,0.821-1.667,1.707-2.4,2.648c-0.2,0.256-0.408,0.496-0.592,0.752
	c-0.887,1.258-1.654,2.597-2.288,4l-0.088,0.216c-0.593,1.362-1.056,2.776-1.384,4.224c0,0.104-0.08,0.2-0.104,0.312
	c-10.576-0.056-17.824-2.4-20.272-6.632C109.768,302.44,123.664,278.4,156,250.304L156,250.304z"/>
<g>
</g>
<g>
</g>
<g>
</g>
<g>
</g>
<g>
</g>
<g>
</g>
<g>
</g>
<g>
</g>
<g>
</g>
<g>
</g>
<g>
</g>
<g>
</g>
<g>
</g>
<g>
</g>
<g>
</g>
</svg>
