<?xml version="1.0" encoding="utf-8"?>
<!-- Generator: Adobe Illustrator 16.0.0, SVG Export Plug-In . SVG Version: 6.00 Build 0)  -->
<!DOCTYPE svg PUBLIC "-//W3C//DTD SVG 1.1//EN" "http://www.w3.org/Graphics/SVG/1.1/DTD/svg11.dtd">
<svg version="1.1" id="Layer_1" xmlns="http://www.w3.org/2000/svg" xmlns:xlink="http://www.w3.org/1999/xlink" x="0px" y="0px"
	 width="79.796px" height="79.797px" viewBox="0 0 79.796 79.797" enable-background="new 0 0 79.796 79.797" xml:space="preserve">
<g>
	
		<linearGradient id="SVGID_1_" gradientUnits="userSpaceOnUse" x1="659.5869" y1="302.7197" x2="659.5869" y2="136.9842" gradientTransform="matrix(0.5 0 0 0.5 -289.8955 -69.1875)">
		<stop  offset="0" style="stop-color:#F37E5F"/>
		<stop  offset="0.5" style="stop-color:#EC1C24"/>
		<stop  offset="1" style="stop-color:#CF232A"/>
	</linearGradient>
	<path fill="url(#SVGID_1_)" d="M75.806,23.939c2.203,0,3.99-1.786,3.99-3.99V3.99c0-2.204-1.787-3.99-3.99-3.99H3.989
		C1.784,0,0,1.786,0,3.99v15.959c0,2.204,1.784,3.99,3.989,3.99h3.99v3.99h-3.99C1.784,27.929,0,29.714,0,31.918v15.96
		c0,2.201,1.784,3.989,3.989,3.989h3.99v3.99h-3.99C1.784,55.857,0,57.645,0,59.848v15.959c0,2.203,1.784,3.99,3.989,3.99h71.816
		c2.203,0,3.99-1.787,3.99-3.99V59.848c0-2.203-1.787-3.99-3.99-3.99h-3.989v-3.99h3.989c2.203,0,3.99-1.788,3.99-3.989v-15.96
		c0-2.204-1.787-3.99-3.99-3.99h-3.989v-3.99H75.806z M2.659,19.949V3.99c0-0.735,0.596-1.33,1.33-1.33h71.816
		c0.735,0,1.33,0.595,1.33,1.33v15.959c0,0.735-0.595,1.33-1.33,1.33H3.989C3.255,21.279,2.659,20.684,2.659,19.949z M15.959,27.929
		v-3.99h47.878v3.99H15.959z M10.64,23.939h2.66v3.99h-2.66V23.939z M10.64,51.867h2.66v3.99h-2.66V51.867z M63.837,51.867v3.99
		H15.959v-3.99H63.837z M77.136,59.848v15.959c0,0.734-0.595,1.33-1.33,1.33H3.989c-0.734,0-1.33-0.596-1.33-1.33V59.848
		c0-0.734,0.596-1.33,1.33-1.33h71.816C76.541,58.518,77.136,59.113,77.136,59.848z M69.156,55.857h-2.659v-3.99h2.659V55.857z
		 M77.136,31.918v15.96c0,0.734-0.595,1.328-1.33,1.328H3.989c-0.734,0-1.33-0.594-1.33-1.328v-15.96c0-0.735,0.596-1.33,1.33-1.33
		h71.816C76.541,30.588,77.136,31.184,77.136,31.918z M69.156,27.929h-2.659v-3.99h2.659V27.929z"/>
	<g>
		
			<linearGradient id="SVGID_2_" gradientUnits="userSpaceOnUse" x1="631.6406" y1="302.7246" x2="631.6406" y2="136.9829" gradientTransform="matrix(0.5 0 0 0.5 -289.8955 -69.1875)">
			<stop  offset="0" style="stop-color:#F37E5F"/>
			<stop  offset="0.5" style="stop-color:#EC1C24"/>
			<stop  offset="1" style="stop-color:#CF232A"/>
		</linearGradient>
		<path fill="url(#SVGID_2_)" d="M15.715,13.299h26.843c0.735,0,1.33-0.595,1.33-1.33c0-0.735-0.595-1.33-1.33-1.33H15.715
			c-0.735-2.078-3.016-3.167-5.094-2.432c-2.075,0.734-3.163,3.013-2.431,5.091c0.734,2.078,3.016,3.167,5.09,2.431
			C14.419,15.329,15.312,14.436,15.715,13.299z M10.64,11.969c0-0.735,0.594-1.33,1.33-1.33c0.734,0,1.33,0.595,1.33,1.33
			c0,0.735-0.596,1.33-1.33,1.33C11.233,13.299,10.64,12.705,10.64,11.969z"/>
		
			<linearGradient id="SVGID_3_" gradientUnits="userSpaceOnUse" x1="699.4844" y1="302.6797" x2="699.4844" y2="136.9888" gradientTransform="matrix(0.5 0 0 0.5 -289.8955 -69.1875)">
			<stop  offset="0" style="stop-color:#F37E5F"/>
			<stop  offset="0.5" style="stop-color:#EC1C24"/>
			<stop  offset="1" style="stop-color:#CF232A"/>
		</linearGradient>
		<path fill="url(#SVGID_3_)" d="M58.517,5.32h2.66v2.66h-2.66V5.32z"/>
		
			<linearGradient id="SVGID_4_" gradientUnits="userSpaceOnUse" x1="710.125" y1="302.6797" x2="710.125" y2="136.9888" gradientTransform="matrix(0.5 0 0 0.5 -289.8955 -69.1875)">
			<stop  offset="0" style="stop-color:#F37E5F"/>
			<stop  offset="0.5" style="stop-color:#EC1C24"/>
			<stop  offset="1" style="stop-color:#CF232A"/>
		</linearGradient>
		<path fill="url(#SVGID_4_)" d="M63.837,5.32h2.66v2.66h-2.66V5.32z"/>
		
			<linearGradient id="SVGID_5_" gradientUnits="userSpaceOnUse" x1="720.7637" y1="302.6797" x2="720.7637" y2="136.9888" gradientTransform="matrix(0.5 0 0 0.5 -289.8955 -69.1875)">
			<stop  offset="0" style="stop-color:#F37E5F"/>
			<stop  offset="0.5" style="stop-color:#EC1C24"/>
			<stop  offset="1" style="stop-color:#CF232A"/>
		</linearGradient>
		<path fill="url(#SVGID_5_)" d="M69.156,5.32h2.66v2.66h-2.66V5.32z"/>
		
			<linearGradient id="SVGID_6_" gradientUnits="userSpaceOnUse" x1="688.8447" y1="302.6797" x2="688.8447" y2="136.9888" gradientTransform="matrix(0.5 0 0 0.5 -289.8955 -69.1875)">
			<stop  offset="0" style="stop-color:#F37E5F"/>
			<stop  offset="0.5" style="stop-color:#EC1C24"/>
			<stop  offset="1" style="stop-color:#CF232A"/>
		</linearGradient>
		<path fill="url(#SVGID_6_)" d="M53.197,5.32h2.659v2.66h-2.659V5.32z"/>
		
			<linearGradient id="SVGID_7_" gradientUnits="userSpaceOnUse" x1="678.2061" y1="302.6797" x2="678.2061" y2="136.9888" gradientTransform="matrix(0.5 0 0 0.5 -289.8955 -69.1875)">
			<stop  offset="0" style="stop-color:#F37E5F"/>
			<stop  offset="0.5" style="stop-color:#EC1C24"/>
			<stop  offset="1" style="stop-color:#CF232A"/>
		</linearGradient>
		<path fill="url(#SVGID_7_)" d="M47.878,5.32h2.659v2.66h-2.659V5.32z"/>
		
			<linearGradient id="SVGID_8_" gradientUnits="userSpaceOnUse" x1="699.4844" y1="302.7334" x2="699.4844" y2="136.9817" gradientTransform="matrix(0.5 0 0 0.5 -289.8955 -69.1875)">
			<stop  offset="0" style="stop-color:#F37E5F"/>
			<stop  offset="0.5" style="stop-color:#EC1C24"/>
			<stop  offset="1" style="stop-color:#CF232A"/>
		</linearGradient>
		<path fill="url(#SVGID_8_)" d="M58.517,10.64h2.66v2.66h-2.66V10.64z"/>
		
			<linearGradient id="SVGID_9_" gradientUnits="userSpaceOnUse" x1="710.125" y1="302.7334" x2="710.125" y2="136.9817" gradientTransform="matrix(0.5 0 0 0.5 -289.8955 -69.1875)">
			<stop  offset="0" style="stop-color:#F37E5F"/>
			<stop  offset="0.5" style="stop-color:#EC1C24"/>
			<stop  offset="1" style="stop-color:#CF232A"/>
		</linearGradient>
		<path fill="url(#SVGID_9_)" d="M63.837,10.64h2.66v2.66h-2.66V10.64z"/>
		
			<linearGradient id="SVGID_10_" gradientUnits="userSpaceOnUse" x1="720.7637" y1="302.7334" x2="720.7637" y2="136.9817" gradientTransform="matrix(0.5 0 0 0.5 -289.8955 -69.1875)">
			<stop  offset="0" style="stop-color:#F37E5F"/>
			<stop  offset="0.5" style="stop-color:#EC1C24"/>
			<stop  offset="1" style="stop-color:#CF232A"/>
		</linearGradient>
		<path fill="url(#SVGID_10_)" d="M69.156,10.64h2.66v2.66h-2.66V10.64z"/>
		
			<linearGradient id="SVGID_11_" gradientUnits="userSpaceOnUse" x1="688.8447" y1="302.7334" x2="688.8447" y2="136.9817" gradientTransform="matrix(0.5 0 0 0.5 -289.8955 -69.1875)">
			<stop  offset="0" style="stop-color:#F37E5F"/>
			<stop  offset="0.5" style="stop-color:#EC1C24"/>
			<stop  offset="1" style="stop-color:#CF232A"/>
		</linearGradient>
		<path fill="url(#SVGID_11_)" d="M53.197,10.64h2.659v2.66h-2.659V10.64z"/>
		
			<linearGradient id="SVGID_12_" gradientUnits="userSpaceOnUse" x1="678.2061" y1="302.7334" x2="678.2061" y2="136.9817" gradientTransform="matrix(0.5 0 0 0.5 -289.8955 -69.1875)">
			<stop  offset="0" style="stop-color:#F37E5F"/>
			<stop  offset="0.5" style="stop-color:#EC1C24"/>
			<stop  offset="1" style="stop-color:#CF232A"/>
		</linearGradient>
		<path fill="url(#SVGID_12_)" d="M47.878,10.64h2.659v2.66h-2.659V10.64z"/>
		
			<linearGradient id="SVGID_13_" gradientUnits="userSpaceOnUse" x1="699.4844" y1="302.7314" x2="699.4844" y2="136.9797" gradientTransform="matrix(0.5 0 0 0.5 -289.8955 -69.1875)">
			<stop  offset="0" style="stop-color:#F37E5F"/>
			<stop  offset="0.5" style="stop-color:#EC1C24"/>
			<stop  offset="1" style="stop-color:#CF232A"/>
		</linearGradient>
		<path fill="url(#SVGID_13_)" d="M58.517,15.959h2.66v2.66h-2.66V15.959z"/>
		
			<linearGradient id="SVGID_14_" gradientUnits="userSpaceOnUse" x1="710.125" y1="302.7314" x2="710.125" y2="136.9797" gradientTransform="matrix(0.5 0 0 0.5 -289.8955 -69.1875)">
			<stop  offset="0" style="stop-color:#F37E5F"/>
			<stop  offset="0.5" style="stop-color:#EC1C24"/>
			<stop  offset="1" style="stop-color:#CF232A"/>
		</linearGradient>
		<path fill="url(#SVGID_14_)" d="M63.837,15.959h2.66v2.66h-2.66V15.959z"/>
		
			<linearGradient id="SVGID_15_" gradientUnits="userSpaceOnUse" x1="720.7637" y1="302.7314" x2="720.7637" y2="136.9797" gradientTransform="matrix(0.5 0 0 0.5 -289.8955 -69.1875)">
			<stop  offset="0" style="stop-color:#F37E5F"/>
			<stop  offset="0.5" style="stop-color:#EC1C24"/>
			<stop  offset="1" style="stop-color:#CF232A"/>
		</linearGradient>
		<path fill="url(#SVGID_15_)" d="M69.156,15.959h2.66v2.66h-2.66V15.959z"/>
		
			<linearGradient id="SVGID_16_" gradientUnits="userSpaceOnUse" x1="688.8447" y1="302.7314" x2="688.8447" y2="136.9797" gradientTransform="matrix(0.5 0 0 0.5 -289.8955 -69.1875)">
			<stop  offset="0" style="stop-color:#F37E5F"/>
			<stop  offset="0.5" style="stop-color:#EC1C24"/>
			<stop  offset="1" style="stop-color:#CF232A"/>
		</linearGradient>
		<path fill="url(#SVGID_16_)" d="M53.197,15.959h2.659v2.66h-2.659V15.959z"/>
		
			<linearGradient id="SVGID_17_" gradientUnits="userSpaceOnUse" x1="678.2061" y1="302.7314" x2="678.2061" y2="136.9797" gradientTransform="matrix(0.5 0 0 0.5 -289.8955 -69.1875)">
			<stop  offset="0" style="stop-color:#F37E5F"/>
			<stop  offset="0.5" style="stop-color:#EC1C24"/>
			<stop  offset="1" style="stop-color:#CF232A"/>
		</linearGradient>
		<path fill="url(#SVGID_17_)" d="M47.878,15.959h2.659v2.66h-2.659V15.959z"/>
		
			<linearGradient id="SVGID_18_" gradientUnits="userSpaceOnUse" x1="631.6406" y1="302.7217" x2="631.6406" y2="136.98" gradientTransform="matrix(0.5 0 0 0.5 -289.8955 -69.1875)">
			<stop  offset="0" style="stop-color:#F37E5F"/>
			<stop  offset="0.5" style="stop-color:#EC1C24"/>
			<stop  offset="1" style="stop-color:#CF232A"/>
		</linearGradient>
		<path fill="url(#SVGID_18_)" d="M42.558,38.568H15.715c-0.735-2.078-3.016-3.167-5.094-2.432
			c-2.075,0.734-3.163,3.013-2.431,5.092c0.734,2.078,3.016,3.166,5.09,2.431c1.139-0.399,2.031-1.294,2.432-2.431h26.846
			c0.735,0,1.33-0.596,1.33-1.331S43.293,38.568,42.558,38.568z M11.97,41.229c-0.736,0-1.33-0.596-1.33-1.331s0.594-1.33,1.33-1.33
			c0.734,0,1.33,0.595,1.33,1.33S12.704,41.229,11.97,41.229z"/>
		
			<linearGradient id="SVGID_19_" gradientUnits="userSpaceOnUse" x1="699.4844" y1="302.6943" x2="699.4844" y2="137.0034" gradientTransform="matrix(0.5 0 0 0.5 -289.8955 -69.1875)">
			<stop  offset="0" style="stop-color:#F37E5F"/>
			<stop  offset="0.5" style="stop-color:#EC1C24"/>
			<stop  offset="1" style="stop-color:#CF232A"/>
		</linearGradient>
		<path fill="url(#SVGID_19_)" d="M58.517,33.249h2.66v2.66h-2.66V33.249z"/>
		
			<linearGradient id="SVGID_20_" gradientUnits="userSpaceOnUse" x1="710.125" y1="302.6943" x2="710.125" y2="137.0034" gradientTransform="matrix(0.5 0 0 0.5 -289.8955 -69.1875)">
			<stop  offset="0" style="stop-color:#F37E5F"/>
			<stop  offset="0.5" style="stop-color:#EC1C24"/>
			<stop  offset="1" style="stop-color:#CF232A"/>
		</linearGradient>
		<path fill="url(#SVGID_20_)" d="M63.837,33.249h2.66v2.66h-2.66V33.249z"/>
		
			<linearGradient id="SVGID_21_" gradientUnits="userSpaceOnUse" x1="720.7637" y1="302.6943" x2="720.7637" y2="137.0034" gradientTransform="matrix(0.5 0 0 0.5 -289.8955 -69.1875)">
			<stop  offset="0" style="stop-color:#F37E5F"/>
			<stop  offset="0.5" style="stop-color:#EC1C24"/>
			<stop  offset="1" style="stop-color:#CF232A"/>
		</linearGradient>
		<path fill="url(#SVGID_21_)" d="M69.156,33.249h2.66v2.66h-2.66V33.249z"/>
		
			<linearGradient id="SVGID_22_" gradientUnits="userSpaceOnUse" x1="688.8447" y1="302.6943" x2="688.8447" y2="137.0034" gradientTransform="matrix(0.5 0 0 0.5 -289.8955 -69.1875)">
			<stop  offset="0" style="stop-color:#F37E5F"/>
			<stop  offset="0.5" style="stop-color:#EC1C24"/>
			<stop  offset="1" style="stop-color:#CF232A"/>
		</linearGradient>
		<path fill="url(#SVGID_22_)" d="M53.197,33.249h2.659v2.66h-2.659V33.249z"/>
		
			<linearGradient id="SVGID_23_" gradientUnits="userSpaceOnUse" x1="678.2061" y1="302.6943" x2="678.2061" y2="137.0034" gradientTransform="matrix(0.5 0 0 0.5 -289.8955 -69.1875)">
			<stop  offset="0" style="stop-color:#F37E5F"/>
			<stop  offset="0.5" style="stop-color:#EC1C24"/>
			<stop  offset="1" style="stop-color:#CF232A"/>
		</linearGradient>
		<path fill="url(#SVGID_23_)" d="M47.878,33.249h2.659v2.66h-2.659V33.249z"/>
		
			<linearGradient id="SVGID_24_" gradientUnits="userSpaceOnUse" x1="699.4844" y1="302.7275" x2="699.4844" y2="136.9758" gradientTransform="matrix(0.5 0 0 0.5 -289.8955 -69.1875)">
			<stop  offset="0" style="stop-color:#F37E5F"/>
			<stop  offset="0.5" style="stop-color:#EC1C24"/>
			<stop  offset="1" style="stop-color:#CF232A"/>
		</linearGradient>
		<path fill="url(#SVGID_24_)" d="M58.517,38.568h2.66v2.66h-2.66V38.568z"/>
		
			<linearGradient id="SVGID_25_" gradientUnits="userSpaceOnUse" x1="710.125" y1="302.7275" x2="710.125" y2="136.9758" gradientTransform="matrix(0.5 0 0 0.5 -289.8955 -69.1875)">
			<stop  offset="0" style="stop-color:#F37E5F"/>
			<stop  offset="0.5" style="stop-color:#EC1C24"/>
			<stop  offset="1" style="stop-color:#CF232A"/>
		</linearGradient>
		<path fill="url(#SVGID_25_)" d="M63.837,38.568h2.66v2.66h-2.66V38.568z"/>
		
			<linearGradient id="SVGID_26_" gradientUnits="userSpaceOnUse" x1="720.7637" y1="302.7275" x2="720.7637" y2="136.9758" gradientTransform="matrix(0.5 0 0 0.5 -289.8955 -69.1875)">
			<stop  offset="0" style="stop-color:#F37E5F"/>
			<stop  offset="0.5" style="stop-color:#EC1C24"/>
			<stop  offset="1" style="stop-color:#CF232A"/>
		</linearGradient>
		<path fill="url(#SVGID_26_)" d="M69.156,38.568h2.66v2.66h-2.66V38.568z"/>
		
			<linearGradient id="SVGID_27_" gradientUnits="userSpaceOnUse" x1="688.8447" y1="302.7275" x2="688.8447" y2="136.9758" gradientTransform="matrix(0.5 0 0 0.5 -289.8955 -69.1875)">
			<stop  offset="0" style="stop-color:#F37E5F"/>
			<stop  offset="0.5" style="stop-color:#EC1C24"/>
			<stop  offset="1" style="stop-color:#CF232A"/>
		</linearGradient>
		<path fill="url(#SVGID_27_)" d="M53.197,38.568h2.659v2.66h-2.659V38.568z"/>
		
			<linearGradient id="SVGID_28_" gradientUnits="userSpaceOnUse" x1="678.2061" y1="302.7275" x2="678.2061" y2="136.9758" gradientTransform="matrix(0.5 0 0 0.5 -289.8955 -69.1875)">
			<stop  offset="0" style="stop-color:#F37E5F"/>
			<stop  offset="0.5" style="stop-color:#EC1C24"/>
			<stop  offset="1" style="stop-color:#CF232A"/>
		</linearGradient>
		<path fill="url(#SVGID_28_)" d="M47.878,38.568h2.659v2.66h-2.659V38.568z"/>
		
			<linearGradient id="SVGID_29_" gradientUnits="userSpaceOnUse" x1="699.4844" y1="302.7539" x2="699.4844" y2="136.9413" gradientTransform="matrix(0.5 0 0 0.5 -289.8955 -69.1875)">
			<stop  offset="0" style="stop-color:#F37E5F"/>
			<stop  offset="0.5" style="stop-color:#EC1C24"/>
			<stop  offset="1" style="stop-color:#CF232A"/>
		</linearGradient>
		<path fill="url(#SVGID_29_)" d="M58.517,43.888h2.66v2.661h-2.66V43.888z"/>
		
			<linearGradient id="SVGID_30_" gradientUnits="userSpaceOnUse" x1="710.125" y1="302.7539" x2="710.125" y2="136.9413" gradientTransform="matrix(0.5 0 0 0.5 -289.8955 -69.1875)">
			<stop  offset="0" style="stop-color:#F37E5F"/>
			<stop  offset="0.5" style="stop-color:#EC1C24"/>
			<stop  offset="1" style="stop-color:#CF232A"/>
		</linearGradient>
		<path fill="url(#SVGID_30_)" d="M63.837,43.888h2.66v2.661h-2.66V43.888z"/>
		
			<linearGradient id="SVGID_31_" gradientUnits="userSpaceOnUse" x1="720.7637" y1="302.7539" x2="720.7637" y2="136.9413" gradientTransform="matrix(0.5 0 0 0.5 -289.8955 -69.1875)">
			<stop  offset="0" style="stop-color:#F37E5F"/>
			<stop  offset="0.5" style="stop-color:#EC1C24"/>
			<stop  offset="1" style="stop-color:#CF232A"/>
		</linearGradient>
		<path fill="url(#SVGID_31_)" d="M69.156,43.888h2.66v2.661h-2.66V43.888z"/>
		
			<linearGradient id="SVGID_32_" gradientUnits="userSpaceOnUse" x1="688.8447" y1="302.7539" x2="688.8447" y2="136.9413" gradientTransform="matrix(0.5 0 0 0.5 -289.8955 -69.1875)">
			<stop  offset="0" style="stop-color:#F37E5F"/>
			<stop  offset="0.5" style="stop-color:#EC1C24"/>
			<stop  offset="1" style="stop-color:#CF232A"/>
		</linearGradient>
		<path fill="url(#SVGID_32_)" d="M53.197,43.888h2.659v2.661h-2.659V43.888z"/>
		
			<linearGradient id="SVGID_33_" gradientUnits="userSpaceOnUse" x1="678.2061" y1="302.7539" x2="678.2061" y2="136.9413" gradientTransform="matrix(0.5 0 0 0.5 -289.8955 -69.1875)">
			<stop  offset="0" style="stop-color:#F37E5F"/>
			<stop  offset="0.5" style="stop-color:#EC1C24"/>
			<stop  offset="1" style="stop-color:#CF232A"/>
		</linearGradient>
		<path fill="url(#SVGID_33_)" d="M47.878,43.888h2.659v2.661h-2.659V43.888z"/>
		
			<linearGradient id="SVGID_34_" gradientUnits="userSpaceOnUse" x1="631.6406" y1="302.7178" x2="631.6406" y2="136.9862" gradientTransform="matrix(0.5 0 0 0.5 -289.8955 -69.1875)">
			<stop  offset="0" style="stop-color:#F37E5F"/>
			<stop  offset="0.5" style="stop-color:#EC1C24"/>
			<stop  offset="1" style="stop-color:#CF232A"/>
		</linearGradient>
		<path fill="url(#SVGID_34_)" d="M42.558,66.498H15.715c-0.735-2.078-3.016-3.168-5.094-2.432c-2.075,0.732-3.163,3.012-2.431,5.09
			c0.734,2.078,3.016,3.168,5.09,2.432c1.139-0.4,2.031-1.293,2.432-2.432h26.846c0.735,0,1.33-0.594,1.33-1.33
			C43.888,67.092,43.293,66.498,42.558,66.498z M11.97,69.156c-0.736,0-1.33-0.594-1.33-1.33c0-0.734,0.594-1.328,1.33-1.328
			c0.734,0,1.33,0.594,1.33,1.328C13.3,68.563,12.704,69.156,11.97,69.156z"/>
		
			<linearGradient id="SVGID_35_" gradientUnits="userSpaceOnUse" x1="699.4844" y1="302.7236" x2="699.4844" y2="136.9719" gradientTransform="matrix(0.5 0 0 0.5 -289.8955 -69.1875)">
			<stop  offset="0" style="stop-color:#F37E5F"/>
			<stop  offset="0.5" style="stop-color:#EC1C24"/>
			<stop  offset="1" style="stop-color:#CF232A"/>
		</linearGradient>
		<path fill="url(#SVGID_35_)" d="M58.517,61.178h2.66v2.66h-2.66V61.178z"/>
		
			<linearGradient id="SVGID_36_" gradientUnits="userSpaceOnUse" x1="710.125" y1="302.7236" x2="710.125" y2="136.9719" gradientTransform="matrix(0.5 0 0 0.5 -289.8955 -69.1875)">
			<stop  offset="0" style="stop-color:#F37E5F"/>
			<stop  offset="0.5" style="stop-color:#EC1C24"/>
			<stop  offset="1" style="stop-color:#CF232A"/>
		</linearGradient>
		<path fill="url(#SVGID_36_)" d="M63.837,61.178h2.66v2.66h-2.66V61.178z"/>
		
			<linearGradient id="SVGID_37_" gradientUnits="userSpaceOnUse" x1="720.7637" y1="302.7236" x2="720.7637" y2="136.9719" gradientTransform="matrix(0.5 0 0 0.5 -289.8955 -69.1875)">
			<stop  offset="0" style="stop-color:#F37E5F"/>
			<stop  offset="0.5" style="stop-color:#EC1C24"/>
			<stop  offset="1" style="stop-color:#CF232A"/>
		</linearGradient>
		<path fill="url(#SVGID_37_)" d="M69.156,61.178h2.66v2.66h-2.66V61.178z"/>
		
			<linearGradient id="SVGID_38_" gradientUnits="userSpaceOnUse" x1="688.8447" y1="302.7236" x2="688.8447" y2="136.9719" gradientTransform="matrix(0.5 0 0 0.5 -289.8955 -69.1875)">
			<stop  offset="0" style="stop-color:#F37E5F"/>
			<stop  offset="0.5" style="stop-color:#EC1C24"/>
			<stop  offset="1" style="stop-color:#CF232A"/>
		</linearGradient>
		<path fill="url(#SVGID_38_)" d="M53.197,61.178h2.659v2.66h-2.659V61.178z"/>
		
			<linearGradient id="SVGID_39_" gradientUnits="userSpaceOnUse" x1="678.2061" y1="302.7236" x2="678.2061" y2="136.9719" gradientTransform="matrix(0.5 0 0 0.5 -289.8955 -69.1875)">
			<stop  offset="0" style="stop-color:#F37E5F"/>
			<stop  offset="0.5" style="stop-color:#EC1C24"/>
			<stop  offset="1" style="stop-color:#CF232A"/>
		</linearGradient>
		<path fill="url(#SVGID_39_)" d="M47.878,61.178h2.659v2.66h-2.659V61.178z"/>
		
			<linearGradient id="SVGID_40_" gradientUnits="userSpaceOnUse" x1="699.4844" y1="302.7012" x2="699.4844" y2="137.0711" gradientTransform="matrix(0.5 0 0 0.5 -289.8955 -69.1875)">
			<stop  offset="0" style="stop-color:#F37E5F"/>
			<stop  offset="0.5" style="stop-color:#EC1C24"/>
			<stop  offset="1" style="stop-color:#CF232A"/>
		</linearGradient>
		<path fill="url(#SVGID_40_)" d="M58.517,66.498h2.66v2.658h-2.66V66.498z"/>
		
			<linearGradient id="SVGID_41_" gradientUnits="userSpaceOnUse" x1="710.125" y1="302.7012" x2="710.125" y2="137.0711" gradientTransform="matrix(0.5 0 0 0.5 -289.8955 -69.1875)">
			<stop  offset="0" style="stop-color:#F37E5F"/>
			<stop  offset="0.5" style="stop-color:#EC1C24"/>
			<stop  offset="1" style="stop-color:#CF232A"/>
		</linearGradient>
		<path fill="url(#SVGID_41_)" d="M63.837,66.498h2.66v2.658h-2.66V66.498z"/>
		
			<linearGradient id="SVGID_42_" gradientUnits="userSpaceOnUse" x1="720.7637" y1="302.7012" x2="720.7637" y2="137.0711" gradientTransform="matrix(0.5 0 0 0.5 -289.8955 -69.1875)">
			<stop  offset="0" style="stop-color:#F37E5F"/>
			<stop  offset="0.5" style="stop-color:#EC1C24"/>
			<stop  offset="1" style="stop-color:#CF232A"/>
		</linearGradient>
		<path fill="url(#SVGID_42_)" d="M69.156,66.498h2.66v2.658h-2.66V66.498z"/>
		
			<linearGradient id="SVGID_43_" gradientUnits="userSpaceOnUse" x1="688.8447" y1="302.7012" x2="688.8447" y2="137.0711" gradientTransform="matrix(0.5 0 0 0.5 -289.8955 -69.1875)">
			<stop  offset="0" style="stop-color:#F37E5F"/>
			<stop  offset="0.5" style="stop-color:#EC1C24"/>
			<stop  offset="1" style="stop-color:#CF232A"/>
		</linearGradient>
		<path fill="url(#SVGID_43_)" d="M53.197,66.498h2.659v2.658h-2.659V66.498z"/>
		
			<linearGradient id="SVGID_44_" gradientUnits="userSpaceOnUse" x1="678.2061" y1="302.7012" x2="678.2061" y2="137.0711" gradientTransform="matrix(0.5 0 0 0.5 -289.8955 -69.1875)">
			<stop  offset="0" style="stop-color:#F37E5F"/>
			<stop  offset="0.5" style="stop-color:#EC1C24"/>
			<stop  offset="1" style="stop-color:#CF232A"/>
		</linearGradient>
		<path fill="url(#SVGID_44_)" d="M47.878,66.498h2.659v2.658h-2.659V66.498z"/>
		
			<linearGradient id="SVGID_45_" gradientUnits="userSpaceOnUse" x1="699.4844" y1="302.7197" x2="699.4844" y2="136.968" gradientTransform="matrix(0.5 0 0 0.5 -289.8955 -69.1875)">
			<stop  offset="0" style="stop-color:#F37E5F"/>
			<stop  offset="0.5" style="stop-color:#EC1C24"/>
			<stop  offset="1" style="stop-color:#CF232A"/>
		</linearGradient>
		<path fill="url(#SVGID_45_)" d="M58.517,71.816h2.66v2.66h-2.66V71.816z"/>
		
			<linearGradient id="SVGID_46_" gradientUnits="userSpaceOnUse" x1="710.125" y1="302.7197" x2="710.125" y2="136.968" gradientTransform="matrix(0.5 0 0 0.5 -289.8955 -69.1875)">
			<stop  offset="0" style="stop-color:#F37E5F"/>
			<stop  offset="0.5" style="stop-color:#EC1C24"/>
			<stop  offset="1" style="stop-color:#CF232A"/>
		</linearGradient>
		<path fill="url(#SVGID_46_)" d="M63.837,71.816h2.66v2.66h-2.66V71.816z"/>
		
			<linearGradient id="SVGID_47_" gradientUnits="userSpaceOnUse" x1="720.7637" y1="302.7197" x2="720.7637" y2="136.968" gradientTransform="matrix(0.5 0 0 0.5 -289.8955 -69.1875)">
			<stop  offset="0" style="stop-color:#F37E5F"/>
			<stop  offset="0.5" style="stop-color:#EC1C24"/>
			<stop  offset="1" style="stop-color:#CF232A"/>
		</linearGradient>
		<path fill="url(#SVGID_47_)" d="M69.156,71.816h2.66v2.66h-2.66V71.816z"/>
		
			<linearGradient id="SVGID_48_" gradientUnits="userSpaceOnUse" x1="688.8447" y1="302.7197" x2="688.8447" y2="136.968" gradientTransform="matrix(0.5 0 0 0.5 -289.8955 -69.1875)">
			<stop  offset="0" style="stop-color:#F37E5F"/>
			<stop  offset="0.5" style="stop-color:#EC1C24"/>
			<stop  offset="1" style="stop-color:#CF232A"/>
		</linearGradient>
		<path fill="url(#SVGID_48_)" d="M53.197,71.816h2.659v2.66h-2.659V71.816z"/>
		
			<linearGradient id="SVGID_49_" gradientUnits="userSpaceOnUse" x1="678.2061" y1="302.7197" x2="678.2061" y2="136.968" gradientTransform="matrix(0.5 0 0 0.5 -289.8955 -69.1875)">
			<stop  offset="0" style="stop-color:#F37E5F"/>
			<stop  offset="0.5" style="stop-color:#EC1C24"/>
			<stop  offset="1" style="stop-color:#CF232A"/>
		</linearGradient>
		<path fill="url(#SVGID_49_)" d="M47.878,71.816h2.659v2.66h-2.659V71.816z"/>
	</g>
</g>
</svg>
