<?xml version="1.0" encoding="utf-8"?>
<!-- Generator: Adobe Illustrator 16.0.0, SVG Export Plug-In . SVG Version: 6.00 Build 0)  -->
<!DOCTYPE svg PUBLIC "-//W3C//DTD SVG 1.1//EN" "http://www.w3.org/Graphics/SVG/1.1/DTD/svg11.dtd">
<svg version="1.1" id="Layer_1" xmlns="http://www.w3.org/2000/svg" xmlns:xlink="http://www.w3.org/1999/xlink" x="0px" y="0px"
	 width="30px" height="30px" viewBox="0 0 30 30" enable-background="new 0 0 30 30" xml:space="preserve">
<path fill="#424143" d="M5.805,11.7c-2.12,3.66-0.771,9.2,1.569,12.561c1.17,1.68,2.36,3.189,3.98,3.189h0.09
	c0.643-0.038,1.272-0.205,1.85-0.49c0.684-0.328,1.432-0.502,2.19-0.51c0.722,0.008,1.432,0.174,2.08,0.49
	c0.619,0.316,1.305,0.48,2,0.48c1.83-0.041,2.95-1.66,3.94-3.101c0.738-1.083,1.32-2.265,1.729-3.51l0.01-0.021
	c0.029-0.099-0.017-0.205-0.11-0.25c-0.008-0.001-0.014-0.005-0.02-0.01c-1.916-0.808-3.168-2.68-3.18-4.76
	c0.028-1.831,0.99-3.521,2.549-4.48l0.021-0.01c0.05-0.031,0.083-0.083,0.088-0.14c0.018-0.052,0.007-0.108-0.028-0.15
	c-1.076-1.525-2.805-2.458-4.67-2.52c-0.129-0.01-0.27-0.021-0.399-0.021c-1.014,0.06-2.007,0.307-2.931,0.73
	c-0.445,0.21-0.921,0.351-1.41,0.42c-0.502-0.064-0.991-0.205-1.449-0.42c-0.805-0.379-1.674-0.6-2.561-0.651h-0.061
	C8.892,8.593,6.89,9.794,5.805,11.7 M19.905,2.55c-1.465,0.131-2.822,0.822-3.791,1.93c-0.976,1.073-1.465,2.503-1.35,3.95
	c0.014,0.091,0.088,0.162,0.18,0.17c0.09,0.008,0.18,0.012,0.271,0.01c1.397-0.06,2.7-0.724,3.569-1.82
	c0.964-1.124,1.441-2.584,1.33-4.06C20.102,2.625,20.011,2.547,19.905,2.55"/>
</svg>
