<?xml version="1.0" encoding="utf-8"?>
<!-- Generator: Adobe Illustrator 16.0.0, SVG Export Plug-In . SVG Version: 6.00 Build 0)  -->
<!DOCTYPE svg PUBLIC "-//W3C//DTD SVG 1.1//EN" "http://www.w3.org/Graphics/SVG/1.1/DTD/svg11.dtd">
<svg version="1.1" id="Capa_1" xmlns="http://www.w3.org/2000/svg" xmlns:xlink="http://www.w3.org/1999/xlink" x="0px" y="0px"
	 width="1920px" height="1080px" viewBox="0 0 1920 1080" enable-background="new 0 0 1920 1080" xml:space="preserve">
<g>
	<path fill="#EE3168" d="M599.999,854.999c-49.636,0-90.001-40.364-90.001-90v-45c0-49.636,40.365-90,90.001-90
		c50.467,0,90.001,39.531,90.001,90v45C690,815.468,650.469,854.999,599.999,854.999z M599.999,675
		C575.183,675,555,695.183,555,719.999v45C555,789.817,575.183,810,599.999,810c25.65,0,44.999-19.328,44.999-44.999v-45
		C645.001,694.328,625.649,675,599.999,675z"/>
	<path fill="#EE3168" d="M780.001,1080h-44.999v-67.5c0-17.213-7.246-33.93-20.408-47.092C701.431,952.246,684.712,945,667.499,945
		h-135c-17.212,0-33.929,7.246-47.092,20.408c-13.162,13.162-20.408,29.879-20.408,47.092v67.5H420v-67.5
		c0-29.228,11.924-57.264,33.592-78.907c21.668-21.668,49.68-33.592,78.907-33.592h135c29.228,0,57.24,11.924,78.907,33.592
		c21.668,21.644,33.592,49.68,33.592,78.907v67.5H780.001z"/>
</g>
<g>
	<path fill="#B9BBBD" d="M1320.001,225.001c-50.47,0-90.001-39.534-90.001-90.001V90.001C1230,39.532,1269.531,0,1320.001,0
		c50.467,0,90,39.532,90,90.001V135C1409.999,185.467,1370.468,225.001,1320.001,225.001z M1320.001,44.999
		c-25.674,0-45,19.35-45,45V135c0,25.65,19.329,44.999,45,44.999S1365,160.65,1365,135V90.001
		C1365,64.351,1345.672,44.999,1320.001,44.999z"/>
	<path fill="#B9BBBD" d="M1500,449.999h-44.999v-67.5c0-17.212-7.246-33.929-20.408-47.092
		c-13.163-13.162-29.88-20.408-47.092-20.408h-135c-17.213,0-33.93,7.246-47.092,20.408c-13.163,13.163-20.408,29.88-20.408,47.092
		v67.5h-45v-67.5c0-29.228,11.925-57.239,33.592-78.907c21.645-21.667,49.681-33.592,78.908-33.592h135
		c29.228,0,57.263,11.924,78.907,33.592c21.668,21.668,33.592,49.68,33.592,78.907V449.999z"/>
</g>
<g>
	<rect x="847.501" y="517.499" fill="#414042" width="44.999" height="44.999"/>
	<rect x="937.499" y="517.499" fill="#414042" width="44.999" height="44.999"/>
	<rect x="1027.5" y="517.499" fill="#414042" width="44.999" height="44.999"/>
</g>
<path fill="#EE3168" d="M712.501,540c-5.85,0-11.61-2.295-15.907-6.592l-83.406-83.407H487.5c-37.216,0-67.5-30.284-67.5-67.5V67.5
	C420,30.284,450.284,0,487.5,0h540c37.216,0,67.5,30.284,67.5,67.5v314.999c0,37.216-30.284,67.5-67.5,67.5H734.999v67.5
	c0,9.09-5.49,17.304-13.882,20.79C718.327,539.437,715.403,540,712.501,540z M487.5,44.999c-12.396,0-22.501,10.102-22.501,22.501
	v314.999c0,12.399,10.104,22.501,22.501,22.501h135c5.963,0,11.701,2.362,15.906,6.592L690,463.185v-35.684
	c0-12.42,10.081-22.501,22.501-22.501H1027.5c12.42,0,22.501-10.102,22.501-22.501V67.5c0-12.397-10.081-22.501-22.501-22.501H487.5
	z"/>
<g>
	<rect x="532.499" y="112.499" fill="#414042" width="225.001" height="45"/>
	<rect x="532.499" y="202.5" fill="#414042" width="449.999" height="44.999"/>
	<rect x="532.499" y="292.501" fill="#414042" width="360.001" height="44.999"/>
</g>
<path fill="#B9BBBD" d="M1432.5,1080h-540c-37.216,0-67.5-30.284-67.5-67.5V697.501c0-37.216,30.284-67.5,67.5-67.5h292.501v-67.5
	c0-9.09,5.468-17.304,13.882-20.79c8.414-3.442,18.09-1.553,24.525,4.883l83.407,83.407H1432.5c37.216,0,67.5,30.284,67.5,67.5
	V1012.5C1500,1049.716,1469.716,1080,1432.5,1080z M892.5,675c-12.396,0-22.501,10.081-22.501,22.501V1012.5
	c0,12.42,10.103,22.501,22.501,22.501h540c12.42,0,22.501-10.081,22.501-22.501V697.501c0-12.42-10.081-22.501-22.501-22.501h-135
	c-5.984,0-11.701-2.362-15.906-6.592L1230,616.814v35.685c0,12.443-10.058,22.501-22.501,22.501H892.5L892.5,675z"/>
<g>
	<rect x="937.499" y="742.5" fill="#414042" width="225.001" height="44.999"/>
	<rect x="937.499" y="832.501" fill="#414042" width="449.999" height="44.999"/>
	<rect x="937.499" y="922.499" fill="#414042" width="360.001" height="45"/>
</g>
</svg>
