<?xml version="1.0" encoding="utf-8"?>
<!-- Generator: Adobe Illustrator 16.0.0, SVG Export Plug-In . SVG Version: 6.00 Build 0)  -->
<!DOCTYPE svg PUBLIC "-//W3C//DTD SVG 1.1//EN" "http://www.w3.org/Graphics/SVG/1.1/DTD/svg11.dtd">
<svg version="1.1" id="Layer_1" xmlns="http://www.w3.org/2000/svg" xmlns:xlink="http://www.w3.org/1999/xlink" x="0px" y="0px"
	 width="30px" height="30px" viewBox="0 0 30 30" enable-background="new 0 0 30 30" xml:space="preserve">
<path fill="#424143" d="M5.275,10.473h-0.07c-0.869-0.01-1.582,0.682-1.6,1.55v6.75c0.014,0.87,0.73,1.563,1.6,1.55h0.07
	c0.865,0.01,1.576-0.683,1.59-1.55v-6.75C6.848,11.159,6.141,10.468,5.275,10.473 M7.625,21.382c0.016,0.795,0.666,1.428,1.461,1.42
	h1.568v3.641c0.012,0.869,0.723,1.564,1.59,1.56h0.07c0.871,0.009,1.588-0.688,1.6-1.56v-3.641h2.182v3.641
	c0.012,0.872,0.729,1.568,1.6,1.56h0.061c0.871,0.009,1.586-0.688,1.6-1.56v-3.641h1.561c0.797,0.012,1.453-0.623,1.469-1.42V10.723
	H7.625V21.382z M18.676,4.263l1.25-1.87C20,2.28,19.971,2.125,19.857,2.051l-0.012-0.008c-0.123-0.081-0.287-0.049-0.371,0.07
	l-1.289,1.93c-1.014-0.397-2.092-0.602-3.182-0.6c-1.09-0.001-2.172,0.203-3.189,0.6l-1.281-1.93
	c-0.082-0.119-0.246-0.151-0.369-0.07c-0.117,0.07-0.156,0.221-0.086,0.338c0.002,0.005,0.004,0.009,0.006,0.012l1.25,1.87
	c-2.193,0.913-3.66,3.015-3.76,5.39c0,0.15,0.01,0.29,0.021,0.43h14.818c0.01-0.14,0.021-0.28,0.021-0.43
	C22.332,7.28,20.867,5.179,18.676,4.263 M11.564,7.603c-0.385-0.011-0.689-0.333-0.678-0.72c0.01-0.386,0.332-0.69,0.719-0.679
	c0.383,0.011,0.686,0.327,0.678,0.709c-0.004,0.387-0.32,0.696-0.707,0.69H11.564z M18.436,7.603
	c-0.387-0.005-0.695-0.323-0.689-0.71c0.004-0.386,0.322-0.695,0.709-0.69c0.387,0.006,0.695,0.324,0.689,0.71
	C19.141,7.3,18.822,7.609,18.436,7.603 M24.805,10.473h-0.068c-0.865-0.005-1.574,0.686-1.59,1.55v6.75
	c0.012,0.867,0.723,1.56,1.59,1.55h0.068c0.865,0.013,1.578-0.678,1.59-1.544v-0.006v-6.75
	C26.383,11.157,25.672,10.464,24.805,10.473"/>
</svg>
