<?xml version="1.0" encoding="utf-8"?>
<!-- Generator: Adobe Illustrator 16.0.0, SVG Export Plug-In . SVG Version: 6.00 Build 0)  -->
<!DOCTYPE svg PUBLIC "-//W3C//DTD SVG 1.1//EN" "http://www.w3.org/Graphics/SVG/1.1/DTD/svg11.dtd">
<svg version="1.1" id="Layer_1" xmlns="http://www.w3.org/2000/svg" xmlns:xlink="http://www.w3.org/1999/xlink" x="0px" y="0px"
	 width="30px" height="30px" viewBox="0 0 30 30" enable-background="new 0 0 30 30" xml:space="preserve">
<path fill="#424143" d="M27.426,7.795h-16.57v2.05h15.26v10.92h-15.26v2.69h2.77l-1.949,1.87c-0.064,0.064-0.1,0.15-0.102,0.24v0.41
	c0.002,0.182,0.148,0.328,0.33,0.33h9.99c0.182-0.002,0.33-0.148,0.33-0.33v-0.41c0-0.09-0.037-0.176-0.1-0.24l-1.959-1.87h7.26
	c0.24,0.003,0.436-0.19,0.439-0.43v-14.8C27.859,7.986,27.664,7.796,27.426,7.795 M16.895,21.715
	c0.262-0.004,0.477,0.204,0.48,0.464v0.006c0,0.266-0.215,0.48-0.48,0.48c-0.264-0.004-0.475-0.216-0.479-0.48
	C16.42,21.924,16.633,21.714,16.895,21.715 M8.836,3.695h-6.17C2.375,3.693,2.137,3.928,2.135,4.219v0.006v21.53
	c0,0.291,0.234,0.529,0.525,0.53h0.006h6.17c0.291-0.002,0.527-0.238,0.529-0.53V4.225C9.363,3.933,9.127,3.697,8.836,3.695
	 M5.176,6.385c0-0.049,0.039-0.09,0.09-0.09h0.969c0.051,0,0.09,0.041,0.09,0.09v8.33c0,0.05-0.039,0.09-0.09,0.09H5.266
	c-0.051,0-0.09-0.04-0.09-0.09V6.385z M6.256,19.104c0.002,0.279-0.223,0.508-0.5,0.511c-0.279,0.003-0.508-0.222-0.51-0.5
	c-0.004-0.279,0.221-0.507,0.5-0.511c0.275-0.004,0.504,0.215,0.51,0.49V19.104z M5.746,23.065C5.1,23.06,4.58,22.531,4.586,21.885
	c0.006-0.646,0.533-1.166,1.18-1.159c0.643,0.006,1.16,0.527,1.16,1.17c-0.002,0.648-0.529,1.172-1.178,1.17H5.744H5.746z"/>
</svg>
