<?xml version="1.0" encoding="iso-8859-1"?>
<!-- Generator: Adobe Illustrator 19.0.0, SVG Export Plug-In . SVG Version: 6.00 Build 0)  -->
<svg version="1.1" id="Capa_1" xmlns="http://www.w3.org/2000/svg" xmlns:xlink="http://www.w3.org/1999/xlink" x="0px" y="0px"
	 viewBox="0 0 480 480" style="enable-background:new 0 0 480 480;" xml:space="preserve">
<linearGradient id="SVGID_1_" gradientUnits="userSpaceOnUse" x1="-26.875" y1="554.615" x2="-26.875" y2="619.525" gradientTransform="matrix(8 0 0 -8 455 4941)">
	<stop  offset="0" style="stop-color:#006DF0"/>
	<stop  offset="1" style="stop-color:#00E7F0"/>
</linearGradient>
<path style="fill:url(#SVGID_1_);" d="M456,0H24C10.745,0,0,10.745,0,24s10.745,24,24,24v248c0,13.255,10.745,24,24,24h152v8
	c0,13.255,10.745,24,24,24h8v64h-56c-22.08,0.026-39.974,17.92-40,40v16c0,4.418,3.582,8,8,8h192c4.418,0,8-3.582,8-8v-16
	c-0.026-22.08-17.92-39.974-40-40h-56v-64h8c13.255,0,24-10.745,24-24v-8h152c13.255,0,24-10.745,24-24V48c13.255,0,24-10.745,24-24
	S469.255,0,456,0z M328,456v8H152v-8c0-13.255,10.745-24,24-24h128C317.255,432,328,442.745,328,456z M264,328c0,4.418-3.582,8-8,8
	h-32c-4.418,0-8-3.582-8-8v-8h48V328z M440,296c0,4.418-3.582,8-8,8H48c-4.418,0-8-3.582-8-8V48h400V296z M456,32H24
	c-4.418,0-8-3.582-8-8s3.582-8,8-8h432c4.418,0,8,3.582,8,8S460.418,32,456,32z"/>
<g>
</g>
<g>
</g>
<g>
</g>
<g>
</g>
<g>
</g>
<g>
</g>
<g>
</g>
<g>
</g>
<g>
</g>
<g>
</g>
<g>
</g>
<g>
</g>
<g>
</g>
<g>
</g>
<g>
</g>
</svg>
