<?xml version="1.0" encoding="iso-8859-1"?>
<!-- Generator: Adobe Illustrator 19.0.0, SVG Export Plug-In . SVG Version: 6.00 Build 0)  -->
<svg version="1.1" id="Capa_1" xmlns="http://www.w3.org/2000/svg" xmlns:xlink="http://www.w3.org/1999/xlink" x="0px" y="0px"
	 viewBox="0 0 479.944 479.944" style="enable-background:new 0 0 479.944 479.944;" xml:space="preserve">
<g>
	
		<linearGradient id="SVGID_1_" gradientUnits="userSpaceOnUse" x1="-26.903" y1="558.195" x2="-26.903" y2="621.036" gradientTransform="matrix(8 0 0 -8 455.1961 4941)">
		<stop  offset="0" style="stop-color:#006DF0"/>
		<stop  offset="1" style="stop-color:#00E7F0"/>
	</linearGradient>
	<path style="fill:url(#SVGID_1_);" d="M236.924,127.784c1.011,0.132,2.029,0.204,3.048,0.216c1.027-0.013,2.053-0.085,3.072-0.216
		c6.564-0.834,12.488-4.354,16.36-9.72c2.979-4.083,4.579-9.01,4.568-14.064c0-13.255-10.745-24-24-24c-13.255,0-24,10.745-24,24
		C215.983,116.068,224.954,126.251,236.924,127.784z M239.972,96c4.418,0,8,3.582,8,8c0.012,1.684-0.525,3.327-1.528,4.68
		c-1.281,1.75-3.219,2.905-5.368,3.2c-0.726,0.08-1.458,0.08-2.184,0c-2.171-0.296-4.126-1.47-5.408-3.248
		c-0.99-1.341-1.52-2.965-1.512-4.632C231.972,99.582,235.554,96,239.972,96L239.972,96z"/>
	
		<linearGradient id="SVGID_2_" gradientUnits="userSpaceOnUse" x1="-26.903" y1="558.195" x2="-26.903" y2="621.036" gradientTransform="matrix(8 0 0 -8 455.1961 4941)">
		<stop  offset="0" style="stop-color:#006DF0"/>
		<stop  offset="1" style="stop-color:#00E7F0"/>
	</linearGradient>
	<path style="fill:url(#SVGID_2_);" d="M375.972,264h-37.336l-42.664-159.272c0-0.248,0-0.48,0-0.728
		c-0.037-18.269-8.998-35.366-24-45.792V24c0-13.255-10.745-24-24-24h-16c-13.255,0-24,10.745-24,24v34.208
		c-15.002,10.426-23.963,27.523-24,45.792v0.728L141.308,264h-37.336c-4.418,0-8,3.582-8,8s3.582,8,8,8h33.048l-26.856,100.168
		c-7.176,26.866,6.45,54.928,32,65.904l-6.4,23.8c-1.145,4.267,1.387,8.655,5.654,9.799c0.001,0,0.001,0,0.002,0
		c0.676,0.18,1.372,0.271,2.072,0.272c3.621,0,6.79-2.431,7.728-5.928L203.252,280h28.72v24c0.006,4.418,3.593,7.995,8.011,7.989
		c4.41-0.006,7.983-3.579,7.989-7.989v-24h28.72l52,194.016c0.938,3.497,4.107,5.928,7.728,5.928
		c0.699-0.001,1.396-0.092,2.072-0.272c4.268-1.144,6.8-5.53,5.656-9.798c0-0.001,0-0.001,0-0.002l-6.4-23.8
		c25.55-10.976,39.176-39.038,32-65.904L342.924,280h33.048c4.418,0,8-3.582,8-8S380.39,264,375.972,264L375.972,264z
		 M260.588,156.056c1.296-0.512,2.488-1.192,3.728-1.792c1.496-0.728,3.024-1.4,4.44-2.248c1.192-0.712,2.264-1.6,3.392-2.4
		c1.328-0.936,2.68-1.824,3.912-2.872c1.064-0.896,1.992-1.912,2.976-2.88c1.144-1.12,2.32-2.208,3.36-3.424
		c0.904-1.048,1.664-2.2,2.488-3.312s1.648-2.024,2.352-3.128l34.832,130h-33.104L260.1,156.288
		C260.268,156.224,260.42,156.12,260.588,156.056L260.588,156.056z M223.972,24c0-4.418,3.582-8,8-8h16c4.418,0,8,3.582,8,8v26.4
		c-1.552-0.472-3.2-0.736-4.744-1.072c-0.76-0.152-1.488-0.376-2.248-0.504c-5.954-1.051-12.046-1.051-18,0
		c-0.8,0.136-1.6,0.376-2.4,0.544c-1.536,0.328-3.104,0.576-4.592,1.032L223.972,24z M219.892,69.456
		c2.17-1.257,4.452-2.309,6.816-3.144c3.355-1.163,6.855-1.858,10.4-2.064c0.944-0.072,1.872-0.248,2.824-0.248
		c7.064,0.045,13.994,1.925,20.112,5.456c12.404,7.221,20.004,20.519,19.928,34.872c-0.056,0.336-0.088,0.675-0.096,1.016
		c-0.567,18.246-13.441,33.781-31.264,37.728c-5.709,1.248-11.619,1.248-17.328,0c-17.823-3.947-30.697-19.482-31.264-37.728
		c0.008-0.449-0.008-0.897-0.048-1.344C199.964,89.753,207.557,76.585,219.892,69.456L219.892,69.456z M192.692,134.032
		c0.728,1.144,1.6,2.16,2.4,3.248s1.512,2.16,2.4,3.16c1.112,1.304,2.4,2.464,3.584,3.656c0.912,0.888,1.76,1.824,2.736,2.64
		c1.36,1.152,2.848,2.144,4.312,3.16c1,0.696,1.936,1.456,2.984,2.088c1.6,0.952,3.296,1.72,4.984,2.52
		c1.072,0.504,2.08,1.088,3.2,1.528c0.184,0.072,0.344,0.184,0.528,0.256L190.98,264h-33.112L192.692,134.032z M146.372,430.464
		c-16.981-8.521-25.645-27.796-20.744-46.152L153.572,280h33.12L146.372,430.464z M247.972,264v-24c0-4.418-3.582-8-8-8
		s-8,3.582-8,8v24H207.54l27.936-104.24c1.496,0.12,2.984,0.24,4.496,0.24c1.512,0,3-0.12,4.496-0.24L272.404,264H247.972z
		 M354.324,384.32c4.898,18.356-3.769,37.629-20.752,46.144L293.252,280h33.12L354.324,384.32z"/>
</g>
<g>
</g>
<g>
</g>
<g>
</g>
<g>
</g>
<g>
</g>
<g>
</g>
<g>
</g>
<g>
</g>
<g>
</g>
<g>
</g>
<g>
</g>
<g>
</g>
<g>
</g>
<g>
</g>
<g>
</g>
</svg>
