<?xml version="1.0" encoding="utf-8"?>
<!-- Generator: Adobe Illustrator 16.0.0, SVG Export Plug-In . SVG Version: 6.00 Build 0)  -->
<!DOCTYPE svg PUBLIC "-//W3C//DTD SVG 1.1//EN" "http://www.w3.org/Graphics/SVG/1.1/DTD/svg11.dtd">
<svg version="1.1" id="Capa_1" xmlns="http://www.w3.org/2000/svg" xmlns:xlink="http://www.w3.org/1999/xlink" x="0px" y="0px"
	 width="1920px" height="1080px" viewBox="0 0 1920 1080" enable-background="new 0 0 1920 1080" xml:space="preserve">
<g>
	<path fill="#414042" d="M1387.501,1001.251H532.499c-29.228,0-57.239-11.925-78.907-33.592
		C431.924,946.013,420,917.977,420,888.749V843.75c0-12.443,10.081-22.501,22.501-22.501h360.001c5.963,0,11.7,2.362,15.906,6.592
		l38.407,38.408h206.371l38.407-38.408c4.208-4.229,9.923-6.592,15.907-6.592h360c12.443,0,22.501,10.058,22.501,22.501v44.999
		c0,29.228-11.924,57.24-33.592,78.908C1444.74,989.324,1416.729,1001.251,1387.501,1001.251z M464.999,866.251v22.5
		c0,17.213,7.246,33.93,20.408,47.092c13.163,13.163,29.88,20.408,47.092,20.408h855c17.212,0,33.929-7.245,47.092-20.408
		c13.162-13.162,20.408-29.879,20.408-47.092v-22.5h-328.184l-38.407,38.407c-4.208,4.229-9.923,6.592-15.906,6.592H847.501
		c-5.964,0-11.701-2.362-15.907-6.592l-38.407-38.407H464.999z"/>
	<path fill="#414042" d="M532.499,843.75H487.5v-540c0-17.618,7.132-34.448,20.092-47.408S537.383,236.25,555,236.25h247.499v45H555
		c-5.67,0-11.07,2.385-15.593,6.908c-4.522,4.523-6.908,9.923-6.908,15.593V843.75z"/>
	<rect x="1387.501" y="528.751" fill="#414042" width="44.999" height="314.999"/>
	<rect x="847.501" y="731.251" fill="#414042" width="44.999" height="44.999"/>
	<rect x="937.499" y="731.251" fill="#414042" width="44.999" height="44.999"/>
	<rect x="1027.5" y="731.251" fill="#414042" width="44.999" height="44.999"/>
</g>
<g>
	<path fill="#B9BBBD" d="M802.499,776.25h-202.5c-12.42,0-22.501-10.058-22.501-22.501v-405c0-12.42,10.081-22.5,22.501-22.5h202.5
		v45.001H622.5v360.001h179.999V776.25z"/>
	<path fill="#B9BBBD" d="M1320.001,776.25h-202.5v-44.999H1297.5v-202.5h44.999v225
		C1342.499,766.192,1332.441,776.25,1320.001,776.25z"/>
</g>
<path fill="#EE3168" d="M960,573.75c-2.902,0-5.828-0.563-8.617-1.711c-8.393-3.486-13.881-11.7-13.881-20.79v-67.5h-67.5
	c-12.421,0-22.501-10.08-22.501-22.5V101.25c0-12.42,10.08-22.501,22.5-22.501h540c12.441,0,22.499,10.081,22.499,22.501v360.001
	c0,12.42-10.058,22.5-22.501,22.5h-350.684l-83.406,83.407C971.61,571.455,965.85,573.75,960,573.75z M892.5,438.75H960
	c12.42,0,22.501,10.081,22.501,22.501v35.684l51.593-51.593c4.208-4.229,9.923-6.592,15.907-6.592h337.5V123.751H892.5V438.75z"/>
</svg>
