<?xml version="1.0" encoding="utf-8"?>
<!-- Generator: Adobe Illustrator 16.0.0, SVG Export Plug-In . SVG Version: 6.00 Build 0)  -->
<!DOCTYPE svg PUBLIC "-//W3C//DTD SVG 1.1//EN" "http://www.w3.org/Graphics/SVG/1.1/DTD/svg11.dtd">
<svg version="1.1" id="Capa_1" xmlns="http://www.w3.org/2000/svg" xmlns:xlink="http://www.w3.org/1999/xlink" x="0px" y="0px"
	 width="1920px" height="1080px" viewBox="0 0 1920 1080" enable-background="new 0 0 1920 1080" xml:space="preserve">
<g>
	<path fill="#B9BBBD" d="M584.349,833.479c-52.663,0-93.914-41.253-93.914-93.914v-23.479c0-52.661,41.251-93.914,93.914-93.914
		s93.913,41.251,93.913,93.914v23.479C678.26,792.226,637.01,833.479,584.349,833.479z M584.349,669.13
		c-26.766,0-46.956,20.169-46.956,46.956v23.479c0,26.79,20.19,46.956,46.956,46.956c26.765,0,46.956-20.166,46.956-46.956v-23.479
		C631.305,689.299,611.113,669.13,584.349,669.13z"/>
	<path fill="#B9BBBD" d="M748.694,1044.783h-46.955v-70.436c0-17.961-7.562-35.404-21.296-49.139
		c-13.734-13.735-31.178-21.296-49.139-21.296h-93.914c-17.961,0-35.404,7.561-49.14,21.296
		c-13.734,13.734-21.295,31.178-21.295,49.139v70.436H420v-70.436c0-30.498,12.442-59.753,35.053-82.338
		c22.609-22.609,51.84-35.053,82.338-35.053h93.914c30.498,0,59.729,12.443,82.338,35.053c22.609,22.585,35.052,51.84,35.052,82.338
		V1044.783z"/>
</g>
<g>
	<path fill="#414042" d="M959.999,833.479c-52.661,0-93.914-41.251-93.914-93.914v-23.479c0-52.661,41.251-93.914,93.914-93.914
		s93.913,41.253,93.913,93.914v23.479C1053.912,792.226,1012.662,833.479,959.999,833.479z M959.999,669.13
		c-26.766,0-46.956,20.169-46.956,46.956v23.479c0,26.79,20.19,46.956,46.956,46.956c26.789,0,46.956-20.169,46.956-46.956v-23.479
		C1006.957,689.299,986.788,669.13,959.999,669.13z"/>
	<path fill="#414042" d="M1124.348,1044.783h-46.956v-70.436c0-17.961-7.561-35.404-21.296-49.139
		c-13.734-13.735-31.178-21.296-49.139-21.296h-93.914c-17.961,0-35.404,7.561-49.139,21.296
		c-13.735,13.734-21.296,31.178-21.296,49.139v70.436h-46.956v-70.436c0-30.498,12.443-59.753,35.053-82.338
		c22.609-22.609,51.84-35.053,82.338-35.053h93.914c30.498,0,59.729,12.443,82.338,35.053s35.053,51.84,35.053,82.338V1044.783z"/>
</g>
<g>
	<path fill="#B9BBBD" d="M1335.651,833.479c-52.661,0-93.913-41.251-93.913-93.914v-23.479c0-52.661,41.25-93.914,93.913-93.914
		c52.661,0,93.914,41.251,93.914,93.914v23.479C1429.565,792.226,1388.313,833.479,1335.651,833.479z M1335.651,669.13
		c-26.789,0-46.956,20.169-46.956,46.956v23.479c0,26.79,20.169,46.956,46.956,46.956s46.956-20.169,46.956-46.956v-23.479
		C1382.607,689.299,1362.441,669.13,1335.651,669.13z"/>
	<path fill="#B9BBBD" d="M1500,1044.783h-46.956v-70.436c0-17.961-7.561-35.404-21.295-49.139
		c-13.735-13.735-31.179-21.296-49.14-21.296h-93.914c-17.961,0-35.404,7.561-49.139,21.296
		c-13.734,13.734-21.296,31.178-21.296,49.139v70.436h-46.955v-70.436c0-30.498,12.442-59.729,35.052-82.338
		s51.84-35.053,82.338-35.053h93.914c30.498,0,59.729,12.443,82.338,35.053S1500,943.85,1500,974.348V1044.783z"/>
</g>
<path fill="#EE3168" d="M1335.651,575.217c-6.011,0-12.02-2.301-16.599-6.879l-63.556-63.557h-215.344l-63.556,63.557
	c-9.181,9.181-24.019,9.181-33.199,0l-63.557-63.557H664.499l-63.557,63.557c-9.181,9.181-24.019,9.181-33.199,0l-63.556-63.557
	h-13.753c-38.834,0-70.435-31.601-70.435-70.435V105.652c0-38.834,31.601-70.435,70.435-70.435h939.131
	c38.834,0,70.435,31.601,70.435,70.435v328.694c0,38.834-31.601,70.435-70.435,70.435h-13.759l-63.557,63.557
	C1347.672,572.916,1341.663,575.217,1335.651,575.217z M1030.434,457.826h234.783c6.244,0,12.209,2.465,16.599,6.878l53.836,53.837
	l53.837-53.837c4.389-4.413,10.354-6.878,16.598-6.878h23.479c12.96,0,23.479-10.541,23.479-23.479V105.652
	c0-12.936-10.519-23.479-23.479-23.479H490.435c-12.936,0-23.479,10.541-23.479,23.479v328.694
	c0,12.938,10.543,23.479,23.479,23.479h23.479c6.223,0,12.209,2.465,16.598,6.878l53.837,53.837l53.836-53.837
	c4.392-4.413,10.378-6.878,16.599-6.878h234.783c6.223,0,12.209,2.465,16.599,6.878l53.836,53.837l53.837-53.837
	C1018.227,460.291,1024.189,457.826,1030.434,457.826z"/>
<g>
	<rect x="842.608" y="246.521" fill="#414042" width="46.956" height="46.956"/>
	<rect x="936.522" y="246.521" fill="#414042" width="46.955" height="46.956"/>
	<rect x="1030.434" y="246.521" fill="#414042" width="46.956" height="46.956"/>
</g>
</svg>
