<?xml version="1.0" encoding="utf-8"?>
<!-- Generator: Adobe Illustrator 16.0.0, SVG Export Plug-In . SVG Version: 6.00 Build 0)  -->
<!DOCTYPE svg PUBLIC "-//W3C//DTD SVG 1.1//EN" "http://www.w3.org/Graphics/SVG/1.1/DTD/svg11.dtd">
<svg version="1.1" id="Capa_1" xmlns="http://www.w3.org/2000/svg" xmlns:xlink="http://www.w3.org/1999/xlink" x="0px" y="0px"
	 width="1920px" height="1080px" viewBox="0 0 1920 1080" enable-background="new 0 0 1920 1080" xml:space="preserve">
<path fill="#414042" d="M1229.998,764.997H555.005c-37.215,0-67.499-30.283-67.499-67.499v-80.686l-60.908-60.904
	c-8.798-8.799-8.798-23.019,0-31.815l60.908-60.908V382.5c0-37.216,30.284-67.5,67.499-67.5h674.993c37.216,0,67.5,30.284,67.5,67.5
	v314.996C1297.498,734.714,1267.212,764.997,1229.998,764.997z M474.32,540.001l51.593,51.593c4.229,4.208,6.592,9.923,6.592,15.906
	v90c0,12.42,10.103,22.501,22.5,22.501h674.993c12.42,0,22.501-10.081,22.501-22.501V382.502c0-12.396-10.081-22.501-22.501-22.501
	H555.005c-12.396,0-22.5,10.103-22.5,22.501v90c0,5.963-2.362,11.7-6.592,15.906L474.32,540.001z"/>
<rect x="780.002" y="517.501" fill="#414042" width="44.998" height="44.998"/>
<rect x="870.001" y="517.501" fill="#414042" width="44.999" height="44.998"/>
<rect x="960.001" y="517.501" fill="#414042" width="44.999" height="44.998"/>
<path fill="#414042" d="M1364.997,472.502h-22.501v-44.999h22.501c12.42,0,22.501-10.102,22.501-22.501v-89.999
	c0-5.964,2.362-11.701,6.592-15.907l51.592-51.592l-51.592-51.593c-4.229-4.208-6.592-9.946-6.592-15.907v-90
	c0-12.396-10.081-22.5-22.501-22.5H690.004c-12.396,0-22.501,10.102-22.501,22.5v179.998h-44.999V90.004
	c0-37.215,30.284-67.499,67.5-67.499h674.993c37.216,0,67.499,30.284,67.499,67.499v80.685l60.908,60.908
	c8.798,8.798,8.798,23.017,0,31.815l-60.908,60.907v80.686C1432.496,442.216,1402.21,472.502,1364.997,472.502z"/>
<path fill="#27AAE1" d="M1364.997,1057.495H690.004c-37.216,0-67.5-30.284-67.5-67.499V809.998h44.999v179.998
	c0,12.42,10.103,22.5,22.501,22.5h674.993c12.42,0,22.501-10.08,22.501-22.5v-90c0-5.984,2.362-11.7,6.592-15.906l51.592-51.593
	l-51.592-51.593c-4.229-4.208-6.592-9.924-6.592-15.906v-90c0-12.42-10.081-22.501-22.501-22.501h-22.501v-44.999h22.501
	c37.216,0,67.499,30.284,67.499,67.5v80.685l60.908,60.907c8.798,8.799,8.798,23.018,0,31.815l-60.908,60.907v80.686
	C1432.496,1027.211,1402.21,1057.495,1364.997,1057.495z"/>
</svg>
