<?xml version="1.0" encoding="utf-8"?>
<!-- Generator: Adobe Illustrator 16.0.0, SVG Export Plug-In . SVG Version: 6.00 Build 0)  -->
<!DOCTYPE svg PUBLIC "-//W3C//DTD SVG 1.1//EN" "http://www.w3.org/Graphics/SVG/1.1/DTD/svg11.dtd">
<svg version="1.1" id="Capa_1" xmlns="http://www.w3.org/2000/svg" xmlns:xlink="http://www.w3.org/1999/xlink" x="0px" y="0px"
	 width="1920px" height="1080px" viewBox="0 0 1920 1080" enable-background="new 0 0 1920 1080" xml:space="preserve">
<path fill="#27AAE1" d="M1477.506,404.996h-450c-6.48,0-12.667-2.812-16.943-7.671l-157.501-180
	c-5.805-6.638-7.199-16.088-3.554-24.121c3.645-8.056,11.654-13.207,20.496-13.207h135.001V22.497
	c0-8.64,4.972-16.538,12.734-20.273s17.054-2.723,23.827,2.723l450,360.002c7.448,5.963,10.328,15.997,7.155,25.019
	C1495.551,398.989,1487.069,404.996,1477.506,404.996z M1037.721,359.997h375.639L1050.006,69.318v223.179h-44.999v-67.5h-85.411
	L1037.721,359.997z"/>
<g>
	<path fill="#414042" d="M442.505,1079.998c-9.089,0-17.303-5.468-20.79-13.882c-3.486-8.415-1.553-18.09,4.883-24.526
		c29.454-29.474,60.909-82.103,60.909-141.592c0-31.252-16.471-65.971-31.006-96.616l-5.13-10.867
		c-20.926-48.735-31.365-103.208-31.365-162.517c0-194.378,142.179-365.828,353.792-426.625
		c11.947-3.487,24.411,3.466,27.833,15.414c3.442,11.947-3.466,24.412-15.413,27.833
		c-192.131,55.215-321.214,209.271-321.214,383.378c0,53.167,9.224,101.678,27.428,144.136l4.726,9.945
		c15.75,33.21,35.347,74.544,35.347,115.921c0,49.657-17.617,95.243-40.118,130.637c53.393-9.788,98.888-35.888,135.675-77.939
		c8.191-9.359,22.41-10.305,31.748-2.137c9.359,8.19,10.305,22.409,2.116,31.748
		C605.225,1047.125,531.402,1079.998,442.505,1079.998z"/>
	<path fill="#414042" d="M937.505,1079.998c-97.38,0-169.335-25.785-212.559-47.362c-11.114-5.558-15.615-19.079-10.058-30.195
		c5.559-11.094,19.059-15.593,30.196-10.058c38.88,19.439,103.839,42.615,192.42,42.615c260.527,0,472.501-181.687,472.501-405
		c0-52.741-10.372-101.206-31.726-148.187c-5.153-11.296-0.158-24.638,11.161-29.791c11.407-5.153,24.705-0.111,29.79,11.183
		c24.075,52.92,35.775,107.483,35.775,166.792C1455.007,878.128,1222.874,1079.998,937.505,1079.998z"/>
</g>
<g>
	<rect x="825.005" y="607.497" fill="#403E3E" width="44.999" height="44.999"/>
	<rect x="915.006" y="607.497" fill="#403E3E" width="45" height="44.999"/>
	<rect x="1005.005" y="607.497" fill="#403E3E" width="44.999" height="44.999"/>
</g>
</svg>
