<?xml version="1.0" encoding="utf-8"?>
<!-- Generator: Adobe Illustrator 16.0.0, SVG Export Plug-In . SVG Version: 6.00 Build 0)  -->
<!DOCTYPE svg PUBLIC "-//W3C//DTD SVG 1.1//EN" "http://www.w3.org/Graphics/SVG/1.1/DTD/svg11.dtd">
<svg version="1.1" id="Layer_1" xmlns="http://www.w3.org/2000/svg" xmlns:xlink="http://www.w3.org/1999/xlink" x="0px" y="0px"
	 width="100px" height="100px" viewBox="0 0 100 100" enable-background="new 0 0 100 100" xml:space="preserve">
<g>
	<linearGradient id="SVGID_1_" gradientUnits="userSpaceOnUse" x1="0.2827" y1="50" x2="99.7168" y2="50">
		<stop  offset="0" style="stop-color:#3F6DB5"/>
		<stop  offset="1" style="stop-color:#5EC8DA"/>
	</linearGradient>
	<path fill-rule="evenodd" clip-rule="evenodd" fill="url(#SVGID_1_)" d="M27.186,74.591c1.25-1.71,2.448-3.363,3.659-5.005
		c5.096-6.909,10.451-13.607,16.068-20.101c6.671-7.71,13.701-15.074,21.191-21.989c9.58-8.845,19.748-16.93,31.031-23.536
		c0.17-0.099,0.34-0.193,0.582-0.234C70.789,29.874,48.903,61.183,31.963,96.273C21.323,83.931,10.802,71.724,0.283,59.52
		c0.02-0.03,0.04-0.062,0.06-0.092C9.252,64.461,18.161,69.493,27.186,74.591z"/>
</g>
</svg>
