<?xml version="1.0" encoding="utf-8"?>
<!-- Generator: Adobe Illustrator 16.0.0, SVG Export Plug-In . SVG Version: 6.00 Build 0)  -->
<!DOCTYPE svg PUBLIC "-//W3C//DTD SVG 1.1//EN" "http://www.w3.org/Graphics/SVG/1.1/DTD/svg11.dtd">
<svg version="1.1" id="Capa_1" xmlns="http://www.w3.org/2000/svg" xmlns:xlink="http://www.w3.org/1999/xlink" x="0px" y="0px"
	 width="1920px" height="1080px" viewBox="0 0 1920 1080" enable-background="new 0 0 1920 1080" xml:space="preserve">
<path fill="#27AAE1" d="M1027.5,584.999c-2.902,0-5.828-0.54-8.617-1.71c-8.414-3.466-13.881-11.701-13.881-20.79v-69.772
	c-51.277-10.438-90.001-55.911-90.001-110.228C915.001,320.467,965.468,270,1027.5,270h360.001
	C1449.533,270,1500,320.467,1500,382.499c0,62.033-50.467,112.5-112.499,112.5h-260.687l-83.405,83.406
	C1039.11,582.704,1033.35,584.999,1027.5,584.999z M1027.5,314.999c-37.216,0-67.5,30.284-67.5,67.5s30.284,67.5,67.5,67.5
	c12.443,0,22.501,10.081,22.501,22.501v35.685l51.593-51.594c4.208-4.229,9.923-6.592,15.907-6.592h270
	c37.216,0,67.5-30.284,67.5-67.5s-30.284-67.5-67.5-67.5H1027.5z"/>
<path fill="#414042" d="M532.499,900.001c-2.902,0-5.828-0.54-8.616-1.711c-8.394-3.466-13.882-11.701-13.882-20.79v-69.771
	C458.722,797.287,420,751.838,420,697.501c0-62.033,50.467-112.5,112.499-112.5H892.5c62.032,0,112.499,50.467,112.499,112.5
	C1004.999,759.533,954.532,810,892.5,810H631.814l-83.406,83.407C544.109,897.706,538.352,900.001,532.499,900.001z
	 M532.499,630.001c-37.216,0-67.5,30.284-67.5,67.5s30.284,67.5,67.5,67.5c12.42,0,22.501,10.058,22.501,22.5v35.685l51.594-51.593
	c4.208-4.229,9.945-6.592,15.906-6.592h270c37.216,0,67.5-30.284,67.5-67.5s-30.284-67.5-67.5-67.5H532.499z"/>
<g>
	<rect x="937.499" y="90.001" fill="#414042" width="44.999" height="44.999"/>
	<rect x="892.5" y="945" fill="#414042" width="135" height="44.999"/>
	<rect x="645.001" y="179.999" fill="#414042" width="630" height="45"/>
	<rect x="645.001" y="854.999" fill="#414042" width="630" height="45"/>
	<path fill="#414042" d="M667.499,540H622.5V112.499C622.5,50.467,672.967,0,734.999,0h449.999
		c62.035,0,112.502,50.467,112.502,112.499v112.5h-44.999v-112.5c0-37.215-30.284-67.5-67.5-67.5H734.999
		c-37.216,0-67.5,30.285-67.5,67.5V540z"/>
	<path fill="#414042" d="M1185.001,1080H734.999c-62.032,0-112.499-50.467-112.499-112.499v-112.5h44.999v112.5
		c0,37.216,30.284,67.5,67.5,67.5h450c37.216,0,67.5-30.284,67.5-67.5V540h45.001v427.501
		C1297.5,1029.533,1247.033,1080,1185.001,1080z"/>
</g>
</svg>
