<?xml version="1.0" encoding="utf-8"?>
<!-- Generator: Adobe Illustrator 16.0.0, SVG Export Plug-In . SVG Version: 6.00 Build 0)  -->
<!DOCTYPE svg PUBLIC "-//W3C//DTD SVG 1.1//EN" "http://www.w3.org/Graphics/SVG/1.1/DTD/svg11.dtd">
<svg version="1.1" id="Capa_1" xmlns="http://www.w3.org/2000/svg" xmlns:xlink="http://www.w3.org/1999/xlink" x="0px" y="0px"
	 width="1920px" height="1080px" viewBox="0 0 1920 1080" enable-background="new 0 0 1920 1080" xml:space="preserve">
<path fill="#414042" d="M1477.495,1012.498c-106.875,0-175.095-30.848-221.22-100.012c-6.908-10.352-4.117-24.301,6.232-31.208
	c10.352-6.886,24.323-4.117,31.208,6.232c30.375,45.539,72.359,69.886,136.104,77.399c-23.581-37.846-42.322-87.21-42.322-132.412
	c0-37.462,13.591-85.363,40.388-142.333c18.451-40.591,27.112-88.401,27.112-150.164c0-235.732-222.052-427.499-494.999-427.499
	c-272.948,0-494.999,191.765-494.999,427.497c0,235.731,222.053,427.499,494.999,427.499c71.775,0,144.675-14.58,216.65-43.402
	c11.451-4.59,24.638,0.969,29.251,12.556c4.612,11.543-1.014,24.638-12.556,29.251c-77.287,30.914-155.813,46.598-233.347,46.598
	C662.257,1012.5,420,800.528,420,540.002c0-260.549,242.257-472.498,539.998-472.498s539.998,211.949,539.998,472.498
	c0,68.422-9.923,122.151-31.275,169.063c-23.736,50.487-36.225,93.06-36.225,123.435c0,49.838,31.613,112.296,60.908,141.591
	c6.436,6.437,8.369,16.109,4.883,24.525C1494.821,1007.03,1486.586,1012.498,1477.495,1012.498z"/>
<path fill="#414042" d="M869.998,472.5c-12.421,0-22.501-10.08-22.501-22.5c0-25.65-19.351-44.999-44.999-44.999
	c-25.65,0-45,19.349-45,44.999c0,12.42-10.08,22.5-22.5,22.5s-22.501-10.08-22.501-22.5c0-50.467,39.532-90.001,90.001-90.001
	s90,39.534,90,90.001C892.498,462.42,882.418,472.5,869.998,472.5z"/>
<path fill="#27AAE1" d="M959.998,719.999L959.998,719.999c-65.249,0-126.899-26.393-173.609-74.294
	c-8.685-8.91-8.505-23.13,0.405-31.816c8.887-8.663,23.152-8.527,31.815,0.405c38.16,39.149,88.38,60.705,141.389,60.705
	c53.008,0,103.207-21.556,141.412-60.705c8.707-8.91,22.949-9.045,31.814-0.405c8.91,8.686,9.068,22.928,0.405,31.816
	C1086.896,693.606,1025.226,719.999,959.998,719.999z"/>
<line fill="none" stroke="#414042" stroke-width="46" stroke-linecap="round" stroke-miterlimit="10" x1="1030.498" y1="429.598" x2="1184.498" y2="429.598"/>
</svg>
