<?xml version="1.0" encoding="utf-8"?>
<!-- Generator: Adobe Illustrator 16.0.0, SVG Export Plug-In . SVG Version: 6.00 Build 0)  -->
<!DOCTYPE svg PUBLIC "-//W3C//DTD SVG 1.1//EN" "http://www.w3.org/Graphics/SVG/1.1/DTD/svg11.dtd">
<svg version="1.1" id="Capa_1" xmlns="http://www.w3.org/2000/svg" xmlns:xlink="http://www.w3.org/1999/xlink" x="0px" y="0px"
	 width="1920px" height="1080px" viewBox="0 0 1920 1080" enable-background="new 0 0 1920 1080" xml:space="preserve">
<g>
	<path fill="#414042" d="M577.501,989.999c-2.903,0-5.828-0.54-8.617-1.71C560.49,984.825,555,976.59,555,967.501V810h44.999
		v103.185l96.593-96.593c4.208-4.229,9.945-6.592,15.906-6.592h427.501v44.999H721.815L593.407,983.407
		C589.11,987.704,583.35,989.999,577.501,989.999z"/>
	<path fill="#414042" d="M510.001,854.999H487.5c-37.216,0-67.5-30.284-67.5-67.5V157.501c0-37.216,30.284-67.5,67.5-67.5h854.999
		c37.216,0,67.5,30.284,67.5,67.5v427.501H1365V157.501c0-12.399-10.081-22.501-22.501-22.501H487.5
		c-12.396,0-22.501,10.102-22.501,22.501v630c0,12.418,10.104,22.499,22.501,22.499h22.501V854.999z"/>
</g>
<g>
	<rect x="802.499" y="449.999" fill="#403E3E" width="44.999" height="45"/>
	<rect x="892.5" y="449.999" fill="#403E3E" width="44.999" height="45"/>
	<rect x="982.501" y="449.999" fill="#403E3E" width="44.999" height="45"/>
</g>
<g>
	<path fill="#27AAE1" d="M1342.499,945c-86.828,0-157.5-70.673-157.5-157.501s70.672-157.5,157.5-157.5S1500,700.673,1500,787.499
		S1429.327,945,1342.499,945z M1342.499,675C1280.467,675,1230,725.467,1230,787.499c0,62.033,50.467,112.5,112.499,112.5
		c62.033,0,112.5-50.467,112.5-112.5C1454.999,725.467,1404.531,675,1342.499,675z"/>
	
		<rect x="1320.004" y="653.792" transform="matrix(0.7071 -0.7071 0.7071 0.7071 -163.5879 1179.9521)" fill="#27AAE1" width="44.999" height="267.295"/>
</g>
</svg>
