<?xml version="1.0" encoding="utf-8"?>
<!-- Generator: Adobe Illustrator 16.0.0, SVG Export Plug-In . SVG Version: 6.00 Build 0)  -->
<!DOCTYPE svg PUBLIC "-//W3C//DTD SVG 1.1//EN" "http://www.w3.org/Graphics/SVG/1.1/DTD/svg11.dtd">
<svg version="1.1" id="Capa_1" xmlns="http://www.w3.org/2000/svg" xmlns:xlink="http://www.w3.org/1999/xlink" x="0px" y="0px"
	 width="1920px" height="1080px" viewBox="0 0 1920 1080" enable-background="new 0 0 1920 1080" xml:space="preserve">
<g>
	<rect x="869.999" y="90.001" fill="#414042" width="44.999" height="44.999"/>
	<rect x="825" y="945" fill="#414042" width="135" height="44.999"/>
</g>
<g>
	<rect x="577.501" y="179.999" fill="#414042" width="630" height="45"/>
	<rect x="577.501" y="854.999" fill="#414042" width="630" height="45"/>
</g>
<g>
	<rect x="780.001" y="765.001" fill="#414042" width="44.999" height="44.999"/>
	<rect x="869.999" y="765.001" fill="#414042" width="44.999" height="44.999"/>
	<rect x="960" y="765.001" fill="#414042" width="44.999" height="44.999"/>
</g>
<path fill="#414042" d="M1117.501,1080H667.499C605.467,1080,555,1029.533,555,967.501V112.499C555,50.467,605.467,0,667.499,0
	h449.999C1179.533,0,1230,50.467,1230,112.499v112.5h-44.999v-112.5c0-37.215-30.284-67.5-67.5-67.5H667.499
	c-37.216,0-67.5,30.285-67.5,67.5v855c0,37.216,30.284,67.5,67.5,67.5h449.999c37.217,0,67.5-30.284,67.5-67.5V675H1230v292.501
	C1230,1029.533,1179.533,1080,1117.501,1080z"/>
<path fill="#27AAE1" d="M847.501,719.999c-2.903,0-5.828-0.54-8.617-1.71c-8.394-3.466-13.882-11.701-13.882-20.79v-67.5h-22.5
	c-12.421,0-22.501-10.058-22.501-22.501V292.501c0-12.42,10.081-22.501,22.501-22.501h540c12.442,0,22.5,10.081,22.5,22.5v315
	c0,12.443-10.058,22.501-22.5,22.501H946.814l-83.407,83.406C859.11,717.704,853.35,719.999,847.501,719.999z M825,584.999h22.501
	c12.42,0,22.5,10.058,22.5,22.501v35.685l51.594-51.594c4.208-4.229,9.945-6.592,15.906-6.592h382.5v-270H825V584.999z"/>
<g>
	<rect x="892.5" y="382.499" fill="#414042" width="360.001" height="45"/>
	<rect x="892.5" y="472.5" fill="#414042" width="202.5" height="44.999"/>
</g>
</svg>
