<?xml version="1.0" encoding="utf-8"?>
<!-- Generator: Adobe Illustrator 16.0.0, SVG Export Plug-In . SVG Version: 6.00 Build 0)  -->
<!DOCTYPE svg PUBLIC "-//W3C//DTD SVG 1.1//EN" "http://www.w3.org/Graphics/SVG/1.1/DTD/svg11.dtd">
<svg version="1.1" id="Capa_1" xmlns="http://www.w3.org/2000/svg" xmlns:xlink="http://www.w3.org/1999/xlink" x="0px" y="0px"
	 width="1920px" height="1080px" viewBox="0 0 1920 1080" enable-background="new 0 0 1920 1080" xml:space="preserve">
<path fill="#B9BBBD" d="M1477.489,1079.994c-2.498,0-5.039-0.429-7.47-1.283l-226.031-79.648
	c-86.625,52.986-184.544,80.932-283.993,80.932C662.255,1079.994,420,837.738,420,539.999C420,242.259,662.255,0.004,959.995,0.004
	c297.739,0,539.994,242.255,539.994,539.995c0,103.048-30.014,204.5-86.78,293.353c-0.247,0.382-0.473,0.719-0.698,1.08
	l85.882,214.715c3.284,8.19,1.441,17.55-4.657,23.918C1489.393,1077.587,1483.52,1079.994,1477.489,1079.994z M959.995,45.005
	c-272.944,0-494.996,222.049-494.996,494.996s222.052,494.994,494.996,494.994c94.431,0,187.513-27.584,269.143-79.717
	c5.828-3.713,13.118-4.567,19.575-2.271l189.471,66.779l-56.835-142.063c-13.544,17.101-26.729,31.904-38.002,44.235
	c-8.414,9.136-22.636,9.764-31.792,1.395c-9.156-8.415-9.787-22.636-1.395-31.793c28.171-30.712,48.262-56.136,65.16-82.439
	c52.086-81.606,79.673-174.688,79.673-269.12C1454.99,267.055,1232.939,45.005,959.995,45.005z"/>
<path fill="#EE3168" d="M959.995,967.495c-235.731,0-427.497-191.766-427.497-427.496c0-12.42,10.081-22.501,22.501-22.501
	s22.5,10.081,22.5,22.501c0,210.912,171.583,382.495,382.495,382.495c210.913,0,382.496-171.583,382.496-382.495
	s-171.583-382.496-382.495-382.496c-12.42,0-22.501-10.081-22.501-22.5s10.081-22.499,22.501-22.499
	c235.73,0,427.496,191.766,427.496,427.497C1387.491,775.732,1195.726,967.495,959.995,967.495z"/>
<g>
	<path fill="#414042" d="M982.495,674.998h-44.999v-47.25c0-42.637,23.399-78.862,62.572-96.952
		c30.081-15.029,49.926-46.868,49.926-80.797c0-50.466-39.531-90-89.999-90c-50.467,0-90,39.532-90,90h-44.999
		C824.996,374.31,884.305,315,959.995,315c75.689,0,134.998,59.31,134.998,134.999c0,50.827-29.608,98.458-75.44,121.388
		c-23.783,10.979-37.058,31.41-37.058,56.361V674.998z"/>
	<rect x="937.494" y="719.999" fill="#414042" width="44.999" height="44.998"/>
</g>
</svg>
