<?xml version="1.0" encoding="utf-8"?>
<!-- Generator: Adobe Illustrator 16.0.0, SVG Export Plug-In . SVG Version: 6.00 Build 0)  -->
<!DOCTYPE svg PUBLIC "-//W3C//DTD SVG 1.1//EN" "http://www.w3.org/Graphics/SVG/1.1/DTD/svg11.dtd">
<svg version="1.1" id="Capa_1" xmlns="http://www.w3.org/2000/svg" xmlns:xlink="http://www.w3.org/1999/xlink" x="0px" y="0px"
	 width="1920px" height="1080px" viewBox="0 0 1920 1080" enable-background="new 0 0 1920 1080" xml:space="preserve">
<path fill="#B9BBBD" d="M1342.499,1057.499c-5.849,0-11.609-2.295-15.906-6.592l-128.408-128.408H487.5
	c-37.216,0-67.5-30.284-67.5-67.5V90.001c0-37.216,30.284-67.5,67.5-67.5h945c37.216,0,67.5,30.284,67.5,67.5v765
	c0,37.216-30.284,67.5-67.5,67.5h-22.501V877.5h22.501c12.42,0,22.501-10.081,22.501-22.501V90.001
	c0-12.399-10.081-22.501-22.501-22.501h-945c-12.396,0-22.501,10.102-22.501,22.501v765c0,12.418,10.104,22.499,22.501,22.499
	h719.999c5.984,0,11.701,2.362,15.907,6.592l96.592,96.593V877.5H1365v157.501c0,9.089-5.468,17.324-13.882,20.79
	C1348.327,1056.959,1345.402,1057.499,1342.499,1057.499z"/>
<g>
	<rect x="510.001" y="112.499" fill="#414042" width="44.999" height="45"/>
	<rect x="599.999" y="112.499" fill="#414042" width="44.999" height="45"/>
	<rect x="690" y="112.499" fill="#414042" width="44.999" height="45"/>
</g>
<rect x="442.501" y="202.5" fill="#B9BBBD" width="1035" height="44.999"/>
<g>
	<rect x="532.499" y="697.501" fill="#414042" width="202.5" height="44.999"/>
	<rect x="780.001" y="697.501" fill="#414042" width="607.5" height="44.999"/>
</g>
<path fill="#EE3168" d="M1387.501,832.501H532.499c-12.42,0-22.501-10.058-22.501-22.501V314.999c0-12.42,10.081-22.5,22.501-22.5
	h855c12.442,0,22.5,10.081,22.5,22.5V810C1409.999,822.443,1399.941,832.501,1387.501,832.501z M555,787.499h810V337.5H555V787.499z
	"/>
<path fill="#414042" d="M915.001,630.001H892.5c-12.42,0-22.501-10.058-22.501-22.501V427.501c0-12.42,10.081-22.501,22.501-22.501
	h22.501c3.915,0,7.763,1.013,11.16,2.97l157.501,90.001c7.02,4.006,11.34,11.452,11.34,19.531c0,8.076-4.32,15.524-11.34,19.53
	l-157.501,90.001C922.764,628.965,918.916,630.001,915.001,630.001z M915.001,453.421v128.183l112.141-64.103L915.001,453.421z"/>
</svg>
