<?xml version="1.0" encoding="utf-8"?>
<!-- Generator: Adobe Illustrator 16.0.0, SVG Export Plug-In . SVG Version: 6.00 Build 0)  -->
<!DOCTYPE svg PUBLIC "-//W3C//DTD SVG 1.1//EN" "http://www.w3.org/Graphics/SVG/1.1/DTD/svg11.dtd">
<svg version="1.1" id="Capa_1" xmlns="http://www.w3.org/2000/svg" xmlns:xlink="http://www.w3.org/1999/xlink" x="0px" y="0px"
	 width="1920px" height="1080px" viewBox="0 0 1920 1080" enable-background="new 0 0 1920 1080" xml:space="preserve">
<g>
	<rect x="701.739" y="375.652" fill="#414042" width="516.521" height="46.956"/>
	<rect x="701.739" y="469.564" fill="#414042" width="516.521" height="46.955"/>
	<rect x="795.652" y="563.478" fill="#414042" width="328.695" height="46.956"/>
</g>
<path fill="#414042" d="M584.349,1009.565c-3.028,0-6.082-0.563-8.991-1.785c-8.759-3.616-14.488-12.21-14.488-21.694V821.738
	h46.956v107.67l100.792-100.792c4.392-4.413,10.378-6.878,16.599-6.878h704.348c12.96,0,23.479-10.52,23.479-23.479V140.87
	c0-12.936-10.519-23.479-23.479-23.479H490.435c-12.936,0-23.479,10.541-23.479,23.479v657.391c0,12.96,10.541,23.479,23.479,23.479
	h23.479v46.955h-23.479c-38.834,0-70.435-31.601-70.435-70.435V140.87c0-38.834,31.601-70.435,70.435-70.435h939.131
	c38.834,0,70.435,31.601,70.435,70.435v657.391c0,38.834-31.601,70.435-70.435,70.435H734.938l-133.99,133.991
	C596.463,1007.171,590.452,1009.565,584.349,1009.565z"/>
<g>
	<rect x="1359.131" y="727.826" fill="#27AAE1" width="46.955" height="46.956"/>
	<path fill="#27AAE1" d="M1312.173,774.782h-46.956v-46.956h46.956V774.782z M1218.261,774.782h-46.955v-46.956h46.955V774.782z
		 M1124.348,774.782h-46.956v-46.956h46.956V774.782z M1030.434,774.782h-46.956v-46.956h46.956V774.782z M936.522,774.782h-46.956
		v-46.956h46.956V774.782z M842.608,774.782h-46.956v-46.956h46.956V774.782z M748.694,774.782h-46.955v-46.956h46.955V774.782z
		 M654.783,774.782h-46.958v-46.956h46.956v46.956H654.783z"/>
	<rect x="513.914" y="727.826" fill="#27AAE1" width="46.955" height="46.956"/>
	<path fill="#27AAE1" d="M560.869,680.868h-46.955v-46.955h46.955V680.868z M560.869,586.957h-46.955v-46.956h46.955V586.957z
		 M560.869,493.043h-46.955v-46.955h46.955V493.043z M560.869,399.13h-46.955v-46.956h46.955V399.13z M560.869,305.218h-46.955
		v-46.956h46.955V305.218z"/>
	<rect x="513.914" y="164.349" fill="#27AAE1" width="46.955" height="46.956"/>
	<path fill="#27AAE1" d="M1312.173,211.304h-46.956v-46.956h46.956V211.304z M1218.261,211.304h-46.955v-46.956h46.955V211.304z
		 M1124.348,211.304h-46.956v-46.956h46.956V211.304z M1030.434,211.304h-46.956v-46.956h46.956V211.304z M936.522,211.304h-46.956
		v-46.956h46.956V211.304z M842.608,211.304h-46.956v-46.956h46.956V211.304z M748.694,211.304h-46.955v-46.956h46.955V211.304z
		 M654.783,211.304h-46.958v-46.956h46.956v46.956H654.783z"/>
	<rect x="1359.131" y="164.349" fill="#27AAE1" width="46.955" height="46.956"/>
	<path fill="#27AAE1" d="M1406.086,680.868h-46.955v-46.955h46.955V680.868z M1406.086,586.957h-46.955v-46.956h46.955V586.957z
		 M1406.086,493.043h-46.955v-46.955h46.955V493.043z M1406.086,399.13h-46.955v-46.956h46.955V399.13z M1406.086,305.218h-46.955
		v-46.956h46.955V305.218z"/>
</g>
</svg>
