<?xml version="1.0" encoding="utf-8"?>
<!-- Generator: Adobe Illustrator 16.0.0, SVG Export Plug-In . SVG Version: 6.00 Build 0)  -->
<!DOCTYPE svg PUBLIC "-//W3C//DTD SVG 1.1//EN" "http://www.w3.org/Graphics/SVG/1.1/DTD/svg11.dtd">
<svg version="1.1" id="Capa_1" xmlns="http://www.w3.org/2000/svg" xmlns:xlink="http://www.w3.org/1999/xlink" x="0px" y="0px"
	 width="1920px" height="1080px" viewBox="0 0 1920 1080" enable-background="new 0 0 1920 1080" xml:space="preserve">
<g>
	<path fill="#414042" d="M1342.499,787.499h-135V742.5h135c5.67,0,11.07-2.386,15.616-6.93c4.499-4.499,6.885-9.898,6.885-15.569
		v-135h44.999v135c0,17.595-7.11,34.426-20.07,47.386C1376.924,780.391,1360.096,787.499,1342.499,787.499z"/>
	<path fill="#414042" d="M555,405h-44.999V270c0-17.618,7.132-34.448,20.092-47.408s29.79-20.092,47.408-20.092h135v44.999h-135
		c-5.67,0-11.07,2.386-15.593,6.908C557.386,258.93,555,264.33,555,270V405z"/>
	<rect x="1117.501" y="742.5" fill="#414042" width="44.999" height="44.999"/>
	<rect x="757.5" y="202.5" fill="#414042" width="44.999" height="44.999"/>
	<rect x="622.5" y="742.5" fill="#414042" width="44.999" height="44.999"/>
	<rect x="712.501" y="742.5" fill="#414042" width="44.999" height="44.999"/>
	<rect x="802.499" y="742.5" fill="#414042" width="44.999" height="44.999"/>
	<rect x="1072.499" y="202.5" fill="#414042" width="45" height="44.999"/>
	<rect x="1162.5" y="202.5" fill="#414042" width="44.999" height="44.999"/>
	<rect x="1252.501" y="202.5" fill="#414042" width="44.999" height="44.999"/>
</g>
<path fill="#414042" d="M1387.501,540c-5.85,0-11.61-2.295-15.907-6.592l-83.406-83.407H937.499c-37.216,0-67.5-30.284-67.5-67.5
	V67.5c0-37.216,30.284-67.5,67.5-67.5H1432.5c37.216,0,67.5,30.284,67.5,67.5v314.999c0,37.216-30.284,67.5-67.5,67.5h-22.501v67.5
	c0,9.09-5.468,17.304-13.882,20.79C1393.327,539.437,1390.403,540,1387.501,540z M937.499,44.999
	c-12.396,0-22.501,10.102-22.501,22.501v314.999c0,12.397,10.103,22.501,22.501,22.501H1297.5c5.984,0,11.701,2.362,15.906,6.592
	L1365,463.185v-35.684c0-12.42,10.058-22.501,22.501-22.501h44.999c12.42,0,22.501-10.102,22.501-22.501V67.5
	c0-12.397-10.081-22.501-22.501-22.501H937.499z"/>
<path fill="#27AAE1" d="M532.499,1080c-2.902,0-5.828-0.54-8.616-1.711c-8.394-3.466-13.882-11.7-13.882-20.79v-67.5H487.5
	c-37.216,0-67.5-30.284-67.5-67.5V607.5c0-37.216,30.284-67.5,67.5-67.5h495.001c37.216,0,67.5,30.284,67.5,67.5v314.999
	c0,37.216-30.284,67.5-67.5,67.5H631.814l-83.406,83.407C544.109,1077.705,538.351,1080,532.499,1080z M487.5,584.999
	c-12.396,0-22.501,10.081-22.501,22.501v314.999c0,12.42,10.104,22.501,22.501,22.501h44.999c12.42,0,22.501,10.058,22.501,22.501
	v35.684l51.594-51.593c4.205-4.229,9.943-6.592,15.906-6.592h360.001c12.42,0,22.5-10.081,22.5-22.501V607.5
	c0-12.42-10.08-22.501-22.5-22.501H487.5z"/>
</svg>
